<?xml version="1.0" encoding="utf-8"?>
<!-- Generator: Adobe Illustrator 27.5.0, SVG Export Plug-In . SVG Version: 6.00 Build 0)  -->
<svg version="1.1" xmlns="http://www.w3.org/2000/svg" xmlns:xlink="http://www.w3.org/1999/xlink" x="0px" y="0px"
	 viewBox="0 0 500 500" style="enable-background:new 0 0 500 500;" xml:space="preserve">
<g id="Floor">
	<path id="Floor_13_" style="fill:#F5F5F5;" d="M101.533,432.377c82.452,43.094,216.133,43.096,298.584,0.001
		c82.452-43.096,82.452-112.966,0-156.06c-82.452-43.095-216.133-43.095-298.585-0.001C19.08,319.411,19.08,389.282,101.533,432.377
		z"/>
</g>
<g id="Shadows">
	<path id="Shadow_2_" style="fill:#E0E0E0;" d="M245.863,386.889l3.795,2.191c1.196,0.69,3.134,0.69,4.33,0l101.282-58.476
		c1.196-0.69,1.196-1.81,0-2.5l-3.794-2.191c-1.196-0.69-3.134-0.69-4.33,0l-101.284,58.476
		C244.667,385.079,244.667,386.198,245.863,386.889z"/>
	<path id="Shadow_1_" style="fill:#E0E0E0;" d="M410.877,378.665c-12.541,6.709-32.874,6.709-45.415,0
		c-12.541-6.708-12.541-17.585,0-24.294c12.541-6.707,32.874-6.707,45.415,0C423.418,361.08,423.418,371.957,410.877,378.665z"/>
</g>
<g id="Plants_1_">
	<g id="Plants_10_">
		<g id="XMLID_2568_">
			<g id="XMLID_2572_">
				<path id="XMLID_2574_" style="fill:#27DEBF;" d="M403.115,338.498c0,0,1.156-10.166,6.212-18.055
					c5.057-7.89,12.005-12.814,18.488-13.326c6.483-0.513,11.719,5.452,4.782,9.548c-6.936,4.096-19.26,8.276-24.932,23.595
					L403.115,338.498z"/>
				<path id="XMLID_2573_" style="opacity:0.1;" d="M403.115,338.498c0,0,1.156-10.166,6.212-18.055
					c5.057-7.89,12.005-12.814,18.488-13.326c6.483-0.513,11.719,5.452,4.782,9.548c-6.936,4.096-19.26,8.276-24.932,23.595
					L403.115,338.498z"/>
			</g>
			<g id="XMLID_2570_">
				<path id="XMLID_2571_" style="fill:#FFFFFF;" d="M405.016,335.858c-0.023-0.004-0.046-0.01-0.068-0.02
					c-0.177-0.072-0.263-0.274-0.19-0.451c6.841-16.849,19.865-23.884,25.796-25.25c0.186-0.044,0.372,0.074,0.415,0.26
					c0.043,0.187-0.073,0.372-0.26,0.415c-5.81,1.338-18.577,8.251-25.311,24.835C405.335,335.802,405.173,335.887,405.016,335.858z
					"/>
			</g>
		</g>
		<g id="XMLID_2550_">
			<g id="XMLID_2565_">
				<g id="XMLID_2566_">
					<path id="XMLID_2567_" style="fill:#27DEBF;" d="M439.646,336.057c-0.587,1.323-2.031,2.012-3.376,2.554
						c-1.337,0.537-2.802,1.122-3.529,2.374c-1.463,2.527,0.939,6.081-0.632,8.542c-0.659,1.032-1.885,1.575-3.091,1.792
						c-1.001,0.187-2.021,0.186-3.037,0.271c-0.489-0.01-0.972-0.046-1.444-0.112c-1.394-0.202-2.905-0.267-4.182,0.446
						c-2.009,1.129-2.626,3.665-3.846,5.621c-1.463,2.342-4.049,3.875-6.766,4.245c-0.903,0.119-2.582,0.282-3.501-0.231
						c-0.072-0.04-0.132-0.077-0.19-0.121c-0.006-0.001-0.012-0.009-0.017-0.016c-0.126-0.142-0.285-0.324-0.353-0.422
						c-0.017-0.016-0.026-0.038-0.036-0.059c-0.356-1.311,0.225-2.675,0.248-4.028c0.002-0.086,0.004-0.165-0.002-0.245
						c-0.056-1.574-0.1-3.138-0.137-4.708c-0.073-2.888-0.106-5.783-0.086-8.674c0.02-1.878-0.206-3.933,0.588-5.702
						c0.88-1.945,3.067-1.988,3.894-3.897c0.331-0.761,0.507-1.576,0.827-2.346c0.957-2.256,3.274-3.878,5.727-3.998
						c3.818-0.194,7.246,2.898,11.06,2.617c0.988-0.077,1.95-0.378,2.924-0.557c3.093-0.579,6.668,0.301,8.408,2.919
						C439.826,333.414,440.177,334.856,439.646,336.057z"/>
				</g>
			</g>
			<g id="XMLID_2561_">
				<path id="XMLID_2564_" style="fill:#FFFFFF;" d="M405.334,354.924c-0.009-0.002-0.017-0.004-0.026-0.006
					c-0.173-0.046-0.277-0.225-0.23-0.399c5.276-19.797,26.135-22.658,31.015-22.305c0.177,0.014,0.314,0.169,0.302,0.348
					c-0.013,0.179-0.169,0.314-0.348,0.302c-4.774-0.345-25.176,2.454-30.339,21.824C405.663,354.853,405.5,354.954,405.334,354.924
					z"/>
			</g>
			<g id="XMLID_2551_">
				<path id="XMLID_2560_" style="fill:#FFFFFF;" d="M428.51,344.892c-0.063-0.012-0.124-0.042-0.172-0.091
					c-0.052-0.053-5.372-5.297-14.195-3.999c-0.178,0.024-0.344-0.097-0.37-0.275c-0.026-0.178,0.097-0.344,0.275-0.37
					c9.164-1.347,14.698,4.13,14.753,4.185c0.127,0.128,0.125,0.334-0.002,0.461C428.719,344.881,428.611,344.911,428.51,344.892z"
					/>
			</g>
		</g>
	</g>
</g>
<g id="Folder_1_">
	<g id="Folder_2_">
		<g id="XMLID_120_">
			<path id="XMLID_124_" style="fill:#263238;" d="M266.318,244.394v9.96l-172.57,99.62v0.01l-5.31,3.06
				c-2.24-1.29-4.06-4.58-4.06-7.34v-167.79c0-0.28,0.1-0.58,0.25-0.85c0.16-0.27,0.38-0.51,0.62-0.65l39.33-22.71
				c0.48-0.27,3.28,0.9,3.74,1.18l0.3,0.17c0.23,0.14,0.48,0.36,0.69,0.61c0.23,0.27,0.42,0.56,0.5,0.83l3.56,10.28l128.02-76.26
				c0.46-0.26,1.2-0.27,1.68-0.03l2.38,1.38c0.24,0.14,0.45,0.37,0.61,0.64c0.16,0.27,0.25,0.58,0.25,0.86v35.04L266.318,244.394z"
				/>
			<path id="XMLID_123_" style="fill:#37474F;" d="M266.318,254.354l-177.88,102.69v-173.79l40.87-23.59
				c0.23,0.27,0.42,0.56,0.5,0.83l3.56,10.28l0.68,1.95l132.01-76.22c0.16,0.27,0.25,0.58,0.25,0.86L266.318,254.354z"/>
			<path id="XMLID_122_" style="fill:#455A64;" d="M129.308,159.664l-40.87,23.59l-3.81-2.191c0.16-0.27,0.38-0.51,0.62-0.65
				l39.33-22.71c0.48-0.27,1.25-0.27,1.71,0.01l2.33,1.341C128.848,159.194,129.098,159.414,129.308,159.664z"/>
			<path id="XMLID_121_" style="fill:#455A64;" d="M266.058,96.504l-132.01,76.22l-0.68-1.95l128.02-76.261
				c0.46-0.26,1.2-0.27,1.68-0.03l2.38,1.381C265.688,96.004,265.898,96.234,266.058,96.504z"/>
		</g>
		<g id="Document_6_">
			<g id="XMLID_118_">
				<path id="XMLID_119_" style="fill:#FAFAFA;" d="M143.088,286.375c-1.018-0.588-1.843-2.08-1.843-3.333v-165.26
					c0-1.253,0.88-2.777,1.965-3.403l97.622-56.302c1.085-0.626,2.79-0.658,3.808-0.07c1.018,0.588,1.843,2.08,1.843,3.333
					l0.001,165.26c0,1.253-0.88,2.777-1.965,3.403l-97.623,56.302C145.811,286.931,144.106,286.962,143.088,286.375z"/>
			</g>
			<g id="XMLID_116_">
				<path id="XMLID_117_" style="fill:#F0F0F0;" d="M146.896,286.304l97.623-56.302c1.085-0.626,1.965-2.15,1.965-3.403
					l-0.001-165.26c0-1.253-0.88-1.761-1.965-1.134l-97.623,56.302c-1.085,0.626-1.965,2.15-1.965,3.403l0.001,165.26
					C144.931,286.423,145.811,286.931,146.896,286.304z"/>
			</g>
			<path id="XMLID_115_" style="fill:#E0E0E0;" d="M157.594,123.067l73.713-42.559c0.957-0.552,1.732-0.105,1.732,1v0.69
				c0,1.105-0.775,2.448-1.732,3l-73.715,42.559c-0.956,0.552-1.732,0.104-1.731-1l0-0.69
				C155.861,124.963,156.637,123.62,157.594,123.067z"/>
			<path id="XMLID_114_" style="fill:#E0E0E0;" d="M157.594,134.78l73.713-42.559c0.957-0.552,1.732-0.104,1.732,1v0.691
				c0,1.104-0.775,2.448-1.732,3l-73.715,42.559c-0.956,0.552-1.732,0.105-1.731-1l0-0.69
				C155.861,136.675,156.637,135.332,157.594,134.78z"/>
			<path id="XMLID_113_" style="fill:#E0E0E0;" d="M157.594,146.492l73.713-42.559c0.957-0.552,1.732-0.105,1.732,1v0.69
				c0,1.105-0.775,2.448-1.732,3l-73.715,42.559c-0.956,0.552-1.732,0.105-1.731-1l0-0.69
				C155.861,148.388,156.637,147.045,157.594,146.492z"/>
			<path id="XMLID_112_" style="fill:#E0E0E0;" d="M157.594,158.205l73.713-42.559c0.957-0.552,1.732-0.105,1.732,1v0.69
				c0,1.105-0.775,2.448-1.732,3l-73.715,42.559c-0.956,0.552-1.732,0.105-1.731-1l0-0.69
				C155.861,160.1,156.637,158.757,157.594,158.205z"/>
			<path id="XMLID_111_" style="fill:#E0E0E0;" d="M157.594,169.917l73.713-42.559c0.957-0.552,1.732-0.105,1.732,1v0.69
				c0,1.105-0.775,2.448-1.732,3l-73.715,42.559c-0.956,0.552-1.732,0.105-1.731-1l0-0.69
				C155.861,171.813,156.637,170.47,157.594,169.917z"/>
			<path id="XMLID_110_" style="fill:#E0E0E0;" d="M157.594,181.715l73.713-42.559c0.957-0.552,1.732-0.105,1.732,1v0.69
				c0,1.105-0.775,2.448-1.732,3l-73.715,42.559c-0.956,0.552-1.732,0.105-1.731-1l0-0.69
				C155.861,183.611,156.637,182.268,157.594,181.715z"/>
			<path id="XMLID_109_" style="fill:#E0E0E0;" d="M157.594,193.428l73.713-42.559c0.957-0.552,1.732-0.105,1.732,1v0.69
				c0,1.105-0.775,2.448-1.732,3l-73.715,42.559c-0.956,0.552-1.732,0.104-1.731-1l0-0.69
				C155.861,195.323,156.637,193.98,157.594,193.428z"/>
			<path id="XMLID_108_" style="fill:#E0E0E0;" d="M157.594,205.14l73.713-42.559c0.957-0.552,1.732-0.105,1.732,1v0.691
				c0,1.105-0.775,2.448-1.732,3l-73.715,42.559c-0.956,0.552-1.732,0.105-1.731-1l0-0.69
				C155.861,207.036,156.637,205.693,157.594,205.14z"/>
			<path id="XMLID_107_" style="fill:#E0E0E0;" d="M157.594,216.853l73.713-42.559c0.957-0.552,1.732-0.105,1.732,1v0.69
				c0,1.105-0.775,2.448-1.732,3l-73.715,42.559c-0.956,0.552-1.732,0.105-1.731-1l0-0.69
				C155.861,218.748,156.637,217.405,157.594,216.853z"/>
			<path id="XMLID_106_" style="fill:#E0E0E0;" d="M157.594,228.565l73.713-42.559c0.957-0.552,1.732-0.105,1.732,1v0.69
				c0,1.105-0.775,2.448-1.732,3l-73.715,42.559c-0.956,0.552-1.732,0.105-1.731-1l0-0.69
				C155.861,230.461,156.637,229.117,157.594,228.565z"/>
			<path id="XMLID_105_" style="fill:#E0E0E0;" d="M157.594,240.329l73.713-42.559c0.957-0.552,1.732-0.105,1.732,1v0.691
				c0,1.104-0.775,2.448-1.732,3l-73.715,42.559c-0.956,0.552-1.732,0.105-1.731-1l0-0.69
				C155.861,242.225,156.637,240.882,157.594,240.329z"/>
			<path id="XMLID_104_" style="fill:#E0E0E0;" d="M157.594,252.042l73.713-42.559c0.957-0.552,1.732-0.105,1.732,1v0.69
				c0,1.105-0.775,2.448-1.732,3l-73.715,42.559c-0.956,0.552-1.732,0.105-1.731-1l0-0.69
				C155.861,253.937,156.637,252.594,157.594,252.042z"/>
			<path id="XMLID_103_" style="fill:#E0E0E0;" d="M157.594,263.754l73.713-42.559c0.957-0.552,1.732-0.104,1.732,1v0.691
				c0,1.105-0.775,2.448-1.732,3l-73.715,42.559c-0.956,0.552-1.732,0.105-1.731-1l0-0.69
				C155.861,265.65,156.637,264.306,157.594,263.754z"/>
			<g id="XMLID_101_">
				<path id="XMLID_102_" style="fill:#E0E0E0;" d="M146.639,286.433c-1.08,0.5-2.61,0.49-3.55-0.06c-1.02-0.59-1.84-2.08-1.84-3.33
					V117.785c0-0.63,0.22-1.32,0.57-1.94l3.69,2.13c-0.36,0.61-0.58,1.31-0.58,1.93v165.268
					C144.93,286.323,145.68,286.843,146.639,286.433z"/>
			</g>
		</g>
		<g id="Document_5_">
			<g id="XMLID_99_">
				<path id="XMLID_100_" style="fill:#FAFAFA;" d="M156.907,294.215c-1.018-0.588-1.843-2.08-1.843-3.333v-165.26
					c0-1.253,0.88-2.777,1.965-3.403l97.622-56.302c1.085-0.626,2.79-0.658,3.808-0.07c1.018,0.588,1.843,2.08,1.843,3.333
					l0.001,165.26c0,1.253-0.88,2.777-1.965,3.403l-97.623,56.302C159.63,294.771,157.925,294.802,156.907,294.215z"/>
			</g>
			<g id="XMLID_97_">
				<path id="XMLID_98_" style="fill:#F0F0F0;" d="M160.715,294.145l97.623-56.302c1.085-0.626,1.965-2.15,1.965-3.403
					l-0.001-165.26c0-1.253-0.88-1.761-1.965-1.134l-97.623,56.302c-1.085,0.626-1.965,2.15-1.965,3.403l0.001,165.26
					C158.75,294.263,159.63,294.771,160.715,294.145z"/>
			</g>
			<path id="XMLID_96_" style="fill:#E0E0E0;" d="M171.413,130.908l73.713-42.559c0.957-0.552,1.732-0.105,1.732,1v0.69
				c0,1.105-0.775,2.448-1.732,3l-73.715,42.559c-0.957,0.552-1.732,0.105-1.731-1l0-0.69
				C169.68,132.803,170.456,131.46,171.413,130.908z"/>
			<path id="XMLID_95_" style="fill:#E0E0E0;" d="M171.413,142.62l73.713-42.559c0.957-0.552,1.732-0.104,1.732,1v0.69
				c0,1.105-0.775,2.448-1.732,3l-73.715,42.559c-0.957,0.552-1.732,0.105-1.731-1l0-0.69
				C169.68,144.516,170.456,143.172,171.413,142.62z"/>
			<path id="XMLID_94_" style="fill:#E0E0E0;" d="M171.413,154.333l73.713-42.559c0.957-0.552,1.732-0.105,1.732,1v0.69
				c0,1.104-0.775,2.448-1.732,3l-73.715,42.559c-0.957,0.552-1.732,0.105-1.731-1l0-0.69
				C169.68,156.228,170.456,154.885,171.413,154.333z"/>
			<path id="XMLID_93_" style="fill:#E0E0E0;" d="M171.413,166.045l73.713-42.559c0.957-0.552,1.732-0.105,1.732,1v0.69
				c0,1.105-0.775,2.448-1.732,3l-73.715,42.559c-0.957,0.552-1.732,0.104-1.731-1l0-0.69
				C169.68,167.941,170.456,166.597,171.413,166.045z"/>
			<path id="XMLID_92_" style="fill:#E0E0E0;" d="M171.413,177.758l73.713-42.559c0.957-0.552,1.732-0.104,1.732,1v0.691
				c0,1.105-0.775,2.448-1.732,3l-73.715,42.559c-0.957,0.552-1.732,0.105-1.731-1l0-0.69
				C169.68,179.653,170.456,178.31,171.413,177.758z"/>
			<path id="XMLID_91_" style="fill:#E0E0E0;" d="M171.413,189.556l73.713-42.559c0.957-0.552,1.732-0.105,1.732,1v0.69
				c0,1.105-0.775,2.448-1.732,3l-73.715,42.559c-0.957,0.552-1.732,0.105-1.731-1l0-0.69
				C169.68,191.451,170.456,190.108,171.413,189.556z"/>
			<path id="XMLID_90_" style="fill:#E0E0E0;" d="M171.413,201.268l73.713-42.559c0.957-0.552,1.732-0.105,1.732,1v0.69
				c0,1.105-0.775,2.448-1.732,3l-73.715,42.559c-0.957,0.552-1.732,0.105-1.731-1l0-0.69
				C169.68,203.163,170.456,201.82,171.413,201.268z"/>
			<path id="XMLID_89_" style="fill:#E0E0E0;" d="M171.413,212.98l73.713-42.559c0.957-0.552,1.732-0.105,1.732,1v0.69
				c0,1.105-0.775,2.448-1.732,3l-73.715,42.559c-0.957,0.552-1.732,0.105-1.731-1l0-0.69
				C169.68,214.876,170.456,213.533,171.413,212.98z"/>
			<path id="XMLID_88_" style="fill:#E0E0E0;" d="M171.413,224.693l73.713-42.559c0.957-0.552,1.732-0.105,1.732,1v0.691
				c0,1.104-0.775,2.448-1.732,3l-73.715,42.559c-0.957,0.552-1.732,0.105-1.731-1l0-0.69
				C169.68,226.588,170.456,225.245,171.413,224.693z"/>
			<path id="XMLID_87_" style="fill:#E0E0E0;" d="M171.413,236.405l73.713-42.559c0.957-0.552,1.732-0.105,1.732,1v0.69
				c0,1.105-0.775,2.448-1.732,3l-73.715,42.559c-0.957,0.552-1.732,0.104-1.731-1l0-0.69
				C169.68,238.301,170.456,236.958,171.413,236.405z"/>
			<path id="XMLID_86_" style="fill:#E0E0E0;" d="M171.413,248.169l73.713-42.559c0.957-0.552,1.732-0.105,1.732,1v0.69
				c0,1.105-0.775,2.448-1.732,3l-73.715,42.559c-0.957,0.552-1.732,0.105-1.731-1l0-0.69
				C169.68,250.065,170.456,248.722,171.413,248.169z"/>
			<path id="XMLID_85_" style="fill:#E0E0E0;" d="M171.413,259.882l73.713-42.559c0.957-0.552,1.732-0.105,1.732,1v0.69
				c0,1.105-0.775,2.448-1.732,3l-73.715,42.559c-0.957,0.552-1.732,0.104-1.731-1l0-0.69
				C169.68,261.777,170.456,260.434,171.413,259.882z"/>
			<path id="XMLID_84_" style="fill:#E0E0E0;" d="M171.413,271.594l73.713-42.559c0.957-0.552,1.732-0.105,1.732,1v0.69
				c0,1.105-0.775,2.448-1.732,3l-73.715,42.559c-0.957,0.552-1.732,0.105-1.731-1l0-0.69
				C169.68,273.49,170.456,272.147,171.413,271.594z"/>
			<g id="XMLID_82_">
				<path id="XMLID_83_" style="fill:#E0E0E0;" d="M160.458,294.273c-1.08,0.5-2.61,0.49-3.55-0.06c-1.02-0.59-1.84-2.08-1.84-3.33
					V125.626c0-0.63,0.22-1.32,0.57-1.94l3.69,2.13c-0.36,0.61-0.58,1.31-0.58,1.93v165.268
					C158.749,294.163,159.499,294.683,160.458,294.273z"/>
			</g>
		</g>
		<g id="XMLID_77_">
			<path id="XMLID_81_" style="fill:#37474F;" d="M302.648,116.964l-28.52,123.5l-2.63,11.36c-0.62,2.69-3.06,5.99-5.45,7.37
				l-169.22,97.7c-1.12,0.65-2.56,1.01-4,1.07c-1.6,0.07-3.21-0.23-4.39-0.92l0.87-3.77c0.03-0.12,0.06-0.24,0.09-0.37l0.95-4.13
				l4.14-17.92l26.22-113.54c0.03-0.14,0.09-0.28,0.16-0.42c0.07-0.13,0.15-0.26,0.23-0.38c0.01-0.02,0.03-0.04,0.04-0.06
				c0.2-0.26,0.43-0.48,0.66-0.62l144.51-83.43l31.63-18.26c0.48-0.28,1.26-0.28,1.74,0l2.33,1.34
				C302.478,115.764,302.768,116.424,302.648,116.964z"/>
			<path id="XMLID_80_" style="fill:#455A64;" d="M302.678,116.714c-0.02-0.35-0.28-0.46-0.67-0.23l-176.15,101.7
				c-0.23,0.13-0.47,0.36-0.66,0.62l-4.06-2.35c0.2-0.26,0.43-0.48,0.66-0.62l176.14-101.69c0.48-0.28,1.26-0.28,1.74,0l2.33,1.34
				C302.408,115.724,302.678,116.234,302.678,116.714z"/>
			<path id="XMLID_79_" style="fill:#263238;" d="M125.198,218.804c-0.12,0.16-0.22,0.33-0.3,0.49c-0.06,0.13-0.1,0.25-0.13,0.36
				l-25.07,108.58h-0.01l-5.28,22.88l-0.66,2.86v0.01l-0.92,3.98c-1.6,0.07-3.21-0.23-4.39-0.92l0.87-3.77
				c0.03-0.12,0.06-0.24,0.09-0.37l0.95-4.13l4.14-17.92l26.22-113.54c0.03-0.14,0.09-0.28,0.16-0.42c0.07-0.13,0.15-0.26,0.23-0.38
				c0.01-0.02,0.03-0.04,0.04-0.06L125.198,218.804z"/>
			<path id="XMLID_78_" style="fill:#263238;" d="M94.642,346.558c0.429,0.247,0.645,0.746,0.534,1.228l-1.428,6.188v0.01
				l-0.717,3.102c-0.123,0.534-0.614,0.903-1.161,0.876c-1.269-0.063-2.488-0.365-3.432-0.917c-2.24-1.29-4.06-4.58-4.06-7.34
				l0-7.121c0-0.867,0.938-1.408,1.689-0.975l1.809,1.045c0.348,0.201,0.562,0.575,0.562,0.977v3.539
				c0,1.34,1.921,1.559,2.222,0.253l0.302-1.309c0.17-0.737,1.005-1.1,1.66-0.721L94.642,346.558z"/>
		</g>
		<g id="XMLID_68_">
			<g id="XMLID_72_">
				<path id="XMLID_76_" style="fill:#27DEBF;" d="M131.998,320.166l-9.631-5.559c0,0-0.01,0-0.02,0l-0.1-0.06l-0.01,0.02
					c-4.789-2.704-11.354-2.305-18.628,1.896c-6.805,3.921-13.01,10.466-17.69,18.039c-5.408,8.72-8.81,18.817-8.81,27.867
					c0,8.441,2.953,14.368,7.733,17.141v0.01l0.03,0.01l9.778,5.585c4.829,3.078,11.647,2.806,19.21-1.561
					c14.639-8.452,26.507-29.006,26.508-45.91C140.368,328.843,137.147,322.776,131.998,320.166z"/>
				<g id="XMLID_73_">
					<path id="XMLID_75_" style="opacity:0.1;" d="M94.46,385.006l-9.59-5.48l-0.03-0.01v-0.01c-4.78-2.77-7.73-8.7-7.73-17.14
						c0-9.05,3.4-19.14,8.81-27.86l10.23,5.9c-5.41,8.72-8.8,18.8-8.8,27.84C87.349,376.316,90.049,382.086,94.46,385.006z"/>
					<path id="XMLID_74_" style="opacity:0.4;fill:#FFFFFF;" d="M131.799,320.056c-4.72-2.29-11.02-1.71-17.94,2.28
						c-6.81,3.94-13.02,10.49-17.71,18.07l-10.23-5.9c4.68-7.58,10.89-14.12,17.69-18.04c7.27-4.2,13.84-4.6,18.63-1.9l0.01-0.02
						l0.1,0.06c0.01,0,0.02,0,0.02,0L131.799,320.056z"/>
				</g>
			</g>
			<g id="XMLID_69_">
				<path id="XMLID_70_" style="fill:#FFFFFF;" d="M117.524,355.673v9.297c0,0.458-0.108,0.916-0.324,1.373
					c-0.216,0.458-0.473,0.772-0.77,0.944l-5.108,2.949c-0.298,0.172-0.554,0.154-0.77-0.055c-0.216-0.208-0.324-0.54-0.324-0.999
					v-9.297l-6.283,3.628c-0.298,0.172-0.554,0.154-0.77-0.055c-0.217-0.207-0.324-0.54-0.324-0.998v-6.304
					c0-0.457,0.108-0.914,0.324-1.373c0.216-0.457,0.473-0.772,0.77-0.944l6.283-3.628v-9.297c0-0.457,0.108-0.915,0.324-1.373
					c0.216-0.458,0.473-0.772,0.77-0.944l5.108-2.949c0.297-0.172,0.554-0.153,0.77,0.055c0.216,0.208,0.324,0.541,0.324,0.998V346
					l6.243-3.604c0.297-0.172,0.554-0.153,0.77,0.055c0.216,0.209,0.324,0.542,0.324,0.999v6.304c0,0.458-0.108,0.916-0.324,1.373
					c-0.216,0.458-0.473,0.772-0.77,0.944L117.524,355.673z"/>
			</g>
		</g>
	</g>
</g>
<g id="Character">
	<g id="Character_5_">
		<path id="XMLID_2391_" style="fill:#B16668;" d="M374.556,211.187l-11.683-0.324c-0.786-0.672-13.056-14.521-13.056-14.521
			s-4.416,6.968-4.49,7.411c-0.074,0.444,12.032,13.39,13.229,14.696c0.663,0.723,1.27,1.301,2.857,1.397
			c3.166,0.19,15.021,1.023,15.021,1.023L374.556,211.187z"/>
		<g id="Document_3_">
			<g id="XMLID_569_">
				<path id="XMLID_2173_" style="fill:#27DEBF;" d="M249.79,386.708c-1.018-0.588-1.843-2.08-1.843-3.333V227.95
					c0-1.253,0.88-2.777,1.965-3.403l97.622-56.302c1.085-0.626,2.79-0.658,3.808-0.07c1.018,0.588,1.843,2.08,1.843,3.333
					l0.001,155.426c0,1.253-0.88,2.776-1.965,3.403l-97.623,56.302C252.513,387.264,250.809,387.296,249.79,386.708z"/>
				<path id="XMLID_2785_" style="opacity:0.15;" d="M253.053,386.86c0.06-0.01,0.13-0.03,0.2-0.06c-0.04,0.03-0.09,0.05-0.14,0.06
					c-0.11,0.05-0.23,0.08-0.36,0.12c-0.06,0.02-0.13,0.03-0.2,0.05c-0.15,0.03-0.3,0.06-0.45,0.07c-0.17,0.02-0.35,0.03-0.52,0.03
					c-0.66,0-1.3-0.14-1.79-0.42c-0.38-0.22-0.74-0.57-1.03-0.99c-0.49-0.68-0.81-1.56-0.81-2.34V227.95c0-0.32,0.05-0.64,0.15-0.97
					c0.05-0.17,0.11-0.33,0.18-0.49c0.07-0.17,0.15-0.32,0.24-0.48l3.68,2.13h0.01c-0.03,0.05-0.06,0.1-0.09,0.15
					c-0.3,0.57-0.49,1.21-0.49,1.78v155.44c0,0.22,0.03,0.42,0.08,0.59c0.08,0.26,0.21,0.46,0.38,0.6c0.12,0.09,0.25,0.15,0.4,0.19
					c0.07,0.01,0.15,0.02,0.23,0.02c0.09,0,0.18-0.01,0.27-0.04C253.013,386.88,253.033,386.87,253.053,386.86z"/>
				<path id="XMLID_2770_" style="opacity:0.3;fill:#FFFFFF;" d="M353.153,171.14c-0.16-0.98-0.96-1.33-1.93-0.77l-97.63,56.3
					c-0.54,0.32-1.03,0.86-1.39,1.47l-3.68-2.13c0.35-0.61,0.84-1.15,1.39-1.46l97.62-56.31c1.09-0.62,2.79-0.65,3.81-0.07
					C352.263,168.7,353.023,169.97,353.153,171.14z"/>
			</g>
			<g id="XMLID_570_">
				<g id="XMLID_571_">
					<path id="XMLID_1424_" style="fill:#FAFAFA;" d="M264.296,233.236l73.713-42.559c0.957-0.552,1.732-0.105,1.732,1v0.69
						c0,1.105-0.776,2.448-1.732,3l-73.715,42.559c-0.957,0.552-1.732,0.105-1.731-1l0-0.69
						C262.564,235.131,263.339,233.788,264.296,233.236z"/>
					<path id="XMLID_1211_" style="fill:#FAFAFA;" d="M264.296,247.566l73.713-42.559c0.957-0.552,1.732-0.105,1.732,1v0.691
						c0,1.104-0.776,2.448-1.732,3l-73.715,42.559c-0.957,0.552-1.732,0.105-1.731-1l0-0.69
						C262.564,249.462,263.339,248.118,264.296,247.566z"/>
					<path id="XMLID_1210_" style="fill:#FAFAFA;" d="M264.296,261.897l73.713-42.559c0.957-0.552,1.732-0.105,1.732,1v0.69
						c0,1.105-0.776,2.448-1.732,3l-73.715,42.559c-0.957,0.552-1.732,0.104-1.731-1l0-0.69
						C262.564,263.792,263.339,262.449,264.296,261.897z"/>
					<path id="XMLID_1209_" style="fill:#FAFAFA;" d="M264.296,276.227l73.713-42.559c0.957-0.552,1.732-0.105,1.732,1v0.691
						c0,1.105-0.776,2.448-1.732,3l-73.715,42.559c-0.957,0.552-1.732,0.105-1.731-1l0-0.69
						C262.564,278.123,263.339,276.779,264.296,276.227z"/>
					<path id="XMLID_1208_" style="fill:#FAFAFA;" d="M264.296,290.558l73.713-42.559c0.957-0.552,1.732-0.105,1.732,1v0.69
						c0,1.105-0.776,2.448-1.732,3l-73.715,42.559c-0.957,0.552-1.732,0.105-1.731-1l0-0.69
						C262.564,292.453,263.339,291.11,264.296,290.558z"/>
					<path id="XMLID_1207_" style="fill:#FAFAFA;" d="M264.296,304.888l73.713-42.559c0.957-0.552,1.732-0.105,1.732,1v0.69
						c0,1.105-0.776,2.448-1.732,3l-73.715,42.559c-0.957,0.552-1.732,0.105-1.731-1l0-0.69
						C262.564,306.784,263.339,305.44,264.296,304.888z"/>
					<path id="XMLID_1204_" style="fill:#FAFAFA;" d="M264.296,319.219l73.713-42.559c0.957-0.552,1.732-0.105,1.732,1v0.69
						c0,1.105-0.776,2.448-1.732,3l-73.715,42.559c-0.957,0.552-1.732,0.105-1.731-1l0-0.69
						C262.564,321.114,263.339,319.771,264.296,319.219z"/>
					<path id="XMLID_1203_" style="fill:#FAFAFA;" d="M264.296,333.549l73.713-42.559c0.957-0.552,1.732-0.105,1.732,1v0.691
						c0,1.104-0.776,2.448-1.732,3l-73.715,42.559c-0.957,0.552-1.732,0.105-1.731-1l0-0.69
						C262.564,335.444,263.339,334.101,264.296,333.549z"/>
					<path id="XMLID_1170_" style="fill:#FAFAFA;" d="M264.296,347.879l73.713-42.559c0.957-0.552,1.732-0.105,1.732,1v0.69
						c0,1.105-0.776,2.448-1.732,3l-73.715,42.559c-0.957,0.552-1.732,0.105-1.731-1l0-0.69
						C262.564,349.775,263.339,348.432,264.296,347.879z"/>
					<path id="XMLID_1111_" style="fill:#FAFAFA;" d="M264.296,362.21l73.713-42.559c0.957-0.552,1.732-0.105,1.732,1v0.69
						c0,1.105-0.776,2.448-1.732,3L264.294,366.9c-0.957,0.552-1.732,0.105-1.731-1l0-0.69
						C262.564,364.105,263.339,362.762,264.296,362.21z"/>
				</g>
			</g>
		</g>
		<g id="XMLID_1860_">
			<g id="XMLID_2400_">
				<path id="XMLID_2401_" style="fill:#263238;" d="M376.734,209.161h13.874c9.909,0,17.942-8.033,17.942-17.942v0
					c0-8.786-7.122-15.908-15.908-15.908l0,0c-8.786,0-15.908,7.122-15.908,15.908V209.161z"/>
			</g>
			<path id="XMLID_2399_" style="fill:#263238;" d="M404.971,181.579l3.851-2.067c-0.546-1.103-1.852-1.535-2.915-0.964
				C404.844,179.119,404.424,180.476,404.971,181.579z"/>
			<path id="XMLID_2395_" style="fill:#263238;" d="M404.731,182.016l4.094,1.531c0.469-1.138-0.067-2.404-1.198-2.827
				C406.497,180.297,405.2,180.877,404.731,182.016z"/>
			<g id="XMLID_2364_">
				<path id="XMLID_2390_" style="fill:#27DEBF;" d="M391.026,222.394l-19.326-0.837c-1.712-2.348-1.665-8.562,0.055-10.548
					l21.392,0.584L391.026,222.394z"/>
			</g>
			<g id="XMLID_1866_">
				<g id="XMLID_1867_">
					<g id="XMLID_1979_">
						<path id="XMLID_2418_" style="fill:#B16668;" d="M379.251,342.313c0.161,2.025,0.157,2.63,0.157,3.885
							c0,1.255,0,7.613,0,7.613h6.623v-4.466c0-2.019,0.165-4.034,0.494-6.026L379.251,342.313z"/>
						<path id="XMLID_2417_" style="fill:#263238;" d="M379.405,350.547v-0.947c-0.188,1.444-4.302,6.859-6.929,9.255
							c-2.089,1.905-4.939,4.106-5.664,6.23c-0.754,2.21,3.367,3.084,6.068,2.814c3.162-0.316,5.629-2.216,6.798-3.557
							c1.719-1.971,2.133-3.273,2.935-4.358c0.802-1.085,4.401-3.304,4.835-4.56c0.238-0.69-0.045-2.2-0.379-3.477
							c-0.307-1.171-0.64-2.458-1.04-2.349c-0.001,0.143,0,0.722,0,0.722c-0.481,0.533-1.811,1.062-3.311,1.119
							C381.747,351.478,379.397,351.285,379.405,350.547z"/>
						<path id="XMLID_1991_" style="fill:#B16668;" d="M386.027,350.321c-0.48,0.533-1.811,1.062-3.311,1.119
							c-0.969,0.037-3.32-0.155-3.312-0.894v-0.947c-0.189,1.444-4.302,6.858-6.929,9.255c-0.5,0.456-1.045,0.93-1.592,1.415
							c-1.111,1.238-0.796,2.318,1.815,2.543c2.611,0.225,4.907-1.35,6.888-3.782C381.568,356.599,386.027,350.321,386.027,350.321z
							"/>
					</g>
					<g id="XMLID_1977_">
						<path id="XMLID_1990_" style="fill:#B16668;" d="M399.478,353.527c0.128,1.603,0.135,3.276,0.157,3.991v7.613h6.623v-4.466
							c0-2.019,0.165-4.034,0.494-6.026L399.478,353.527z"/>
						<path id="XMLID_1981_" style="fill:#263238;" d="M399.632,361.866v-0.947c-0.188,1.444-4.302,6.859-6.929,9.255
							c-2.089,1.905-4.939,4.106-5.664,6.23c-0.754,2.21,3.367,3.084,6.068,2.814c3.162-0.316,5.629-2.216,6.798-3.556
							c1.719-1.971,2.133-3.273,2.935-4.358c0.802-1.085,4.401-3.304,4.835-4.56c0.238-0.69-0.045-2.2-0.379-3.477
							c-0.307-1.171-0.64-2.458-1.04-2.349c-0.001,0.143,0,0.722,0,0.722c-0.481,0.533-1.811,1.062-3.311,1.119
							C401.974,362.798,399.624,362.605,399.632,361.866z"/>
						<path id="XMLID_1978_" style="fill:#B16668;" d="M406.254,361.641c-0.48,0.533-1.811,1.062-3.311,1.119
							c-0.969,0.037-3.32-0.155-3.311-0.894v-0.947c-0.189,1.444-4.302,6.858-6.93,9.255c-0.5,0.456-1.044,0.93-1.592,1.415
							c-1.111,1.238-0.796,2.318,1.815,2.543c2.611,0.225,4.907-1.35,6.888-3.782C401.795,367.919,406.254,361.641,406.254,361.641z
							"/>
					</g>
					<g id="XMLID_1986_">
						<path id="XMLID_1987_" style="fill:#455A64;" d="M379.251,345.453c-1.417-11.674-3.742-31.851-4.422-36.259
							c-0.631-4.088,0.955-39.036,1.923-50.128l34.494-1.848c2.626,11.242,0.069,26.399-0.829,35.867
							c-0.875,9.214-1.958,19.984-1.958,19.984s2.695,9.387,1.981,16.862c-0.454,4.706-2.568,18.922-3.573,24.998
							c-1.779,1.103-5.067,1.285-7.568-0.1c0.115,1.29-1.229-15.737-2.024-22.617c-1.104-9.553-1.52-16.517-2.499-22.091
							c-1.232-6.957-1.659-34.22-1.659-34.22l-3.974,30.926c0,0,0.627,4.207,0.627,10.048c0,6.903-2.548,22.606-3.35,28.47
							C384.677,346.556,381.155,346.931,379.251,345.453z"/>
					</g>
					<path id="XMLID_1984_" style="fill:#37474F;" d="M393.116,275.901c0,0-6.303-2.211-9.893-5.507c0,0,2.444,4.22,7.392,6.463
						l0.052,18.106L393.116,275.901"/>
					<g id="XMLID_1982_">
						<path id="XMLID_1983_" style="fill:#F0F0F0;" d="M398.137,211.738c0,0,9.37,1.077,10.491,1.581
							c-5.711,6.253,0.368,11.432,0.368,11.432l-4.342,19.136c3.747,4.796,5.888,8.491,6.784,14.207
							c-4.014,7.073-26.567,8.056-34.832,2.785c0.719-9.873,2.323-16.941,1.789-19.905c-3.939-12.123-2.712-14.664-2.343-17.432
							c0.721-5.408,6.089-10.123,9.156-12.098c0,0,2.297,0,2.861,0L398.137,211.738z"/>
					</g>
					<g id="XMLID_1975_">
						<path id="XMLID_1976_" style="fill:#B16668;" d="M381.96,183.099c-1.68,0.993-3.757,5.219-3.552,14.079
							c0.174,7.509,2.608,9.364,3.83,9.898c1.222,0.535,3.579,0.209,5.871-0.173v4.507c0,0-3.167,3.678-2.968,5.745
							c0.199,2.067,4.573,2.555,7.536,0.536c2.963-2.019,5.46-5.953,5.46-5.953l-0.052-10.362c0,0,1.349,1.31,3.635-0.689
							c1.888-1.65,2.524-4.434,1.053-5.927c-1.471-1.493-4.19-1.087-5.233,1.043c0,0-1.274-3.537-6.551-5.262
							C386.22,188.982,383.628,187.188,381.96,183.099z"/>
					</g>
					<g id="XMLID_1971_">
						<path id="XMLID_1973_" style="fill:#263238;" d="M387.301,195.292c-0.027,0.541,0.373,1,0.894,1.025
							c0.521,0.025,0.965-0.394,0.992-0.935c0.027-0.541-0.373-1-0.894-1.024C387.772,194.332,387.328,194.751,387.301,195.292z"/>
					</g>
					<g id="XMLID_1969_">
						<path id="XMLID_1970_" style="fill:#9A4A4D;" d="M387.049,201.657l-2.193,0.699c0.182,0.628,0.82,0.98,1.426,0.787
							C386.888,202.95,387.231,202.285,387.049,201.657z"/>
					</g>
					<g id="XMLID_1966_">
						<path id="XMLID_1967_" style="fill:#263238;" d="M379.559,192.392l1.911-1.324c-0.349-0.546-1.059-0.691-1.587-0.326
							C379.355,191.108,379.21,191.847,379.559,192.392z"/>
					</g>
					<g id="XMLID_1939_">
						<path id="XMLID_1940_" style="fill:#263238;" d="M390.049,193.091l-1.911-1.324c0.349-0.546,1.059-0.691,1.587-0.326
							C390.253,191.807,390.397,192.546,390.049,193.091z"/>
					</g>
					<g id="XMLID_1936_">
						<path id="XMLID_1938_" style="fill:#263238;" d="M379.999,194.609c-0.027,0.541,0.373,0.999,0.894,1.024
							c0.521,0.025,0.965-0.394,0.992-0.935c0.027-0.541-0.373-1-0.894-1.024C380.471,193.649,380.027,194.068,379.999,194.609z"/>
					</g>
					<g id="XMLID_1872_">
						<polygon id="XMLID_1873_" style="fill:#9A4A4D;" points="384.454,194.068 384.304,199.752 381.312,198.826 						"/>
					</g>
					<g id="XMLID_1870_">
						<path id="XMLID_1871_" style="fill:#9A4A4D;" d="M388.108,206.904c2.415-0.317,7.383-1.744,8.157-3.708
							c0,0-0.258,1.234-1.742,2.506c-1.484,1.272-6.415,2.705-6.415,2.705V206.904z"/>
					</g>
					<g id="XMLID_1868_">
						<polygon id="XMLID_1869_" style="fill:#E0E0E0;" points="406.592,235.341 398.6,247.009 404.653,243.887 						"/>
					</g>
				</g>
			</g>
		</g>
		<g id="XMLID_1008_">
			<path id="XMLID_1052_" style="fill:#B16668;" d="M402.891,215.868c-2.206,2.283-18.748,19.394-18.748,19.394
				s-18.411-1.816-24.664-3.604c-1.97-0.563-3.563-3.263-3.997-5.533c-0.434-2.27-2.19-2.51-2.19-2.51v4.541
				c-0.159,1.15-0.721,1.745-2.365,1.782c-6.322,0.139-9.25-1.782-10.021,1.652c-0.491,2.19,0.462,4.685,4.638,5.83
				c5.856,1.604,9.09,0.803,12.658,1.688c2.751,0.682,21.933,4.331,25.705,5.155c1.995,0.436,3.515,0.298,5.68-1.845
				c2.165-2.144,18.444-17.332,18.444-17.332c4.971-4.968,3.517-10.132,0.738-11.659
				C407.03,212.467,405.097,213.585,402.891,215.868z"/>
			<path id="XMLID_1049_" style="fill:#27DEBF;" d="M408.628,213.319c1.215,0.492,2.695,1.777,2.81,5.122
				c0.115,3.345-2.349,6.378-5.259,9.857c-2.909,3.479-3.785,4.4-3.785,4.4s-7.368-2.675-8.614-8.151c0,0,5.546-5.871,7.211-7.755
				C402.656,214.906,405.71,212.024,408.628,213.319z"/>
		</g>
	</g>
</g>
<g id="Clouds">
	<path id="XMLID_5_" style="fill:#EBEBEB;" d="M370.627,86.775l6.952,4.014c-0.034-0.31-0.059-0.619-0.059-0.92v-2.014
		c0-3.584,2.516-5.037,5.62-3.245c1.257,0.726,2.413,1.876,3.349,3.221c0.508-4.507,4.044-6.185,8.338-3.706
		c4.643,2.681,8.408,9.201,8.408,14.563v3.013c0,1.389-0.257,2.558-0.712,3.49l5.774,3.334c1.722,0.994,3.117,3.411,3.117,5.399
		c0,1.988-1.396,2.794-3.117,1.8l-37.671-21.749c-1.722-0.994-3.117-3.411-3.117-5.399C367.51,86.587,368.906,85.781,370.627,86.775
		z"/>
	<path id="XMLID_1_" style="fill:#EBEBEB;" d="M340.878,107.03l5.246,3.029c-0.026-0.234-0.044-0.467-0.044-0.695v-1.52
		c0-2.705,1.899-3.801,4.241-2.449c0.949,0.548,1.821,1.415,2.528,2.431c0.384-3.401,3.052-4.668,6.293-2.797
		c3.504,2.023,6.345,6.944,6.345,10.99v2.274c0,1.048-0.194,1.931-0.537,2.634l4.358,2.516c1.299,0.75,2.353,2.575,2.353,4.075
		c0,1.5-1.053,2.109-2.353,1.358l-28.431-16.414c-1.299-0.75-2.353-2.575-2.353-4.075
		C338.525,106.888,339.578,106.28,340.878,107.03z"/>
</g>
</svg>
