<?xml version="1.0" encoding="utf-8"?>
<!-- Generator: Adobe Illustrator 27.5.0, SVG Export Plug-In . SVG Version: 6.00 Build 0)  -->
<svg version="1.1" xmlns="http://www.w3.org/2000/svg" xmlns:xlink="http://www.w3.org/1999/xlink" x="0px" y="0px"
	 viewBox="0 0 500 500" style="enable-background:new 0 0 500 500;" xml:space="preserve">
<g id="Background_Complete">
	<g>
		<rect y="382.398" style="fill:#EBEBEB;" width="500" height="0.25"/>
		<rect x="52.459" y="391.922" style="fill:#EBEBEB;" width="33.122" height="0.25"/>
		<rect x="171.14" y="392.047" style="fill:#EBEBEB;" width="53.86" height="0.25"/>
		<rect x="105.774" y="397.083" style="fill:#EBEBEB;" width="19.192" height="0.25"/>
		<rect x="426.766" y="396.958" style="fill:#EBEBEB;" width="19.235" height="0.25"/>
		<rect x="387.57" y="396.958" style="fill:#EBEBEB;" width="30.292" height="0.25"/>
		<rect x="328.333" y="395.306" style="fill:#EBEBEB;" width="42.556" height="0.25"/>
		<path style="fill:#EBEBEB;" d="M237.014,337.8H43.915c-3.147,0-5.708-2.561-5.708-5.708V60.66c0-3.147,2.561-5.708,5.708-5.708
			h193.099c3.146,0,5.707,2.561,5.707,5.708v271.432C242.721,335.239,240.16,337.8,237.014,337.8z M43.915,55.203
			c-3.01,0-5.458,2.448-5.458,5.458v271.432c0,3.01,2.448,5.458,5.458,5.458h193.099c3.009,0,5.457-2.448,5.457-5.458V60.66
			c0-3.009-2.448-5.458-5.457-5.458H43.915z"/>
		<path style="fill:#EBEBEB;" d="M453.31,337.8H260.212c-3.147,0-5.707-2.561-5.707-5.708V60.66c0-3.147,2.561-5.708,5.707-5.708
			H453.31c3.148,0,5.708,2.561,5.708,5.708v271.432C459.019,335.239,456.458,337.8,453.31,337.8z M260.212,55.203
			c-3.009,0-5.457,2.448-5.457,5.458v271.432c0,3.01,2.448,5.458,5.457,5.458H453.31c3.01,0,5.458-2.448,5.458-5.458V60.66
			c0-3.009-2.448-5.458-5.458-5.458H260.212z"/>
	</g>
	<g>
		<g>
			<path style="fill:#E6E6E6;" d="M415.841,307.731c5.217-1.771,9.015-6.809,5.694-11.97c-5.494-8.539,8.254-10.357,4.395-24.65
				c-5.447-20.178-22.33-2.688-26.529-22.057c-3.055-14.092-26.722-23.324-27.647-4.772c-1.013,20.314-11.195,7.046-13.456,29.628
				c-1.564,15.615,20.659,17.889,14.027,22.774c-4.844,3.568-7.711,9.778-0.947,14.03c9.209,5.788,0.517,10.309,6.777,14.348
				c6.174,3.983,7.283-2.4,17.004,0.735c8.693,2.803,16.058-5.787,14.327-11.157C407.872,309.628,410.59,309.514,415.841,307.731z"
				/>
			<g>
				<path style="fill:#F0F0F0;" d="M365.598,317.015c0,0,0.715,65.383,28.116,65.383c27.401,0,28.116-65.383,28.116-65.383H365.598z
					"/>
			</g>
		</g>
		<g>
			<rect x="69.02" y="89.576" style="fill:#E6E6E6;" width="121.311" height="129.779"/>
			<rect x="71.846" y="89.576" style="fill:#F0F0F0;" width="124.532" height="129.779"/>
			<rect x="69.02" y="219.355" style="fill:#E6E6E6;" width="121.311" height="11.237"/>
			<rect x="81.919" y="219.355" style="fill:#F0F0F0;" width="124.532" height="11.237"/>
			
				<rect x="77.687" y="100.665" transform="matrix(-1.836970e-16 1 -1 -1.836970e-16 288.5774 20.3542)" style="fill:#FAFAFA;" width="112.849" height="107.601"/>
			<polygon style="fill:#FFFFFF;" points="95.922,210.89 145.609,98.041 169.064,98.041 119.378,210.89 			"/>
			<path style="fill:#F0F0F0;" d="M84.23,202.464c-0.334,0-0.605-0.271-0.605-0.605v-98.31c0-0.334,0.271-0.605,0.605-0.605
				s0.605,0.271,0.605,0.605v98.31C84.835,202.194,84.564,202.464,84.23,202.464z"/>
			<polygon style="fill:#FFFFFF;" points="124.416,210.89 174.103,98.041 183.247,98.041 133.56,210.89 			"/>
			
				<rect x="130.95" y="153.928" transform="matrix(-1.836970e-16 1 -1 -1.836970e-16 341.8404 -32.9088)" style="fill:#E6E6E6;" width="112.849" height="1.075"/>
			<polygon style="opacity:0.6;fill:#EBEBEB;" points="198.38,110.806 77.069,110.806 76.29,101.332 197.601,101.332 			"/>
			<polygon style="opacity:0.6;fill:#EBEBEB;" points="198.38,126.343 77.069,126.343 76.29,116.87 197.601,116.87 			"/>
			<polygon style="opacity:0.6;fill:#EBEBEB;" points="198.38,141.88 77.069,141.88 76.29,132.407 197.601,132.407 			"/>
			<polygon style="opacity:0.6;fill:#EBEBEB;" points="198.38,157.418 77.069,157.418 76.29,147.944 197.601,147.944 			"/>
			<polygon style="opacity:0.6;fill:#EBEBEB;" points="198.38,172.955 77.069,172.955 76.29,163.482 197.601,163.482 			"/>
			<polygon style="opacity:0.6;fill:#EBEBEB;" points="198.38,188.492 77.069,188.492 76.29,179.019 197.601,179.019 			"/>
		</g>
		<g>
			<rect x="336.415" y="266.211" style="fill:#E6E6E6;" width="44.785" height="116.187"/>
			<polygon style="fill:#F5F5F5;" points="369.241,382.398 381.2,382.398 381.2,362.357 356.702,362.357 			"/>
			<rect x="221.276" y="266.211" style="fill:#E6E6E6;" width="44.785" height="116.187"/>
			<rect x="255.625" y="266.211" style="fill:#F5F5F5;" width="125.576" height="109.289"/>
			<rect x="264.902" y="276.357" style="fill:#F0F0F0;" width="107.021" height="22.902"/>
			<polygon style="fill:#F5F5F5;" points="267.584,382.398 255.625,382.398 255.625,362.357 280.123,362.357 			"/>
			<rect x="264.902" y="309.405" style="fill:#F0F0F0;" width="107.021" height="22.902"/>
			<rect x="264.902" y="342.452" style="fill:#F0F0F0;" width="107.021" height="22.902"/>
		</g>
		<g>
			<rect x="205.692" y="266.211" style="fill:#E6E6E6;" width="44.785" height="116.187"/>
			<polygon style="fill:#F5F5F5;" points="238.518,382.398 250.477,382.398 250.477,362.357 225.979,362.357 			"/>
			<rect x="90.553" y="266.211" style="fill:#E6E6E6;" width="44.785" height="116.187"/>
			<rect x="124.902" y="266.211" style="fill:#F5F5F5;" width="125.576" height="109.289"/>
			<rect x="134.179" y="276.357" style="fill:#F0F0F0;" width="107.021" height="22.902"/>
			<polygon style="fill:#F5F5F5;" points="136.861,382.398 124.902,382.398 124.902,362.357 149.4,362.357 			"/>
			<rect x="134.179" y="309.405" style="fill:#F0F0F0;" width="107.021" height="22.902"/>
			<rect x="134.179" y="342.452" style="fill:#F0F0F0;" width="107.021" height="22.902"/>
		</g>
		<path style="fill:#E6E6E6;" d="M300.837,246.466c-0.287,0-0.559,0.051-0.837,0.085v-1.634c0-1.318-1.068-2.386-2.386-2.386H284.82
			c-1.318,0-2.387,1.069-2.387,2.386v21.294H300v-4.277c0.278,0.033,0.551,0.085,0.837,0.085c3.879,0,7.034-3.156,7.034-7.034V253.5
			C307.871,249.622,304.716,246.466,300.837,246.466z M304.857,254.984c0,2.217-1.803,4.02-4.02,4.02
			c-0.287,0-0.567-0.033-0.837-0.091v-9.343c0.271-0.057,0.55-0.09,0.837-0.09c2.217,0,4.02,1.803,4.02,4.02V254.984z"/>
		<g>
			
				<rect x="311.201" y="91.396" transform="matrix(-1.836970e-16 1 -1 -1.836970e-16 513.7409 -203.7565)" style="fill:#E6E6E6;" width="95.096" height="127.192"/>
			
				<rect x="310.229" y="93.821" transform="matrix(-1.836970e-16 1 -1 -1.836970e-16 517.6201 -202.7847)" style="fill:#F0F0F0;" width="99.947" height="127.192"/>
			<path style="fill:#E6E6E6;" d="M311.189,115.817h98.026c3.43,0,6.21,2.78,6.21,6.21v70.781c0,3.43-2.78,6.21-6.21,6.21h-98.026
				c-3.43,0-6.21-2.78-6.21-6.21v-70.781C304.979,118.597,307.759,115.817,311.189,115.817z"/>
			<path style="fill:#FFFFFF;" d="M311.189,115.817h98.026c3.43,0,6.21,2.78,6.21,6.21v69.332c0,3.43-2.78,6.21-6.21,6.21h-98.026
				c-3.43,0-6.21-2.78-6.21-6.21v-69.332C304.979,118.597,307.759,115.817,311.189,115.817z"/>
			<path style="fill:#F0F0F0;" d="M378.218,171.479l19.746-14.255c0.406-0.293,0.406-0.769,0-1.062l-19.745-14.255
				c-9.934-7.171-26.098-7.171-36.032,0.001l-19.746,14.255c-0.406,0.293-0.406,0.769,0,1.062l19.745,14.255
				C352.12,178.651,368.284,178.651,378.218,171.479z M376.748,142.97l-33.091,0C352.78,136.384,367.624,136.383,376.748,142.97z
				 M376.748,170.418c-9.123,6.586-23.967,6.587-33.091,0L376.748,170.418z"/>
		</g>
	</g>
</g>
<g id="Background_Simple" style="display:none;">
	<g style="display:inline;">
		<path style="fill:#407BFF;" d="M142.98,306.419c63.924,42.176,81.013-2.617,132.809-23.964
			c41.292-17.018,81.111-2.271,114.071-38.28c28.719-31.375,38.904-94.137,14.688-124.223c-29.5-36.651-81.969-43.129-121.55-17.203
			c-30.161,19.755-51.195,72.536-88.19,73.086c-42.567,0.633-63.439-44.998-104.476-27.744
			C14.715,179.886,131.458,298.817,142.98,306.419z"/>
		<path style="opacity:0.9;fill:#FFFFFF;" d="M142.98,306.419c63.924,42.176,81.013-2.617,132.809-23.964
			c41.292-17.018,81.111-2.271,114.071-38.28c28.719-31.375,38.904-94.137,14.688-124.223c-29.5-36.651-81.969-43.129-121.55-17.203
			c-30.161,19.755-51.195,72.536-88.19,73.086c-42.567,0.633-63.439-44.998-104.476-27.744
			C14.715,179.886,131.458,298.817,142.98,306.419z"/>
	</g>
</g>
<g id="Shadow_1_">
	<ellipse id="_x3C_Path_x3E__151_" style="fill:#F5F5F5;" cx="250" cy="416.238" rx="193.889" ry="11.323"/>
</g>
<g id="Character_1">
	<g>
		<path style="fill:#263238;" d="M179.674,130.223c-3.811-1.395-10.11,1.587-8.872,7.525c1.238,5.937-13.228-1.485-16.336,10.59
			c0,0,6.786,1.065,10.621,7.903c5.265,9.388,46.696,10.347,40.803-1.259c-5.893-11.606,6.597-14.618,2.813-22.847
			c-3.785-8.229-10.889-10.455-16.005-8.453C187.582,125.684,176.714,122.591,179.674,130.223z"/>
		<path style="fill:#263238;" d="M179.675,130.348c-0.037,0-0.074-0.017-0.099-0.049c-1.159-1.497-1.552-2.678-1.201-3.609
			c0.635-1.684,3.529-2.245,6.88-2.896c3.24-0.629,6.911-1.341,8.703-3.262c0.05-0.05,0.129-0.053,0.177-0.006
			c0.051,0.047,0.054,0.126,0.007,0.176c-1.848,1.981-5.562,2.701-8.839,3.337c-3.142,0.609-6.108,1.185-6.693,2.738
			c-0.317,0.843,0.063,1.945,1.164,3.368c0.042,0.054,0.032,0.133-0.022,0.175C179.729,130.34,179.701,130.348,179.675,130.348z"/>
		<path style="fill:#FFB573;" d="M206.16,169.1c2.297-0.72,4.762-1.518,7.12-2.367c2.378-0.853,4.754-1.71,7.093-2.648
			c4.659-1.904,9.254-3.947,13.541-6.37c0.521-0.288,1.176-0.659,1.324-0.764c0.138-0.081,0.288-0.232,0.44-0.337l0.469-0.45
			c0.642-0.664,1.285-1.548,1.873-2.509c1.175-1.939,2.222-4.161,3.136-6.459c0.944-2.294,1.787-4.676,2.544-7.096
			c0.779-2.406,1.5-4.89,2.164-7.306l4.095,0.655c-0.43,5.355-1.343,10.543-2.774,15.798c-0.763,2.611-1.64,5.232-2.969,7.845
			c-0.669,1.306-1.43,2.623-2.491,3.922c-0.287,0.323-0.566,0.645-0.871,0.962c-0.342,0.314-0.648,0.631-1.034,0.931
			c-0.883,0.689-1.365,0.948-1.952,1.335c-4.59,2.972-9.41,5.371-14.316,7.49c-4.936,2.113-9.849,3.932-15.115,5.423L206.16,169.1z"
			/>
		<g>
			<path style="fill:#263238;" d="M200.607,169.3c1.29-3.234,19.756-5.633,19.756-5.633l2.645,16.347c0,0-15.568,6.049-18.909,2.993
				C200.619,179.825,198.724,174.019,200.607,169.3z"/>
		</g>
		<path style="fill:#FFB573;" d="M245.31,131.762l-1.426-6.624l7.517,3.579c0,0,0.309,5.248-2.591,7.029l-0.72-0.367
			C246.668,134.652,245.647,133.324,245.31,131.762z"/>
		<polygon style="fill:#FFB573;" points="245.609,119.297 252.292,121.314 251.402,128.717 243.884,125.138 		"/>
		<polygon style="fill:#FFB573;" points="162.004,355.051 169.011,359.378 179.941,345.724 173.943,340.269 		"/>
		<path style="fill:#263238;" d="M170.686,358.956l-6.19-6.804c-0.225-0.247-0.58-0.292-0.853-0.107l-6.088,4.122
			c-0.632,0.428-0.723,1.389-0.194,1.951c2.199,2.335,3.378,3.351,6.1,6.343c1.675,1.841,6.293,7.302,8.606,9.844
			c2.262,2.486,4.949,0.391,4.214-0.875c-3.297-5.675-4.935-10.303-5.046-13.123C171.215,359.798,171.016,359.318,170.686,358.956z"
			/>
		<g style="opacity:0.2;">
			<polygon points="179.937,345.727 174.609,352.385 167.783,347.891 173.935,340.271 			"/>
		</g>
		<g>
			<path style="fill:#263238;" d="M213.854,169.768c0,0,3.878,1.436-4.708,49.345c-13.193-0.213-26.828-0.432-33.247-0.536
				c0.776-13.523,1.031-21.876-4.989-49.75c0,0,6.886-1.394,14.044-1.623c5.599-0.18,10.186-0.284,15.097,0.244
				C206.524,168.144,213.854,169.768,213.854,169.768z"/>
		</g>
		<path style="opacity:0.2;" d="M174.337,186.482c0.374,2.239,0.673,4.31,0.927,6.233c2.106-4.382,2.592-10.261,2.592-10.261
			L174.337,186.482z"/>
		<path style="fill:#FFB573;" d="M186.722,150.229c0.874,4.873,1.681,13.789-1.77,16.975c0,0,1.249,4.949,10.275,5.094
			c9.925,0.16,4.823-4.85,4.823-4.85c-5.396-1.381-5.191-5.398-4.187-9.157L186.722,150.229z"/>
		<path style="fill:#FFB573;" d="M184.956,167.209c5.6-0.185,10.183-0.291,15.095,0.243c0.327,0.037,0.655,0.074,0.982,0.111
			c1.169,2.304,1.48,7.882-1.491,12.987c0,0-13.218-7.606-16.577-13.246C183.622,167.262,184.29,167.23,184.956,167.209z"/>
		<path style="opacity:0.2;" d="M190.449,153.519l5.41,4.768c-0.241,0.89-0.432,1.793-0.509,2.672
			c-2.064-0.332-4.871-2.65-5.055-4.82C190.202,155.057,190.264,154.019,190.449,153.519z"/>
		<path style="fill:#FFB573;" d="M181.619,141.727c1.725,7.941,2.285,11.338,6.966,14.83c7.041,5.253,16.417,1.398,17.1-6.898
			c0.615-7.467-2.309-19.198-10.646-21.182C186.825,126.524,179.894,133.787,181.619,141.727z"/>
		<path style="fill:#263238;" d="M181.819,131.592c3.336,0.217,7.262,1.909,6.313,6.478c-0.949,4.569-4.617,1.55-3.282,8.198
			c1.334,6.648-10.939,2.808-9.09-3.301C177.609,136.858,176.699,131.259,181.819,131.592z"/>
		<path style="fill:#263238;" d="M179.678,136.713c4.885,4.538,11.696-8.116,18.357-3.368c6.661,4.748,6.547-3.377-1.013-5.378
			C189.462,125.967,173.785,131.239,179.678,136.713z"/>
		<g>
			<path style="fill:#407BFF;" d="M209.145,219.113c0,0,3.524,47.632,2.585,72.587c-0.976,25.957-34.124,59.186-34.124,59.186
				l-8.556-6.986c-0.221,0.109,24.047-42.951,22.655-55.965c-2.959-27.668-6.907-69.215-6.907-69.215L209.145,219.113z"/>
			<path style="opacity:0.3;fill:#FFFFFF;" d="M209.145,219.113c0,0,3.524,47.632,2.585,72.587
				c-0.976,25.957-34.124,59.186-34.124,59.186l-8.556-6.986c-0.221,0.109,24.047-42.951,22.655-55.965
				c-2.959-27.668-6.907-69.215-6.907-69.215L209.145,219.113z"/>
		</g>
		<polygon style="fill:#263238;" points="166.828,345.54 177.876,352.373 180.866,349.35 168.761,341.268 		"/>
		<path style="opacity:0.2;" d="M193.07,235.856c-2.967-5.178-5.17-4.994-6.792-1.769c1.372,14.144,3.47,35.41,5.24,52.161
			C195.457,273.96,202.205,251.795,193.07,235.856z"/>
		<polygon style="fill:#FFB573;" points="111.449,303.309 114.085,311.061 133.003,307.804 130.368,300.053 		"/>
		<path style="fill:#263238;" d="M116.981,311.422l-1.3-9.106c-0.047-0.331-0.32-0.597-0.656-0.64l-7.486-0.944
			c-0.776-0.098-1.405,0.554-1.283,1.318c0.509,3.174,0.917,4.701,1.489,8.706c0.352,2.464,1.101,9.543,1.587,12.945
			c0.475,3.327,3.938,3.54,4.046,2.119c0.484-6.369,1.764-10.874,3.289-13.037C116.942,312.393,117.05,311.906,116.981,311.422z"/>
		<g style="opacity:0.2;">
			<polygon points="132.998,307.804 123.246,309.484 120.61,301.729 130.361,300.049 			"/>
		</g>
		<g>
			<path style="fill:#407BFF;" d="M199.948,218.965c0,0-4.553,44.594-15.167,67.507c-4.593,9.916-58.298,23.347-58.299,23.346
				l-4.699-10.024c-0.732-0.046,30.48-17.779,40.858-21.634c2.309-0.858,3.991-2.859,4.47-5.275
				c5.215-26.338,8.491-54.312,8.491-54.312L199.948,218.965z"/>
			<path style="opacity:0.3;fill:#FFFFFF;" d="M199.948,218.965c0,0-4.553,44.594-15.167,67.507
				c-4.593,9.916-58.298,23.347-58.299,23.346l-4.699-10.024c-0.732-0.046,30.48-17.779,40.858-21.634
				c2.309-0.858,3.991-2.859,4.47-5.275c5.215-26.338,8.491-54.312,8.491-54.312L199.948,218.965z"/>
		</g>
		<polygon style="fill:#263238;" points="121.234,298.858 125.303,311.195 129.705,311.312 125.47,296.783 		"/>
		<path style="fill:#407BFF;" d="M115.973,314.483c0.115,0.806,0.348,1.548,0.789,1.959c0.28,0.261,0.617,0.374,1.002,0.334
			c0.23-0.024,0.394-0.139,0.473-0.333c0.412-0.999-1.729-4.21-1.975-4.572c-0.049-0.072-0.135-0.112-0.216-0.099
			c-0.08,0.013-0.138,0.074-0.142,0.155C115.862,312.618,115.845,313.59,115.973,314.483z M117.887,315.905
			c0.021,0.149,0.016,0.271-0.02,0.359c-0.033,0.08-0.092,0.12-0.194,0.13c-0.261,0.027-0.476-0.043-0.658-0.212
			c-0.52-0.486-0.79-1.818-0.742-3.619C116.976,313.668,117.777,315.138,117.887,315.905z"/>
		<path style="fill:#407BFF;" d="M115.905,311.966c0.004,0.027,0.013,0.054,0.029,0.078c0.582,0.961,2.636,2.849,3.55,2.687
			c0.216-0.038,0.47-0.196,0.449-0.728c-0.016-0.393-0.18-0.75-0.489-1.059c-1.01-1.008-3.259-1.167-3.354-1.173
			c-0.07-0.004-0.132,0.027-0.164,0.083C115.906,311.888,115.899,311.926,115.905,311.966z M119.527,313.854
			c0.005,0.038,0.009,0.076,0.01,0.116c0.014,0.351-0.126,0.376-0.171,0.384c-0.549,0.097-2.134-1.182-2.883-2.159
			c0.661,0.086,2.032,0.339,2.694,1C119.378,313.394,119.493,313.61,119.527,313.854z"/>
		<path style="fill:#263238;" d="M195.527,141.904c0.1,0.653,0.527,1.129,0.954,1.063c0.427-0.066,0.691-0.648,0.591-1.301
			c-0.1-0.653-0.527-1.129-0.954-1.063C195.691,140.669,195.426,141.251,195.527,141.904z"/>
		<path style="fill:#263238;" d="M202.904,140.77c0.1,0.653,0.527,1.129,0.954,1.063c0.427-0.066,0.691-0.648,0.591-1.301
			c-0.1-0.653-0.527-1.129-0.954-1.063C203.068,139.535,202.804,140.117,202.904,140.77z"/>
		<path style="fill:#263238;" d="M203.312,139.534l1.498-0.693C204.81,138.841,204.194,140.189,203.312,139.534z"/>
		<path style="fill:#ED893E;" d="M200.014,142.282c0,0,1.539,2.64,2.967,3.808c-0.738,0.937-2.26,0.794-2.26,0.794L200.014,142.282z
			"/>
		<path style="fill:#263238;" d="M197.555,149.988c0.308,0,0.632-0.023,0.973-0.076c0.106-0.016,0.179-0.115,0.162-0.221
			c-0.016-0.106-0.124-0.177-0.221-0.162c-2.874,0.441-4.51-1.355-4.526-1.373c-0.071-0.08-0.193-0.087-0.274-0.015
			c-0.08,0.071-0.086,0.194-0.015,0.274C193.718,148.486,195.093,149.987,197.555,149.988z"/>
		<path style="fill:#FFB573;" d="M180.577,149.411c0.811,1.477,2.227,2.441,3.563,2.807c2.008,0.55,3.002-1.249,2.435-3.139
			c-0.511-1.701-2.171-4.037-4.182-3.753C180.41,145.606,179.65,147.723,180.577,149.411z"/>
		<path style="fill:#263238;" d="M191.538,140.843c0.163,0,0.315-0.104,0.369-0.268c0.557-1.706,2.76-2.402,2.782-2.409
			c0.205-0.063,0.319-0.28,0.257-0.485c-0.063-0.204-0.279-0.32-0.485-0.256c-0.107,0.033-2.611,0.826-3.29,2.91
			c-0.066,0.204,0.045,0.423,0.248,0.489C191.458,140.837,191.498,140.843,191.538,140.843z"/>
		<path style="fill:#263238;" d="M203.801,137.008c0.132,0,0.261-0.068,0.334-0.19c0.109-0.184,0.049-0.422-0.135-0.532
			c-1.843-1.097-3.46-0.327-3.528-0.293c-0.192,0.094-0.272,0.327-0.177,0.519c0.094,0.191,0.325,0.271,0.518,0.178l0,0
			c0.053-0.026,1.319-0.613,2.791,0.263C203.665,136.99,203.733,137.008,203.801,137.008z"/>
		<path style="fill:#FFB573;" d="M174.466,179.882c-1.465,1.579-3.038,3.294-4.5,4.997c-1.472,1.717-2.964,3.42-4.353,5.189
			c-2.774,3.528-5.453,7.146-7.544,10.891l-0.394,0.701c-0.187,0.341-0.107,0.173-0.167,0.28c-0.068,0.152-0.155,0.481-0.205,0.871
			c-0.111,0.793-0.122,1.802-0.063,2.83c0.127,2.072,0.434,4.291,0.837,6.499c0.377,2.221,0.837,4.46,1.358,6.693
			c0.494,2.235,1.046,4.498,1.584,6.708l-3.887,1.444c-2.088-4.325-3.791-8.723-5.247-13.35c-0.684-2.327-1.324-4.688-1.694-7.256
			c-0.182-1.291-0.325-2.621-0.258-4.156c0.045-0.772,0.138-1.602,0.414-2.565c0.083-0.254,0.153-0.49,0.27-0.762
			c0.128-0.313,0.186-0.422,0.253-0.564l0.407-0.854c1.071-2.294,2.312-4.431,3.625-6.497c1.291-2.087,2.714-4.047,4.162-5.983
			c2.919-3.879,5.972-7.475,9.435-10.987L174.466,179.882z"/>
		<g>
			<path style="fill:#263238;" d="M170.909,168.827c-3.413,0.689-9.854,11.436-9.854,11.436l11.003,10.569
				c0,0,8.064-6.76,7.921-11.286C179.83,174.834,174.804,168.041,170.909,168.827z"/>
		</g>
		<path style="fill:#407BFF;" d="M171.696,362.192c0.548,0.602,1.146,1.073,1.709,1.13c0.357,0.036,0.672-0.091,0.934-0.376
			c0.157-0.171,0.212-0.375,0.16-0.59c-0.268-1.111-3.698-2.405-4.088-2.548c-0.077-0.029-0.164-0.005-0.216,0.058
			c-0.052,0.064-0.059,0.153-0.017,0.224C170.545,360.697,171.089,361.525,171.696,362.192z M173.931,362.132
			c0.101,0.111,0.168,0.217,0.191,0.315c0.022,0.089,0,0.161-0.069,0.236c-0.177,0.194-0.377,0.276-0.609,0.253
			c-0.664-0.067-1.629-1.011-2.627-2.556C171.972,360.848,173.41,361.558,173.931,362.132z"/>
		<path style="fill:#407BFF;" d="M170.202,360.12c0.018,0.02,0.041,0.036,0.066,0.047c0.983,0.425,3.588,0.665,4.172-0.071
			c0.139-0.174,0.236-0.473-0.085-0.907c-0.237-0.32-0.564-0.513-0.97-0.569c-1.327-0.185-3.084,1.159-3.159,1.216
			c-0.054,0.042-0.082,0.109-0.074,0.177C170.158,360.053,170.175,360.09,170.202,360.12z M173.969,359.329
			c0.026,0.028,0.05,0.059,0.074,0.09c0.212,0.286,0.122,0.398,0.093,0.435c-0.351,0.442-2.26,0.407-3.375,0.077
			c0.539-0.361,1.7-1.049,2.571-0.928C173.594,359.041,173.804,359.147,173.969,359.329z"/>
		<path style="fill:#263238;" d="M195.934,140.668l1.498-0.693C197.433,139.975,196.817,141.323,195.934,140.668z"/>
		<path style="fill:#FAFAFA;" d="M175.432,216.618l-0.898,2.962c-0.12,0.229,0.15,0.469,0.534,0.475l34.218,0.551
			c0.3,0.005,0.55-0.138,0.572-0.326l0.348-2.971c0.024-0.206-0.233-0.385-0.561-0.39l-33.668-0.542
			C175.73,216.373,175.509,216.471,175.432,216.618z"/>
		<g>
			<g>
				<path style="fill:#407BFF;" d="M179.893,220.455l-0.902-0.014c-0.18-0.003-0.315-0.098-0.301-0.211l0.485-3.86
					c0.014-0.113,0.173-0.203,0.352-0.2l0.902,0.015c0.18,0.003,0.315,0.098,0.301,0.211l-0.485,3.86
					C180.231,220.368,180.072,220.458,179.893,220.455z"/>
				<g style="opacity:0.3;">
					<path style="fill:#FFFFFF;" d="M179.893,220.455l-0.902-0.014c-0.18-0.003-0.315-0.098-0.301-0.211l0.485-3.86
						c0.014-0.113,0.173-0.203,0.352-0.2l0.902,0.015c0.18,0.003,0.315,0.098,0.301,0.211l-0.485,3.86
						C180.231,220.368,180.072,220.458,179.893,220.455z"/>
				</g>
			</g>
			<g>
				<path style="fill:#407BFF;" d="M206.746,220.888l-0.902-0.015c-0.18-0.003-0.315-0.098-0.301-0.211l0.485-3.86
					c0.014-0.113,0.173-0.203,0.352-0.2l0.902,0.014c0.18,0.003,0.315,0.098,0.301,0.211l-0.485,3.86
					C207.084,220.801,206.926,220.891,206.746,220.888z"/>
				<path style="opacity:0.3;fill:#FFFFFF;" d="M206.746,220.888l-0.902-0.015c-0.18-0.003-0.315-0.098-0.301-0.211l0.485-3.86
					c0.014-0.113,0.173-0.203,0.352-0.2l0.902,0.014c0.18,0.003,0.315,0.098,0.301,0.211l-0.485,3.86
					C207.084,220.801,206.926,220.891,206.746,220.888z"/>
			</g>
			<g>
				<path style="fill:#407BFF;" d="M193.32,220.672l-0.902-0.015c-0.18-0.003-0.315-0.098-0.301-0.211l0.485-3.86
					c0.014-0.113,0.173-0.203,0.352-0.2l0.902,0.015c0.18,0.003,0.315,0.098,0.301,0.211l-0.485,3.86
					C193.658,220.585,193.499,220.675,193.32,220.672z"/>
				<path style="opacity:0.3;fill:#FFFFFF;" d="M193.32,220.672l-0.902-0.015c-0.18-0.003-0.315-0.098-0.301-0.211l0.485-3.86
					c0.014-0.113,0.173-0.203,0.352-0.2l0.902,0.015c0.18,0.003,0.315,0.098,0.301,0.211l-0.485,3.86
					C193.658,220.585,193.499,220.675,193.32,220.672z"/>
			</g>
		</g>
		<path style="fill:#FFB573;" d="M161.123,224.987l4.976,7.313l-8.282-0.854c0,0-2.049-4.841,0.087-7.491L161.123,224.987z"/>
		<polygon style="fill:#FFB573;" points="165.642,239.168 158.747,238.077 157.817,231.445 166.099,232.3 		"/>
	</g>
</g>
<g id="Character_2">
	<g>
		<g>
			<path style="fill:#FF8B7B;" d="M310.809,158.034l-1.186,0.567l-1.098,0.492c-0.732,0.311-1.465,0.6-2.201,0.879
				c-1.471,0.557-2.955,1.065-4.462,1.525c-3.021,0.889-6.131,1.581-9.349,1.964c-3.219,0.387-6.549,0.464-9.957,0.038
				c-1.702-0.209-3.415-0.561-5.115-1.094c-0.425-0.116-0.847-0.281-1.268-0.428l-0.631-0.228l-0.722-0.309
				c-0.493-0.208-0.961-0.432-1.38-0.678c-0.436-0.239-0.872-0.482-1.25-0.746c-1.591-1.028-2.907-2.179-4.092-3.349
				c-1.183-1.175-2.272-2.374-3.258-3.603c-1.962-2.476-3.692-4.996-5.238-7.591c-3.125-5.185-5.654-10.49-7.814-16.102l5.143-2.498
				c1.515,2.319,3.068,4.741,4.71,7.023c1.607,2.316,3.268,4.58,4.977,6.755c1.72,2.166,3.472,4.268,5.33,6.125
				c1.811,1.86,3.788,3.556,5.568,4.499c1.399,0.814,3.787,1.254,6.105,1.385c2.343,0.156,4.822-0.08,7.321-0.467
				c2.501-0.425,5.033-1.046,7.538-1.832c1.257-0.38,2.507-0.805,3.738-1.267c0.616-0.229,1.226-0.473,1.825-0.72l0.891-0.363
				l0.782-0.337L310.809,158.034z"/>
			<path style="fill:#FF8B7B;" d="M257.358,129.563l-0.501-7.718l-6.791,7.087c0,0,1.768,5.367,5.372,5.998l0.574-0.652
				C257.145,132.988,257.64,131.257,257.358,129.563z"/>
			<polygon style="fill:#FF8B7B;" points="252.126,117.226 246.245,121.886 250.065,128.932 256.856,121.845 			"/>
			<path style="fill:#FF8B7B;" d="M352.778,147.038c1.84,2.158,3.377,4.247,4.977,6.432c1.583,2.164,3.06,4.41,4.49,6.701
				c2.842,4.589,5.424,9.423,7.417,14.759l0.684,2.058l0.169,0.515l0.084,0.257l0.106,0.394c0.149,0.57,0.271,1.139,0.32,1.644
				c0.253,2.087,0.028,3.784-0.26,5.351c-0.607,3.109-1.624,5.753-2.747,8.293c-2.286,5.061-5.047,9.562-8.273,13.925l-4.953-2.857
				c0.888-2.307,1.809-4.711,2.626-7.068c0.829-2.364,1.612-4.721,2.248-7.046c0.643-2.31,1.139-4.637,1.296-6.642
				c0.071-0.985,0.007-1.897-0.127-2.368c-0.023-0.139-0.069-0.194-0.094-0.247c-0.011-0.026,0.002-0.005-0.026-0.071l-0.083-0.197
				l-0.167-0.394l-0.662-1.575c-1.958-4.218-4.465-8.428-7.219-12.518c-1.36-2.057-2.802-4.079-4.254-6.096
				c-1.435-1.997-3.007-4.037-4.435-5.881L352.778,147.038z"/>
			<path style="fill:#FF8B7B;" d="M354.02,204.831l-4.197,6.497l9.676-1.644c0,0,1.778-5.364-0.739-8.018l-0.849,0.182
				C356.232,202.207,354.803,203.303,354.02,204.831z"/>
			<polygon style="fill:#FF8B7B;" points="350.87,217.857 358.369,217.618 359.5,209.684 349.823,211.328 			"/>
			<path style="fill:#263238;" d="M316.167,115.554c-0.042,0.613-0.402,1.101-0.803,1.089c-0.401-0.012-0.693-0.519-0.65-1.132
				c0.042-0.613,0.402-1.101,0.803-1.089C315.918,114.434,316.209,114.941,316.167,115.554z"/>
			<path style="fill:#FF5652;" d="M315.822,116.657c0,0-1.639,3.496-3.293,5.157c1.017,1.045,2.895,0.638,2.895,0.638
				L315.822,116.657z"/>
			<path style="fill:#263238;" d="M315.636,111.607c0.068,0.019,0.142,0.019,0.214-0.005c0.053-0.018,1.304-0.422,2.527,0.543
				c0.155,0.122,0.383,0.097,0.506-0.06c0.123-0.156,0.096-0.383-0.06-0.507c-1.542-1.216-3.141-0.682-3.209-0.658
				c-0.187,0.065-0.287,0.269-0.222,0.457C315.433,111.493,315.526,111.576,315.636,111.607z"/>
			<path style="fill:#FF8B7B;" d="M333.294,123.681c0.226,6.264-1.576,13.982,2.423,17.435c0,0-1.351,5.757-11.679,6.464
				c-11.356,0.777-5.595-5.281-5.595-5.281c6.154-1.908,5.857-6.508,4.648-10.764L333.294,123.681z"/>
			<path style="fill:#263238;" d="M338.513,142.868c0.761-1.845,1.482-4.649-0.391-5.164c-2.061-0.566-12.422-1.646-20.035,1.357
				c1.601,2.774,0.483,5.548,0.483,5.548L338.513,142.868z"/>
			<path style="fill:#407BFF;" d="M384.161,372.647c-0.117,0-0.226-0.018-0.32-0.059c-0.186-0.079-0.408-0.275-0.409-0.759
				c0-0.258,0.102-0.482,0.302-0.666c0.847-0.778,3.315-0.579,3.423-0.569c0.07,0.006,0.131,0.053,0.154,0.119
				c0.024,0.067,0.006,0.141-0.045,0.19C386.749,371.401,385.129,372.647,384.161,372.647z M386.374,370.925
				c-0.832,0-1.953,0.096-2.396,0.504c-0.124,0.115-0.185,0.245-0.185,0.4c0,0.348,0.142,0.408,0.188,0.428
				c0.491,0.207,1.83-0.581,2.715-1.326C386.596,370.926,386.487,370.925,386.374,370.925z"/>
			<path style="fill:#407BFF;" d="M387.103,370.954c-0.89,0-2.922-0.679-3.207-1.487c-0.055-0.153-0.092-0.449,0.261-0.719
				c0.226-0.173,0.488-0.235,0.78-0.185c1.107,0.193,2.306,2.034,2.355,2.113c0.035,0.055,0.038,0.124,0.008,0.182
				c-0.03,0.058-0.089,0.094-0.154,0.096C387.132,370.954,387.117,370.954,387.103,370.954z M384.746,368.907
				c-0.137,0-0.259,0.042-0.371,0.128c-0.197,0.151-0.157,0.264-0.14,0.313c0.172,0.486,1.602,1.098,2.544,1.223
				c-0.376-0.516-1.195-1.529-1.904-1.652C384.83,368.91,384.787,368.907,384.746,368.907z"/>
			<path style="fill:#407BFF;" d="M335.554,397.151c-0.277,0-0.51-0.051-0.67-0.17c-0.152-0.113-0.313-0.338-0.215-0.766
				c0.35-1.529,4.168-0.763,4.602-0.671c0.073,0.016,0.13,0.075,0.142,0.149c0.011,0.074-0.024,0.147-0.09,0.184
				C338.601,396.287,336.698,397.151,335.554,397.151z M336.828,395.64c-0.895,0-1.692,0.152-1.808,0.655
				c-0.066,0.289,0.039,0.367,0.078,0.396c0.46,0.343,2.299-0.246,3.592-0.888C338.167,395.719,337.473,395.64,336.828,395.64z"/>
			<path style="fill:#407BFF;" d="M339.233,395.9c-0.007,0-0.013,0-0.02-0.001c-0.996-0.107-3.146-1.084-3.287-1.966
				c-0.033-0.208,0.024-0.501,0.488-0.709c0.343-0.154,0.692-0.159,1.045-0.017c1.142,0.463,1.909,2.365,1.941,2.446
				c0.023,0.059,0.014,0.125-0.024,0.176C339.343,395.874,339.289,395.9,339.233,395.9z M336.953,393.464
				c-0.131,0-0.26,0.029-0.39,0.088c-0.31,0.14-0.288,0.278-0.28,0.324c0.085,0.534,1.603,1.37,2.648,1.609
				c-0.257-0.539-0.858-1.64-1.607-1.944C337.198,393.49,337.075,393.464,336.953,393.464z"/>
			<polygon style="fill:#FF8B7B;" points="347.177,393.069 339.953,395.479 334.298,378.775 341.522,376.365 			"/>
			<polygon style="fill:#FF8B7B;" points="394.658,366.345 388.096,370.21 376.434,356.613 382.995,352.747 			"/>
			<path style="fill:#263238;" d="M387.212,369.708l7.371-4.343c0.268-0.158,0.603-0.104,0.805,0.129l4.507,5.201
				c0.468,0.539,0.307,1.405-0.318,1.759c-2.598,1.471-3.931,2.053-7.173,3.963c-1.994,1.175-5.989,3.808-8.743,5.43
				c-2.694,1.587-4.613-0.951-3.621-1.867c4.446-4.109,5.511-6.791,6.329-9.232C386.517,370.307,386.82,369.939,387.212,369.708z"/>
			<path style="fill:#263238;" d="M339.754,394.616l7.889-2.632c0.295-0.099,0.612,0.024,0.761,0.294l3.321,6.028
				c0.344,0.625,0.025,1.432-0.66,1.648c-2.86,0.901-7.021,2.104-10.598,3.297c-4.182,1.395-7.751,4.052-12.867,4.8
				c-3.093,0.453-4.289-2.566-3.025-3.041c5.756-2.16,9.61-4.565,13.605-9.244C338.614,395.259,339.13,394.824,339.754,394.616z"/>
			<g>
				<path style="fill:#407BFF;" d="M348.915,141.722c7.257,0.239,18.311,17.895,18.311,17.895l-12.539,12.483
					c0,0-6.508-6.461-11.79-14.084C337.363,150.027,341.495,141.478,348.915,141.722z"/>
			</g>
			<path style="opacity:0.2;" d="M349.421,159.639l-3.77-8.328l-1.624,8.292c2.19,3.007,4.492,5.759,6.393,7.912
				C350.875,164.864,350.545,162.125,349.421,159.639z"/>
			<g>
				<path style="fill:#407BFF;" d="M305.257,179.023c0.636,8.477,1.871,18.99,4.03,31.996l40.643-2.782
					c0.093-6.271-4.735-36.52,0.397-66.4c0,0-7.002-0.923-13.651-0.79c-5.199,0.106-12.722,0.455-17.271,1.182
					c-6.002,0.962-11.623,2.915-11.623,2.915s-3.218,4.002-3.063,21.728C304.751,170.371,304.912,174.392,305.257,179.023z"/>
			</g>
			<path style="opacity:0.2;" d="M305.257,179.023c2.152-4.657,5.999-13.97,5.018-19.056l-5.556,6.906
				C304.751,170.371,304.912,174.392,305.257,179.023z"/>
			<g>
				<path style="fill:#407BFF;" d="M315.831,157.52C313.547,164.402,299,170.987,299,170.987l-12.009-18.964
					c0,0,9.404-4.807,18.831-6.64C316.348,143.337,318.404,149.769,315.831,157.52z"/>
			</g>
			<g>
				<polygon style="opacity:0.2;" points="334.301,378.779 337.215,387.39 344.441,384.979 341.528,376.368 				"/>
				<polygon style="opacity:0.2;" points="383,352.75 376.436,356.617 382.451,363.624 389.014,359.757 				"/>
			</g>
			<path style="fill:#FF8B7B;" d="M336.734,114.868c-0.98,7.518-1.172,11.953-5.246,15.704c-6.128,5.643-15.198,1.915-16.481-5.657
				c-1.155-6.815,0.642-17.964,8.228-20.74C330.71,101.44,337.714,107.35,336.734,114.868z"/>
			<path style="fill:#263238;" d="M324.592,129.96c2.016,2.303,8.764,1.321,10.187,0.138c1.423-1.183,14.653-9.021,11.575-15.66
				c-3.078-6.639-20.552-10.538-22.742-4.708C321.421,115.56,322.522,127.596,324.592,129.96z"/>
			<path style="fill:#263238;" d="M342.846,112.512c0,0,5.475,0.494,6.707,5.239C347.848,116.026,345.211,113.462,342.846,112.512z"
				/>
			<path style="fill:#263238;" d="M326.807,111.66c-7.862-0.54-23.518-12.137-11.826-17.949c11.692-5.812,11.409,5.372,16.115,8.224
				c4.706,2.852,7.015-2.788,12.571-0.61c5.322,2.086,7.73,14.088-1.202,12.946C333.533,113.129,326.807,111.66,326.807,111.66z"/>
			<path style="fill:#263238;" d="M327.913,110.095c-5.542,0-14.141-4.217-16.525-9.31c-1.066-2.277-0.752-4.485,0.91-6.384
				c1.898-2.169,3.73-3.266,5.602-3.354c2.846-0.138,5.182,2.069,7.436,4.2c2.03,1.918,3.957,3.73,5.868,3.303
				c0.133-0.029,0.269,0.056,0.298,0.19c0.029,0.135-0.056,0.268-0.191,0.298c-2.185,0.48-4.19-1.418-6.318-3.428
				c-2.18-2.059-4.424-4.197-7.07-4.063c-1.728,0.082-3.445,1.124-5.248,3.184c-1.544,1.764-1.824,3.73-0.835,5.844
				c2.348,5.012,10.903,9.15,16.315,9.019c0.002,0,0.004,0,0.006,0c0.136,0,0.247,0.108,0.25,0.244
				c0.003,0.138-0.106,0.253-0.244,0.256C328.083,110.094,327.998,110.095,327.913,110.095z"/>
			<path style="fill:#FF8B7B;" d="M326.408,116.753c-0.551,1.919-1.857,3.578-3.203,4.572c-2.025,1.494-3.468,0.061-3.265-2.181
				c0.183-2.017,1.457-5.226,3.663-5.847C325.776,112.684,327.038,114.558,326.408,116.753z"/>
			<path style="fill:#263238;" d="M323.705,210.032c0,0,10.355,57.624,15.738,79.11c5.894,23.528,39.115,74.733,39.115,74.733
				l12.017-7.08c0,0-24.614-43.605-28.276-67.048c-3.974-25.444-12.373-81.509-12.373-81.509L323.705,210.032z"/>
			<g>
				<path style="fill:#407BFF;" d="M374.201,360.477c-0.051,0.03,3.781,3.988,3.781,3.988l13.521-7.966l-2.515-4.066
					L374.201,360.477z"/>
			</g>
			<path style="opacity:0.2;" d="M329.772,230.401c10.028,1.277,10.083,38.627,9.454,57.881
				c-3.278-13.356-8.264-39.146-11.69-57.458C328.187,230.447,328.929,230.292,329.772,230.401z"/>
			<path style="fill:#263238;" d="M309.29,211.019c0,0,0.649,57.026,2.167,80.199c1.579,24.104,22.573,95.379,22.573,95.379
				l12.237-4.083c0,0-11.43-67.27-11.564-91.039c-0.146-25.912,1.298-82.284,1.298-82.284L309.29,211.019z"/>
			<g>
				<path style="fill:#407BFF;" d="M330.237,382.445c-0.057,0.019,2.189,4.915,2.189,4.915l14.886-4.967l-0.128-5.935
					L330.237,382.445z"/>
			</g>
		</g>
	</g>
</g>
<g id="High_Five">
	<g>
		
			<rect x="236.184" y="111.989" transform="matrix(0.7535 -0.6574 0.6574 0.7535 -17.0355 183.8643)" style="fill:#407BFF;" width="1" height="5.324"/>
		
			<rect x="241.414" y="98.943" transform="matrix(0.9394 -0.3428 0.3428 0.9394 -21.825 89.3708)" style="fill:#407BFF;" width="1" height="14.969"/>
		
			<rect x="246.631" y="107.736" transform="matrix(0.0613 -0.9981 0.9981 0.0613 127.571 352.119)" style="fill:#407BFF;" width="8.717" height="1"/>
		
			<rect x="252.816" y="108.102" transform="matrix(0.4421 -0.897 0.897 0.4421 46.8672 292.5567)" style="fill:#407BFF;" width="11.608" height="0.999"/>
		
			<rect x="260.644" y="114.773" transform="matrix(0.9238 -0.3828 0.3828 0.9238 -24.1499 109.1796)" style="fill:#407BFF;" width="3.248" height="1"/>
	</g>
</g>
</svg>
