<?xml version="1.0" encoding="utf-8"?>
<!-- Generator: Adobe Illustrator 27.5.0, SVG Export Plug-In . SVG Version: 6.00 Build 0)  -->
<svg version="1.1" xmlns="http://www.w3.org/2000/svg" xmlns:xlink="http://www.w3.org/1999/xlink" x="0px" y="0px"
	 viewBox="0 0 500 500" style="enable-background:new 0 0 500 500;" xml:space="preserve">
<g id="BACKGROUND">
	<rect style="fill:none;" width="500" height="500"/>
</g>
<g id="OBJECTS">
	<g>
		<path style="fill:#BF4B2E;" d="M250,423.875c-58.929,0-106.871-51.522-106.871-114.85v-118.05
			c0-63.328,47.942-114.85,106.871-114.85c58.929,0,106.871,51.521,106.871,114.85v118.05
			C356.871,372.353,308.929,423.875,250,423.875z"/>
	</g>
	<g>
		<g>
			<path style="fill:#F5E34D;" d="M307.902,257.791c5.936-3.899,13.622-6.66,20.04-3.621c6.668,3.158,9.315,11.32,9.705,18.687
				c0.495,9.367-1.56,18.857-5.888,27.179c-6.042,11.618-16.305,20.837-21.096,33.024c-3.49,8.878-3.767,18.979-0.769,28.035
				c-8.112-1.493-11.946-10.881-13.072-19.053c-2.221-16.113-9.828-60.733-5.252-67.791
				C295.803,267.722,301.395,262.065,307.902,257.791z"/>
			<g>
				<path style="fill:#F5E34D;" d="M210.552,263.669c-5.267,1.99-10.273,3.661-12.434,5.893c-22.259,15.442-28.901,8.48-45.93,8.925
					c-1.709,0.045-3.522,0.16-5.462,0.385c4.029-7.248,22.018-10.23,27.411-16.399c22.499-25.772,41.064-25.251,44.448-14.633
					C221.912,258.275,219.899,260.142,210.552,263.669z"/>
				<path style="fill:#CF9D40;" d="M212.306,240.312l-1.754,23.356c-5.267,1.99-10.273,3.661-12.434,5.893
					c-22.259,15.442-28.901,8.48-45.93,8.925c-0.01,0.003-0.013-0.008-0.013-0.008s12.134-5.377,22.895-10.341
					C185.84,263.172,195.605,238.733,212.306,240.312z"/>
			</g>
		</g>
		<g>
			<g>
				<g>
					<path style="fill:#602F3C;" d="M338.518,188.015c-0.199,1.13-0.494,2.248-0.799,3.352c-0.354,1.281-0.751,2.551-1.184,3.808
						c-0.26,0.755-0.534,1.505-0.82,2.251c-0.149,0.387-0.301,0.773-0.457,1.158c-0.074,0.183-0.15,0.366-0.225,0.549
						c-0.217,0.531,0.091-0.197-0.143,0.336c-3.763,8.565-8.798,15.983-15.947,21.962c-4.8,4.014-10.616,7.108-16.685,9.021
						c-3.058,0.964-1.752,5.793,1.329,4.821c11.336-3.573,20.933-10.615,28.036-20.098c4.774-6.373,8.332-13.733,10.597-21.36
						c0.436-1.467,0.853-2.96,1.119-4.47c0.234-1.328-0.357-2.694-1.746-3.075C340.386,185.938,338.753,186.678,338.518,188.015
						L338.518,188.015z"/>
				</g>
			</g>
			<path style="fill:#FEFFF9;" d="M330.127,183.814c-0.171,0.212-0.347,0.438-0.391,0.707c-0.081,0.5,0.311,0.94,0.681,1.286
				c5.567,5.197,13.078,8.26,20.692,8.439c0.547,0.013,1.158-0.013,1.543-0.402c0.322-0.325,0.395-0.815,0.446-1.269
				c0.561-5.003,0.492-10.077-0.205-15.063c-4.494,0.122-8.388-2.791-12.829-2.923C335.57,174.454,332.694,180.62,330.127,183.814z"
				/>
			<path style="fill:#FEFFF9;" d="M331.718,176.488c-5.895-4.745-9.735-11.959-10.382-19.499c-0.117-1.368-0.125-2.797,0.43-4.053
				c0.555-1.256,1.803-2.295,3.174-2.217c2.135,0.122,3.21,2.535,4.165,4.449c1.197,2.398,2.907,4.538,4.982,6.233
				c1.274,1.041,2.703,1.936,3.7,3.245c0.784,1.03,1.256,2.259,1.684,3.48c0.631,1.8,1.19,3.626,1.675,5.471
				c0.411,1.563,0.766,3.239,0.252,4.772C339.491,184.065,333.914,178.256,331.718,176.488z"/>
			<path style="fill:#FEFFF9;" d="M335.12,138.503c1.705-2.729,4.061-5.358,7.214-6c1.173-0.239,2.561-0.107,3.308,0.829
				c0.363,0.454,0.523,1.036,0.618,1.608c0.457,2.732-0.348,5.494-0.995,8.187c-2.083,8.672-2.578,17.723-1.451,26.571
				c0.261,2.051,0.608,4.143,0.197,6.17c-0.411,2.026-1.78,4.014-3.796,4.471c-2.928,0.664-5.529-2.041-6.864-4.73
				c-1.676-3.376-2.269-7.178-2.307-10.947C330.979,158.044,329.883,146.885,335.12,138.503z"/>
			<path style="fill:#FEFFF9;" d="M351.889,134.308c2.328-2.221,5.262-4.185,8.476-4.025c1.196,0.06,2.508,0.531,3,1.623
				c0.239,0.529,0.25,1.133,0.201,1.711c-0.234,2.76-1.698,5.236-2.992,7.685c-4.167,7.885-6.889,16.532-7.989,25.383
				c-0.255,2.052-0.438,4.165-1.338,6.026c-0.9,1.861-2.719,3.448-4.786,3.391c-3.001-0.083-4.851-3.347-5.478-6.283
				c-0.787-3.686-0.42-7.516,0.478-11.177C343.036,152.213,344.74,141.131,351.889,134.308z"/>
			<path style="fill:#FEFFF9;" d="M360.733,144.601c2.457-1.506,5.396-2.673,8.179-1.928c1.036,0.277,2.095,0.938,2.321,1.986
				c0.109,0.508,0.005,1.039-0.147,1.536c-0.725,2.372-2.473,4.265-4.068,6.165c-5.134,6.119-9.146,13.177-11.777,20.719
				c-0.61,1.749-1.168,3.564-2.307,5.024c-1.139,1.46-3.03,2.507-4.829,2.068c-2.612-0.637-3.617-3.844-3.612-6.533
				c0.005-3.376,1.048-6.66,2.524-9.696C349.609,158.611,353.188,149.228,360.733,144.601z"/>
			<path style="fill:#FEFFF9;" d="M365.553,157.781c2.425-0.948,5.255-1.523,7.728-0.438c0.92,0.404,1.819,1.148,1.909,2.106
				c0.043,0.465-0.112,0.916-0.307,1.33c-0.931,1.977-2.749,3.375-4.426,4.803c-5.4,4.598-9.875,10.196-13.136,16.433
				c-0.756,1.446-1.472,2.959-2.681,4.069c-1.209,1.111-3.064,1.741-4.667,1.077c-2.328-0.964-2.891-3.943-2.586-6.31
				c0.383-2.972,1.709-5.704,3.404-8.15C353.768,168.405,358.105,160.693,365.553,157.781z"/>
			<g>
				<g>
					<path style="fill:#D4C9CF;" d="M340.888,162.702c4.156,3.247,6.136,8.825,4.783,13.95c-0.411,1.557,2,2.221,2.411,0.665
						c1.561-5.909-0.588-12.603-5.425-16.383c-0.531-0.415-1.25-0.518-1.768,0C340.456,161.366,340.353,162.283,340.888,162.702
						L340.888,162.702z"/>
				</g>
			</g>
			<g>
				<g>
					<path style="fill:#D4C9CF;" d="M332.436,179.138c1.356,2.482,3.688,4.356,6.38,5.202c0.624,0.196,1.391-0.231,1.538-0.873
						c0.155-0.68-0.205-1.327-0.873-1.538c-0.15-0.047-0.3-0.097-0.448-0.151c-0.067-0.025-0.134-0.05-0.201-0.076
						c-0.039-0.015-0.268-0.118-0.089-0.035c0.18,0.083-0.049-0.023-0.087-0.04c-0.078-0.036-0.156-0.072-0.233-0.11
						c-0.129-0.063-0.256-0.129-0.381-0.197c-0.264-0.144-0.521-0.3-0.77-0.468c-0.119-0.08-0.236-0.162-0.351-0.247
						c-0.141-0.104-0.075-0.084,0.014,0.013c-0.053-0.058-0.14-0.111-0.201-0.162c-0.452-0.374-0.87-0.79-1.248-1.239
						c-0.046-0.055-0.091-0.111-0.136-0.166c-0.19-0.229,0.16,0.222-0.015-0.019c-0.084-0.116-0.169-0.231-0.249-0.35
						c-0.177-0.261-0.34-0.53-0.491-0.807c-0.314-0.574-1.154-0.807-1.71-0.448C332.302,177.803,332.101,178.523,332.436,179.138
						L332.436,179.138z"/>
				</g>
			</g>
			<g>
				<g>
					<path style="fill:#D4C9CF;" d="M346.674,186.836c2.125,1.25,4.728,1.59,7.103,0.926c0.629-0.176,1.082-0.894,0.873-1.538
						c-0.208-0.643-0.863-1.062-1.538-0.873c-0.264,0.074-0.53,0.137-0.8,0.183c-0.052,0.009-0.375,0.089-0.074,0.014
						c-0.128,0.032-0.278,0.029-0.409,0.037c-0.239,0.015-0.479,0.02-0.718,0.013c-0.137-0.004-0.273-0.011-0.41-0.022
						c-0.035-0.003-0.422-0.041-0.242-0.021c0.179,0.02-0.204-0.034-0.24-0.04c-0.135-0.025-0.269-0.053-0.402-0.084
						c-0.233-0.055-0.464-0.121-0.691-0.197c-0.13-0.044-0.257-0.093-0.386-0.141c-0.25-0.093,0.182,0.094-0.079-0.035
						c-0.246-0.122-0.49-0.242-0.727-0.382c-0.564-0.332-1.395-0.147-1.71,0.448C345.908,185.726,346.072,186.482,346.674,186.836
						L346.674,186.836z"/>
				</g>
			</g>
			<g>
				<g>
					<path style="fill:#D4C9CF;" d="M356.791,147.281c-2.178,3.194-3.932,6.648-5.272,10.273c-0.234,0.633,0.262,1.37,0.873,1.538
						c0.698,0.192,1.303-0.238,1.538-0.873c1.264-3.421,2.966-6.664,5.02-9.676c0.38-0.558,0.105-1.386-0.449-1.71
						C357.884,146.471,357.173,146.721,356.791,147.281L356.791,147.281z"/>
				</g>
			</g>
			<g>
				<g>
					<path style="fill:#D4C9CF;" d="M343.402,145.12c-1.171,2.898-2.219,5.844-3.142,8.83c-0.199,0.645,0.237,1.363,0.873,1.538
						c0.67,0.184,1.338-0.226,1.538-0.873c0.922-2.987,1.971-5.932,3.142-8.83c0.253-0.626-0.276-1.373-0.873-1.538
						C344.226,144.051,343.656,144.491,343.402,145.12L343.402,145.12z"/>
				</g>
			</g>
			<g>
				<g>
					<path style="fill:#D4C9CF;" d="M360.454,159.947c-2.138,1.763-3.812,3.989-5.747,5.956c-0.459,0.467-0.5,1.309,0,1.768
						c0.496,0.455,1.278,0.498,1.768,0c1.935-1.967,3.609-4.193,5.747-5.956c0.507-0.418,0.465-1.341,0-1.768
						C361.683,159.453,360.994,159.502,360.454,159.947L360.454,159.947z"/>
				</g>
			</g>
		</g>
		<g>
			<defs>
				<path id="SVGID_1_" d="M310.822,198.34c4.166,17.392,5.908,34.579,5.424,51.159c-2.077,70.666-44.634,130.275-112.781,147.461
					c-73.249,18.473-55.633-58.065-40.95-72.974c21.742-22.084,50.128-59.72,55.704-101.862c3.257-24.57-3.528-42.68-18.507-74.344
					c-14.173-29.958,18.881-56.914,51.8-45.482c7.931,2.754,15.85,7.739,23.111,15.449
					C291.443,135.623,303.813,169.102,310.822,198.34z"/>
			</defs>
			<clipPath id="SVGID_00000028285077112752742580000014337042955238675585_">
				<use xlink:href="#SVGID_1_"  style="overflow:visible;"/>
			</clipPath>
			<path style="clip-path:url(#SVGID_00000028285077112752742580000014337042955238675585_);fill:#FFF1C4;" d="M310.822,198.34
				c4.166,17.392,5.908,34.579,5.424,51.159c-2.077,70.666-44.634,130.275-112.781,147.461
				c-73.249,18.473-55.633-58.065-40.95-72.974c21.742-22.084,50.128-59.72,55.704-101.862c3.257-24.57-3.528-42.68-18.507-74.344
				c-14.173-29.958,18.881-56.914,51.8-45.482c7.931,2.754,15.85,7.739,23.111,15.449
				C291.443,135.623,303.813,169.102,310.822,198.34z"/>
			<path style="opacity:0.6;clip-path:url(#SVGID_00000028285077112752742580000014337042955238675585_);fill:#FFF1C4;" d="
				M219.693,85.993c-7.196,4.858-9.727,14.734-7.918,23.226c1.809,8.492,7.183,15.788,13.116,22.127
				c5.933,6.339,12.581,12.045,17.839,18.954c6.667,8.762,10.85,19.136,14.487,29.529c2.964,8.469,5.636,17.136,6.355,26.08
				c0.653,8.131-0.324,16.307-0.096,24.461c0.626,22.439,0.326,74.898,20.689,84.343c8.514,3.949,30.619-24.04,38.865-28.523
				c9.6-5.218,13.922-16.564,16.515-27.179c8.803-36.042,5.909-75.848-13.056-107.736c-14.058-23.638-35.902-41.635-58.763-56.924
				c-6.573-4.396-13.389-8.666-20.998-10.82c-8.515-2.411-17.803-2-26.072,1.153"/>
			<g style="clip-path:url(#SVGID_00000028285077112752742580000014337042955238675585_);">
				<g>
					<path style="fill:#DEBF85;" d="M305.986,242.489c0.326,1.295,0.653,2.589,0.979,3.884c0.114,0.451,0.463,0.887,0.862,1.12
						c0.402,0.235,0.994,0.335,1.445,0.189c0.984-0.318,1.567-1.287,1.31-2.306c-0.327-1.295-0.653-2.589-0.979-3.884
						c-0.114-0.451-0.464-0.887-0.862-1.12c-0.402-0.235-0.994-0.335-1.445-0.189C306.312,240.501,305.729,241.47,305.986,242.489
						L305.986,242.489z"/>
				</g>
			</g>
			<g style="clip-path:url(#SVGID_00000028285077112752742580000014337042955238675585_);">
				<g>
					<path style="fill:#DEBF85;" d="M295.768,234.291c0.334,0.79,0.668,1.581,1.002,2.371c0.118,0.219,0.279,0.394,0.483,0.526
						c0.181,0.166,0.394,0.278,0.638,0.336c0.249,0.078,0.499,0.089,0.748,0.033c0.25-0.011,0.482-0.085,0.697-0.222
						c0.4-0.258,0.753-0.642,0.862-1.12c0.022-0.166,0.045-0.332,0.067-0.499c-0.001-0.338-0.086-0.654-0.256-0.946
						c-0.334-0.79-0.668-1.581-1.002-2.371c-0.118-0.219-0.279-0.394-0.483-0.526c-0.181-0.166-0.394-0.278-0.638-0.336
						c-0.249-0.078-0.498-0.089-0.748-0.033c-0.25,0.011-0.482,0.085-0.697,0.223c-0.4,0.258-0.753,0.642-0.862,1.121
						c-0.022,0.166-0.045,0.332-0.067,0.498C295.513,233.683,295.599,233.999,295.768,234.291L295.768,234.291z"/>
				</g>
			</g>
			<g style="clip-path:url(#SVGID_00000028285077112752742580000014337042955238675585_);">
				<g>
					<path style="fill:#DEBF85;" d="M292.303,244.814c0.267,1.059,0.534,2.118,0.801,3.177c0.114,0.451,0.464,0.888,0.862,1.121
						c0.402,0.235,0.994,0.335,1.445,0.189c0.454-0.147,0.891-0.428,1.121-0.862c0.239-0.452,0.316-0.942,0.189-1.445
						c-0.267-1.059-0.534-2.118-0.801-3.177c-0.114-0.451-0.463-0.888-0.862-1.121c-0.402-0.235-0.994-0.335-1.445-0.189
						c-0.454,0.147-0.892,0.428-1.121,0.862C292.253,243.821,292.176,244.31,292.303,244.814L292.303,244.814z"/>
				</g>
			</g>
			<g style="clip-path:url(#SVGID_00000028285077112752742580000014337042955238675585_);">
				<g>
					<path style="fill:#DEBF85;" d="M205.382,137.395c0.529,0.619,1.058,1.238,1.587,1.857c0.17,0.183,0.371,0.312,0.603,0.388
						c0.223,0.117,0.464,0.171,0.722,0.161c0.258,0.01,0.499-0.044,0.722-0.161c0.233-0.076,0.434-0.205,0.604-0.388
						c0.328-0.357,0.571-0.827,0.549-1.326c-0.022-0.166-0.045-0.332-0.067-0.499c-0.089-0.318-0.25-0.593-0.482-0.827
						c-0.529-0.619-1.058-1.238-1.587-1.857c-0.17-0.183-0.371-0.312-0.604-0.388c-0.223-0.117-0.464-0.171-0.722-0.161
						c-0.258-0.01-0.499,0.044-0.722,0.161c-0.232,0.076-0.434,0.205-0.603,0.388c-0.328,0.357-0.572,0.827-0.549,1.326
						c0.022,0.166,0.045,0.332,0.067,0.498C204.989,136.886,205.15,137.161,205.382,137.395L205.382,137.395z"/>
				</g>
			</g>
			<g style="clip-path:url(#SVGID_00000028285077112752742580000014337042955238675585_);">
				<g>
					<path style="fill:#DEBF85;" d="M208.11,127.975c0.397,0.657,0.794,1.313,1.192,1.97c0.118,0.218,0.279,0.394,0.483,0.526
						c0.181,0.166,0.394,0.278,0.638,0.336c0.249,0.078,0.499,0.089,0.748,0.034c0.249-0.011,0.482-0.086,0.697-0.223
						c0.4-0.258,0.753-0.643,0.862-1.121c0.022-0.166,0.045-0.332,0.067-0.498c-0.001-0.339-0.086-0.654-0.256-0.946
						c-0.397-0.657-0.794-1.313-1.192-1.97c-0.118-0.218-0.279-0.394-0.483-0.526c-0.181-0.166-0.394-0.278-0.638-0.336
						c-0.249-0.078-0.499-0.089-0.748-0.034c-0.249,0.011-0.482,0.085-0.697,0.222c-0.4,0.258-0.753,0.643-0.862,1.121
						c-0.022,0.166-0.045,0.332-0.067,0.498C207.855,127.367,207.941,127.683,208.11,127.975L208.11,127.975z"/>
				</g>
			</g>
			<g style="clip-path:url(#SVGID_00000028285077112752742580000014337042955238675585_);">
				<g>
					<path style="fill:#DEBF85;" d="M217.45,130.887c0.644,0.954,1.288,1.908,1.931,2.863c0.275,0.407,0.636,0.728,1.121,0.862
						c0.249,0.078,0.498,0.089,0.748,0.033c0.25-0.011,0.482-0.085,0.697-0.223c0.4-0.258,0.753-0.642,0.862-1.12
						c0.108-0.474,0.092-1.028-0.189-1.445c-0.644-0.954-1.287-1.909-1.931-2.863c-0.275-0.407-0.636-0.728-1.12-0.862
						c-0.249-0.078-0.499-0.089-0.748-0.033c-0.249,0.011-0.482,0.085-0.697,0.222c-0.4,0.258-0.753,0.642-0.862,1.12
						C217.153,129.916,217.168,130.47,217.45,130.887L217.45,130.887z"/>
				</g>
			</g>
			<g style="clip-path:url(#SVGID_00000028285077112752742580000014337042955238675585_);">
				<g>
					<path style="fill:#DEBF85;" d="M258.361,120.582c0.437,0.768,0.873,1.536,1.31,2.304c0.118,0.218,0.279,0.394,0.483,0.526
						c0.181,0.166,0.394,0.278,0.638,0.336c0.249,0.078,0.498,0.089,0.748,0.034c0.249-0.011,0.482-0.086,0.697-0.223
						c0.4-0.258,0.753-0.643,0.862-1.121c0.113-0.496,0.066-0.995-0.189-1.445c-0.436-0.768-0.873-1.536-1.31-2.304
						c-0.118-0.218-0.279-0.394-0.483-0.526c-0.181-0.166-0.394-0.278-0.638-0.336c-0.249-0.078-0.499-0.089-0.748-0.034
						c-0.249,0.011-0.482,0.086-0.697,0.223c-0.4,0.258-0.753,0.642-0.862,1.121C258.059,119.633,258.105,120.133,258.361,120.582
						L258.361,120.582z"/>
				</g>
			</g>
			<g style="clip-path:url(#SVGID_00000028285077112752742580000014337042955238675585_);">
				<g>
					<path style="fill:#DEBF85;" d="M267.069,125.131c0.473,0.882,0.946,1.764,1.418,2.646c0.218,0.406,0.683,0.741,1.121,0.862
						c0.249,0.078,0.498,0.089,0.748,0.033c0.25-0.011,0.482-0.085,0.697-0.223c0.4-0.258,0.753-0.642,0.862-1.12
						c0.115-0.503,0.057-0.986-0.189-1.445c-0.473-0.882-0.946-1.764-1.418-2.646c-0.217-0.406-0.683-0.741-1.121-0.862
						c-0.249-0.078-0.498-0.089-0.748-0.034c-0.25,0.011-0.482,0.086-0.697,0.223c-0.4,0.258-0.753,0.643-0.862,1.121
						C266.765,124.188,266.823,124.671,267.069,125.131L267.069,125.131z"/>
				</g>
			</g>
			<g style="clip-path:url(#SVGID_00000028285077112752742580000014337042955238675585_);">
				<g>
					<path style="fill:#DEBF85;" d="M240.735,221.636c0.096,1.444,0.51,2.867,1.315,4.081c0.27,0.407,0.64,0.729,1.121,0.862
						c0.449,0.124,1.046,0.068,1.445-0.189c0.4-0.258,0.753-0.642,0.862-1.12c0.108-0.476,0.09-1.024-0.189-1.445
						c-0.219-0.331-0.407-0.679-0.563-1.043c0.063,0.149,0.126,0.299,0.189,0.448c-0.223-0.533-0.376-1.089-0.454-1.661
						c0.022,0.166,0.045,0.332,0.067,0.498c-0.018-0.143-0.032-0.286-0.042-0.43c-0.033-0.5-0.187-0.963-0.549-1.326
						c-0.325-0.325-0.859-0.57-1.326-0.549c-0.485,0.022-0.988,0.181-1.326,0.549C240.961,220.663,240.702,221.141,240.735,221.636
						L240.735,221.636z"/>
				</g>
			</g>
			<g style="clip-path:url(#SVGID_00000028285077112752742580000014337042955238675585_);">
				<g>
					<path style="fill:#DEBF85;" d="M248.46,213.674c-0.035,1.505,0.197,3.049,0.693,4.471c0.162,0.465,0.427,0.866,0.862,1.12
						c0.402,0.235,0.994,0.335,1.445,0.189c0.454-0.147,0.891-0.428,1.12-0.862c0.227-0.429,0.355-0.97,0.189-1.445
						c-0.247-0.708-0.423-1.437-0.528-2.18c0.022,0.166,0.045,0.332,0.067,0.498c-0.079-0.595-0.113-1.193-0.099-1.793
						c0.011-0.474-0.217-0.993-0.549-1.326c-0.325-0.325-0.859-0.57-1.326-0.549C249.3,211.846,248.485,212.623,248.46,213.674
						L248.46,213.674z"/>
				</g>
			</g>
			<g style="clip-path:url(#SVGID_00000028285077112752742580000014337042955238675585_);">
				<g>
					<path style="fill:#DEBF85;" d="M250.325,227.095c0.085,0.854,0.171,1.708,0.257,2.562c-0.01,0.258,0.044,0.499,0.161,0.722
						c0.076,0.232,0.205,0.434,0.388,0.603c0.17,0.183,0.371,0.312,0.603,0.388c0.223,0.117,0.464,0.171,0.722,0.161
						c0.485-0.022,0.988-0.181,1.326-0.549c0.317-0.345,0.598-0.839,0.549-1.326c-0.086-0.854-0.171-1.708-0.257-2.562
						c0.01-0.258-0.044-0.499-0.161-0.722c-0.076-0.232-0.205-0.434-0.388-0.604c-0.17-0.183-0.371-0.312-0.603-0.388
						c-0.223-0.117-0.464-0.171-0.722-0.161c-0.485,0.022-0.988,0.181-1.326,0.549C250.557,226.115,250.276,226.608,250.325,227.095
						L250.325,227.095z"/>
				</g>
			</g>
		</g>
		<g>
			<g>
				<g>
					<path style="fill:#602F3C;" d="M168.923,205.65c2.305,3.837,5.364,7.35,8.492,10.526c6.882,6.988,15.245,12.582,24.575,15.707
						c6.546,2.192,13.529,3.046,20.412,2.624c3.197-0.196,3.219-5.197,0-5c-11.019,0.675-21.58-2.225-30.778-8.13
						c-3.664-2.352-6.63-4.758-9.814-7.88c-1.278-1.253-2.507-2.555-3.684-3.903c-0.486-0.556-0.962-1.12-1.43-1.692
						c-0.221-0.27-0.439-0.542-0.656-0.815c-0.094-0.119-0.188-0.24-0.282-0.359c-0.259-0.327,0.319,0.426-0.008-0.011
						c-0.873-1.168-1.758-2.339-2.509-3.591C171.585,200.371,167.26,202.882,168.923,205.65L168.923,205.65z"/>
				</g>
			</g>
			<path style="fill:#FEFFF9;" d="M179.42,195.973c0.235,0.137,0.481,0.284,0.619,0.52c0.255,0.437,0.047,0.989-0.175,1.445
				c-3.334,6.847-9.248,12.4-16.291,15.297c-0.506,0.208-1.086,0.403-1.585,0.178c-0.417-0.188-0.661-0.619-0.871-1.025
				c-2.317-4.469-4.072-9.23-5.209-14.135c4.239-1.497,6.829-5.612,10.928-7.328C170.983,189.187,175.879,193.912,179.42,195.973z"
				/>
			<path style="fill:#FEFFF9;" d="M175.308,189.704c3.801-6.543,4.801-14.654,2.701-21.925c-0.381-1.32-0.886-2.656-1.855-3.63
				c-0.969-0.974-2.506-1.496-3.758-0.931c-1.95,0.879-2.088,3.517-2.293,5.646c-0.257,2.667-1.087,5.278-2.416,7.605
				c-0.816,1.429-1.829,2.777-2.291,4.356c-0.363,1.242-0.363,2.559-0.324,3.853c0.057,1.907,0.189,3.811,0.398,5.707
				c0.177,1.607,0.446,3.298,1.475,4.545C170.769,199.565,173.892,192.143,175.308,189.704z"/>
			<path style="fill:#FEFFF9;" d="M158.514,155.465c-2.57-1.936-5.712-3.546-8.885-3.014c-1.181,0.198-2.429,0.819-2.791,1.96
				c-0.176,0.553-0.117,1.154-0.001,1.723c0.553,2.714,2.294,5.004,3.864,7.286c5.054,7.349,8.761,15.621,10.881,24.284
				c0.492,2.008,0.918,4.085,2.028,5.83c1.11,1.745,3.101,3.109,5.147,2.813c2.971-0.43,4.43-3.887,4.711-6.877
				c0.354-3.753-0.455-7.514-1.772-11.046C169.385,172.222,166.408,161.412,158.514,155.465z"/>
			<path style="fill:#FEFFF9;" d="M141.355,157.561c-2.969-1.239-6.413-2.02-9.355-0.719c-1.095,0.484-2.15,1.395-2.219,2.59
				c-0.033,0.58,0.173,1.147,0.426,1.67c1.208,2.492,3.463,4.279,5.549,6.101c6.717,5.867,12.358,12.963,16.559,20.831
				c0.974,1.824,1.902,3.731,3.41,5.146s3.774,2.244,5.684,1.45c2.772-1.153,3.328-4.864,2.861-7.83
				c-0.587-3.723-2.303-7.167-4.453-10.263C156.039,171.102,150.476,161.366,141.355,157.561z"/>
			<path style="fill:#FEFFF9;" d="M136.789,170.34c-2.833-0.525-5.995-0.561-8.327,1.133c-0.867,0.63-1.62,1.626-1.455,2.686
				c0.08,0.514,0.368,0.972,0.688,1.382c1.527,1.955,3.838,3.095,6.008,4.297c6.987,3.872,13.262,9.022,18.423,15.12
				c1.196,1.414,2.368,2.908,3.955,3.863c1.587,0.955,3.727,1.254,5.249,0.199c2.21-1.532,1.998-4.886,1.03-7.394
				c-1.215-3.149-3.367-5.841-5.833-8.147C152.197,179.43,145.492,171.954,136.789,170.34z"/>
			<path style="fill:#FEFFF9;" d="M137.015,184.372c-2.604-0.016-5.451,0.462-7.371,2.362c-0.714,0.707-1.287,1.724-1.027,2.65
				c0.126,0.449,0.432,0.815,0.763,1.132c1.578,1.512,3.776,2.165,5.854,2.897c6.69,2.356,12.874,5.978,18.154,10.631
				c1.224,1.079,2.434,2.234,3.962,2.838c1.527,0.603,3.484,0.527,4.743-0.667c1.827-1.734,1.285-4.717,0.152-6.818
				c-1.423-2.637-3.64-4.712-6.099-6.388C151.826,190.064,145.013,184.421,137.015,184.372z"/>
			<g>
				<g>
					<path style="fill:#D4C9CF;" d="M159.584,178.983c-3.147,5.25-2.914,12.269,0.673,17.25c0.393,0.545,1.09,0.815,1.71,0.449
						c0.539-0.318,0.846-1.158,0.448-1.71c-3.088-4.288-3.398-10.179-0.673-14.727C162.572,178.862,160.411,177.603,159.584,178.983
						L159.584,178.983z"/>
				</g>
			</g>
			<g>
				<g>
					<path style="fill:#D4C9CF;" d="M173.149,191.901c-0.08,0.593-0.211,1.177-0.398,1.746c-0.047,0.142-0.097,0.283-0.15,0.422
						c-0.03,0.078-0.061,0.154-0.092,0.232c0.038-0.096,0.066-0.151,0.008-0.024c-0.132,0.287-0.271,0.57-0.427,0.844
						c-0.148,0.26-0.307,0.513-0.478,0.759c-0.038,0.055-0.076,0.109-0.115,0.162c-0.074,0.102-0.118,0.159-0.014,0.026
						c-0.092,0.118-0.187,0.233-0.284,0.347c-0.401,0.467-0.846,0.891-1.327,1.275c-0.514,0.409-0.459,1.346,0,1.768
						c0.545,0.501,1.219,0.436,1.768,0c2.102-1.673,3.561-4.228,3.92-6.891c0.047-0.349,0.06-0.645-0.126-0.963
						c-0.152-0.259-0.449-0.507-0.747-0.575C174.1,190.895,173.242,191.208,173.149,191.901L173.149,191.901z"/>
				</g>
			</g>
			<g>
				<g>
					<path style="fill:#D4C9CF;" d="M163.197,203.061c-0.317,0.399-0.669,0.768-1.058,1.098c-0.043,0.037-0.087,0.072-0.13,0.109
						c-0.176,0.148,0.144-0.103,0.019-0.012c-0.103,0.075-0.205,0.151-0.31,0.222c-0.211,0.143-0.428,0.276-0.651,0.399
						c-0.211,0.116-0.428,0.218-0.647,0.318c-0.142,0.065,0.242-0.094,0.024-0.012c-0.053,0.02-0.106,0.041-0.159,0.06
						c-0.119,0.044-0.24,0.085-0.361,0.123c-0.243,0.076-0.489,0.141-0.739,0.193c-0.125,0.026-0.25,0.047-0.375,0.069
						c-0.17,0.029,0.014-0.01,0.08-0.01c-0.08-0.001-0.173,0.019-0.253,0.027c-0.649,0.061-1.282,0.532-1.25,1.25
						c0.028,0.625,0.553,1.315,1.25,1.25c2.443-0.228,4.788-1.375,6.328-3.314c0.214-0.27,0.366-0.525,0.366-0.884
						c0-0.307-0.136-0.673-0.366-0.884C164.513,202.646,163.632,202.514,163.197,203.061L163.197,203.061z"/>
				</g>
			</g>
			<g>
				<g>
					<path style="fill:#D4C9CF;" d="M140.018,173.484c2.973,2.057,5.71,4.517,8.127,7.271c0.446,0.508,1.312,0.455,1.768,0
						c0.504-0.504,0.447-1.259,0-1.768c-2.548-2.903-5.458-5.465-8.633-7.662c-0.555-0.384-1.388-0.103-1.71,0.449
						C139.206,172.395,139.461,173.099,140.018,173.484L140.018,173.484z"/>
				</g>
			</g>
			<g>
				<g>
					<path style="fill:#D4C9CF;" d="M151.265,166.237c2.133,2.285,4.168,4.659,6.099,7.117c0.406,0.517,1.348,0.457,1.768,0
						c0.503-0.548,0.433-1.217,0-1.768c-1.931-2.458-3.966-4.832-6.099-7.117c-0.447-0.479-1.322-0.486-1.768,0
						C150.793,164.982,150.787,165.726,151.265,166.237L151.265,166.237z"/>
				</g>
			</g>
			<g>
				<g>
					<path style="fill:#D4C9CF;" d="M141.712,186.914c0.331,0.111,0.66,0.231,0.985,0.36c0.047,0.018,0.45,0.185,0.319,0.129
						c0.165,0.07,0.33,0.144,0.493,0.217c0.619,0.279,1.228,0.579,1.834,0.885c1.187,0.6,2.359,1.231,3.57,1.783
						c0.594,0.271,1.373,0.189,1.71-0.448c0.29-0.549,0.187-1.421-0.449-1.71c-2.611-1.19-5.067-2.708-7.799-3.626
						c-0.62-0.208-1.393,0.24-1.538,0.873C140.682,186.067,141.048,186.691,141.712,186.914L141.712,186.914z"/>
				</g>
			</g>
		</g>
		<g>
			<g>
				<defs>
					<path id="SVGID_00000072248460432949052110000007017832749281390253_" d="M291.956,180.638
						c0.667,7.989-6.669,21.093-19.411,22.156c-12.742,1.064-26.065-10.315-26.732-18.304c-0.667-7.989,12.539,1.983,25.281,0.919
						C283.836,184.345,291.289,172.649,291.956,180.638z"/>
				</defs>
				<clipPath id="SVGID_00000153691586762192196150000017863196296276354217_">
					<use xlink:href="#SVGID_00000072248460432949052110000007017832749281390253_"  style="overflow:visible;"/>
				</clipPath>
				<g style="clip-path:url(#SVGID_00000153691586762192196150000017863196296276354217_);">
					<path style="fill:#602F3C;" d="M291.956,180.638c0.667,7.989-6.669,21.093-19.411,22.156
						c-12.742,1.064-26.065-10.315-26.732-18.304c-0.667-7.989,12.539,1.983,25.281,0.919
						C283.836,184.345,291.289,172.649,291.956,180.638z"/>
				</g>
				<path style="clip-path:url(#SVGID_00000153691586762192196150000017863196296276354217_);fill:#FEFFF9;" d="M256.67,179.132
					c0,0-5.759,9.412,9.484,10.397c15.243,0.984,20.749-2.374,19.582-14.056C284.569,163.791,256.67,179.132,256.67,179.132z"/>
				<g style="clip-path:url(#SVGID_00000153691586762192196150000017863196296276354217_);">
					<defs>
						
							<ellipse id="SVGID_00000098926779060597665080000000747712571928058014_" transform="matrix(0.0252 -0.9997 0.9997 0.0252 39.8188 460.3797)" cx="255.986" cy="209.771" rx="17.866" ry="21.662"/>
					</defs>
					<clipPath id="SVGID_00000168106717196839462770000011364168769623587511_">
						<use xlink:href="#SVGID_00000098926779060597665080000000747712571928058014_"  style="overflow:visible;"/>
					</clipPath>
					
						<ellipse transform="matrix(0.0252 -0.9997 0.9997 0.0252 39.8188 460.3797)" style="clip-path:url(#SVGID_00000168106717196839462770000011364168769623587511_);fill:#E5734C;" cx="255.986" cy="209.771" rx="17.866" ry="21.662"/>
					
						<ellipse transform="matrix(0.6363 -0.7714 0.7714 0.6363 -46.8188 285.1829)" style="opacity:0.6;clip-path:url(#SVGID_00000168106717196839462770000011364168769623587511_);fill:#FFF1C4;" cx="279.041" cy="192.245" rx="15.476" ry="20.346"/>
				</g>
			</g>
			<path style="fill:#E5734C;" d="M239.596,178.93c0.461,1.829-1.997,4.027-5.491,4.908c-3.494,0.881-6.7,0.112-7.161-1.717
				c-0.461-1.829,1.997-4.027,5.491-4.908C235.928,176.332,239.135,177.101,239.596,178.93z"/>
			<path style="fill:#E5734C;" d="M299.761,168.145c0.461,1.829-1.446,3.888-4.26,4.597c-2.814,0.71-5.469-0.198-5.93-2.027
				c-0.461-1.829,1.446-3.888,4.26-4.597C296.645,165.408,299.3,166.316,299.761,168.145z"/>
			<g>
				<path style="fill:#602F3C;" d="M288.861,151.171c0.952,3.773-0.35,7.354-2.906,7.999c-2.557,0.645-5.401-1.891-6.352-5.664
					c-0.951-3.773,0.35-7.354,2.906-7.999C285.066,144.862,287.91,147.398,288.861,151.171z"/>
			</g>
			<g>
				<path style="fill:#602F3C;" d="M244.91,159.056c0.952,3.773-0.35,7.354-2.906,7.999c-2.557,0.645-5.401-1.891-6.352-5.664
					c-0.952-3.773,0.35-7.354,2.906-7.999C241.114,152.747,243.958,155.283,244.91,159.056z"/>
			</g>
		</g>
		<g>
			<g>
				<path style="fill:#602F3C;" d="M141.113,392.696c-0.013,0.393,3.901,4.661,5.583,6.484c0.408,0.442,8.263,1.43,9.064,1.135
					c0.717-0.263,15.194-6.261,18.386-8.945c-2.997-2.595-14.583-14.125-17.311-14.06
					C156.835,377.31,141.125,392.323,141.113,392.696z"/>
			</g>
			<g>
				<path style="fill:#E7C13A;" d="M281.269,299.193c0,0,33.258-36.088,34.256-38.021c3.389-6.564-2.132,68.902-56.28,112.698
					C268.24,331.832,281.269,299.193,281.269,299.193z"/>
				<path style="fill:#E7C13A;" d="M212.306,240.312c-0.624,0.276-52.549,81.169-57.503,89.25
					c-6.789,11.075-10.793,30.115-7.509,42.684c3.191,12.217,11.564,24.415,23.583,28.287c12.019,3.872,39.174,7.231,85.533-25.418
					c25.56-18.002,38.022-84.514,31.517-105.32c-3.523-11.269-34.557-7.289-45.945-10.408
					C230.594,256.268,212.306,240.312,212.306,240.312z"/>
				<path style="opacity:0.3;fill:#FFF1C4;" d="M273.753,262.202c21.353,10.471-9.302,56.519-35.305,81.766
					c-26.003,25.247-63.608,41.36-73.402,31.273c-9.794-10.088,12.877-49.323,32.786-79.608
					C234.223,240.277,261.128,256.011,273.753,262.202z"/>
				<path style="opacity:0.3;fill:#FFF1C4;" d="M298.711,290.844c14.334,6.212-8.596,46.374-34.599,71.621
					c-26.003,25.247-61.674,39.028-73.402,31.273c-2.829-1.871,40.106-19.777,65.821-45.318
					C292.609,312.584,295.257,289.347,298.711,290.844z"/>
				<g>
					<g>
						<path style="fill:#CF9D40;" d="M288.34,290.645c-7.601,15.572-17.178,30.153-28.632,43.165
							c-9.707,11.028-20.686,20.932-32.635,29.479c-9.763,6.983-20.153,13.09-30.995,18.241c-7.602,3.612-15.433,6.758-23.454,9.312
							c-2.421,0.771-4.859,1.488-7.319,2.126c-1.11,0.288-2.281,0.465-3.374,0.806c-0.046,0.014-0.097,0.02-0.145,0.03
							c-1.577,0.312-0.909,2.722,0.665,2.411c2.979-0.59,5.92-1.452,8.822-2.334c7.762-2.358,15.348-5.299,22.735-8.645
							c10.685-4.841,20.954-10.608,30.646-17.217c11.987-8.175,23.105-17.636,33.012-28.24
							c11.651-12.471,21.62-26.497,29.625-41.568c1.106-2.082,2.173-4.185,3.207-6.304
							C291.201,290.466,289.046,289.198,288.34,290.645L288.34,290.645z"/>
					</g>
				</g>
				<g>
					<g>
						<path style="fill:#CF9D40;" d="M153.317,381.885c-0.323-5.389,0.325-10.946,1.167-16.254
							c2.12-13.361,6.59-26.341,13.086-38.204c6.465-11.807,14.853-22.646,23.149-33.208c7.423-9.45,15.118-18.685,22.974-27.777
							c4.032-4.667,8.19-9.22,12.244-13.867c0.059-0.067,0.12-0.132,0.18-0.198c1.083-1.186-0.68-2.959-1.768-1.768
							c-3.476,3.81-6.88,7.687-10.266,11.577c-7.712,8.861-15.27,17.86-22.588,27.049c-8.227,10.331-16.463,20.872-23.335,32.17
							c-7.436,12.225-12.726,25.796-15.435,39.85c-1.269,6.582-2.307,13.587-1.922,20.322c0.006,0.102,0.008,0.204,0.014,0.306
							C150.912,383.483,153.413,383.494,153.317,381.885L153.317,381.885z"/>
					</g>
				</g>
				<path style="fill:#F5E34D;" d="M287.927,269.794c-2.885-18.018-17.394-34.636-43.369-31.869
					c-18.621,1.984-25.202,22.998-30.129,45.8c-3.838,17.761-15.685,30.822-28.228,43.969c32.948-2.302,61.46-24.304,82.54-49.731
					c2.195-2.647,5.078-5.256,8.484-4.786c6.266,0.865,10.29,13.963,12.336,15.162C291.606,289.538,287.927,269.794,287.927,269.794
					z"/>
			</g>
			<path style="fill:#F5E34D;" d="M290.287,289.373c0,0,21.139-20.323,26.67-14.771c5.531,5.552,0.316-18.104,0.316-18.104
				S300.191,268.26,290.287,289.373z"/>
		</g>
	</g>
	<g>
		<path id="SVGID_x5F_00000085219909008468120390000009606362382126298022_x5F_" style="fill:none;" d="M354.158,255.851v68.948
			c0,57.525-46.633,104.158-104.158,104.158h0c-57.525,0-104.158-46.633-104.158-104.158v-68.948"/>
		<text>		<textPath  xlink:href="#SVGID_x5F_00000085219909008468120390000009606362382126298022_x5F_" startOffset="0.0196%">
<tspan  style="fill:#602F3C; font-family:'Jellee-Roman'; font-size:22px;">•***•</tspan>		</textPath>
</text>
		<path id="SVGID_x5F_00000003786069330125067120000007913474501547695002_x5F_" style="fill:none;" d="M145.842,248.15v-68.948
			c0-57.525,46.633-104.158,104.158-104.158h0c57.525,0,104.158,46.633,104.158,104.158v68.948"/>
		<text>		<textPath  xlink:href="#SVGID_x5F_00000003786069330125067120000007913474501547695002_x5F_" startOffset="0.0196%">
<tspan  style="fill:#602F3C; font-family:'Jellee-Roman'; font-size:22px;">•ENGLO ZUANG THEI•</tspan>		</textPath>
</text>
	</g>
</g>
</svg>
