<?xml version="1.0" encoding="utf-8"?>
<!-- Generator: Adobe Illustrator 27.5.0, SVG Export Plug-In . SVG Version: 6.00 Build 0)  -->
<svg version="1.1" id="Layer_1" xmlns="http://www.w3.org/2000/svg" xmlns:xlink="http://www.w3.org/1999/xlink" x="0px" y="0px"
	 viewBox="0 0 800 800" style="enable-background:new 0 0 800 800;" xml:space="preserve">
<rect style="fill:#FFFFFF;" width="800" height="800"/>
<g>
	
		<ellipse transform="matrix(0.7071 -0.7071 0.7071 0.7071 -165.6866 400.0005)" style="fill:#FFCE67;" cx="400" cy="400.002" rx="367.997" ry="367.998"/>
	<g>
		<path style="fill:#E0915F;" d="M581.448,227.193H244.731c-28.007,0-50.71,21.803-50.71,48.698v312.145
			c0,26.886,22.703,48.698,50.71,48.698h336.717c28.019,0,50.732-21.813,50.732-48.698V275.891
			C632.18,248.996,609.467,227.193,581.448,227.193z"/>
	</g>
	<g>
		<g>
			<path style="fill:#5AA5C8;" d="M600.165,545.302c0,26.886-22.712,48.698-50.73,48.698H212.717
				c-28.007,0-50.71-21.813-50.71-48.698V233.156c0-26.895,22.703-48.699,50.71-48.699h336.718c28.018,0,50.73,21.804,50.73,48.699
				V545.302z"/>
			<path style="fill:#96D9F7;" d="M549.435,192.517H212.717c-23.333,0-42.327,18.233-42.327,40.639v8.115
				c0-22.406,18.994-40.639,42.327-40.639h336.718c23.344,0,42.337,18.233,42.337,40.639v-8.115
				C591.771,210.749,572.778,192.517,549.435,192.517z"/>
			<rect x="181.278" y="278.748" style="fill:#FFCE67;" width="397.037" height="74.999"/>
			<path style="fill:#E0915F;" d="M189.662,286.788c0,11.046,0,43.822,0,54.857c15.84,0,364.438,0,380.279,0
				c0-11.035,0-43.81,0-54.857C554.1,286.788,205.501,286.788,189.662,286.788z"/>
			<path style="fill:#FFE2BB;" d="M192.054,289.088c0,4.042,0,46.213,0,50.247c4.72,0,370.773,0,375.483,0
				c0-4.035,0-46.205,0-50.247C562.827,289.088,196.774,289.088,192.054,289.088z"/>
			<path style="fill:#FFE2BB;" d="M181.278,524.329c0,26.891,22.704,48.691,50.721,48.691h295.594
				c28.018,0,50.722-21.801,50.722-48.691V353.747H181.278V524.329z"/>
			<g>
				<path style="fill:#FFE2BB;" d="M430.976,258.362c0,5.75-4.905,10.452-10.887,10.452h-37.228
					c-5.973,0-10.878-4.702-10.878-10.452v-35.723c0-5.75,4.906-10.452,10.878-10.452h37.228c5.981,0,10.887,4.702,10.887,10.452
					V258.362z"/>
				<path style="fill:#53C9F4;" d="M382.861,214.283c-4.794,0-8.699,3.737-8.699,8.356v35.723c0,4.609,3.905,8.357,8.699,8.357
					h37.228c4.802,0,8.707-3.747,8.707-8.357v-35.723c0-4.619-3.905-8.356-8.707-8.356H382.861z"/>
				<path style="fill:#FFE2BB;" d="M500.076,258.362c0,5.75-4.905,10.452-10.879,10.452h-37.235
					c-5.971,0-10.868-4.702-10.868-10.452v-35.723c0-5.75,4.897-10.452,10.868-10.452h37.235c5.974,0,10.879,4.702,10.879,10.452
					V258.362z"/>
				<path style="fill:#53C9F4;" d="M451.962,214.283c-4.784,0-8.689,3.737-8.689,8.356v35.723c0,4.609,3.905,8.357,8.689,8.357
					h37.235c4.796,0,8.701-3.747,8.701-8.357v-35.723c0-4.619-3.905-8.356-8.701-8.356H451.962z"/>
				<path style="fill:#FFE2BB;" d="M569.18,258.362c0,5.75-4.889,10.452-10.88,10.452h-37.227c-5.981,0-10.879-4.702-10.879-10.452
					v-35.723c0-5.75,4.898-10.452,10.879-10.452H558.3c5.991,0,10.88,4.702,10.88,10.452V258.362z"/>
				
					<linearGradient id="SVGID_1_" gradientUnits="userSpaceOnUse" x1="398.791" y1="723.2289" x2="408.5552" y2="653.2451" gradientTransform="matrix(0.6908 0 0 0.6908 261.6507 -240.819)">
					<stop  offset="0" style="stop-color:#D87B36"/>
					<stop  offset="0.5398" style="stop-color:#E5854F"/>
					<stop  offset="1" style="stop-color:#EE8C60"/>
				</linearGradient>
				<path style="fill:url(#SVGID_1_);" d="M521.073,214.283c-4.793,0-8.698,3.737-8.698,8.356v35.723
					c0,4.609,3.905,8.357,8.698,8.357H558.3c4.796,0,8.699-3.747,8.699-8.357v-35.723c0-4.619-3.903-8.356-8.699-8.356H521.073z"/>
				<rect x="383.335" y="250.035" style="fill:#FFE2BB;" width="26.709" height="8.968"/>
				<rect x="451.322" y="224.169" style="fill:#FFE2BB;" width="38.025" height="34.193"/>
				<rect x="453.315" y="232.73" style="fill:#53C9F4;" width="34.028" height="23.611"/>
				<g>
					<path style="fill:#FFE2BB;" d="M531.683,256.731c-2.281,2.198-5.973,2.198-8.252,0l0,0c-2.273-2.18-2.273-5.723,0-7.911
						l25.587-24.567c2.28-2.188,5.973-2.188,8.244,0l0,0c2.282,2.189,2.282,5.741,0,7.92L531.683,256.731z"/>
					<path style="fill:#FFE2BB;" d="M523.44,232.173c-2.282-2.18-2.282-5.732,0-7.92l0,0c2.271-2.18,5.962-2.18,8.243,0
						l25.579,24.567c2.282,2.189,2.282,5.74,0,7.911l0,0c-2.271,2.198-5.964,2.198-8.244,0L523.44,232.173z"/>
				</g>
			</g>
			<g>
				<path style="fill:#2C2E36;" d="M212.031,296.321v12.846c0.899-1.27,1.902-2.217,2.995-2.838c1.085-0.63,2.272-0.946,3.562-0.946
					c1.715,0,3.143,0.445,4.294,1.316c1.159,0.862,1.975,2.105,2.476,3.701c0.352,1.168,0.538,3.172,0.538,5.991v14.802h-5.751
					v-13.309c0-3.089-0.195-5.018-0.612-5.796c-0.575-1.048-1.54-1.568-2.902-1.568c-1.456,0-2.589,0.566-3.395,1.698
					c-0.807,1.131-1.206,3.246-1.206,6.344v12.631h-5.751v-34.872H212.031z"/>
				<path style="fill:#2C2E36;" d="M241.662,305.957v5.259h-3.895v10.229c0,2.207,0.055,3.497,0.167,3.84
					c0.231,0.639,0.704,0.964,1.418,0.964c0.529,0,1.289-0.214,2.282-0.641l0.482,5.156c-1.317,0.668-2.819,0.992-4.489,0.992
					c-1.455,0-2.624-0.324-3.506-0.992c-0.871-0.667-1.455-1.64-1.752-2.893c-0.242-0.918-0.353-2.791-0.353-5.62v-11.037h-2.644
					v-5.259h2.644v-5.036l5.751-3.904v8.939H241.662z"/>
				<path style="fill:#2C2E36;" d="M255.509,305.957v5.259h-3.896v10.229c0,2.207,0.056,3.497,0.167,3.84
					c0.231,0.639,0.705,0.964,1.419,0.964c0.528,0,1.28-0.214,2.272-0.641l0.492,5.156c-1.317,0.668-2.82,0.992-4.489,0.992
					c-1.465,0-2.615-0.324-3.496-0.992c-0.882-0.667-1.475-1.64-1.763-2.893c-0.231-0.918-0.351-2.791-0.351-5.62v-11.037h-2.644
					v-5.259h2.644v-5.036l5.749-3.904v8.939H255.509z"/>
				<path style="fill:#2C2E36;" d="M266.415,312.515c0.918-1.243,2.068-1.864,3.441-1.864c1.326,0,2.43,0.639,3.348,1.91
					c0.908,1.28,1.362,3.246,1.362,5.926c0,2.811-0.445,4.842-1.335,6.085c-0.891,1.233-1.975,1.864-3.274,1.864
					c-1.362,0-2.522-0.668-3.477-2.013c-0.975-1.354-1.448-3.45-1.448-6.287C265.033,315.631,265.497,313.757,266.415,312.515z
					 M259.376,340.829h5.749v-12.752c1.086,1.392,2.114,2.356,3.098,2.894c0.992,0.528,2.049,0.787,3.182,0.787
					c2.466,0,4.581-1.148,6.362-3.449c1.78-2.31,2.68-5.621,2.68-9.97c0-4.136-0.899-7.327-2.68-9.58
					c-1.782-2.244-3.905-3.375-6.372-3.375c-1.372,0-2.662,0.389-3.849,1.15c-1.196,0.751-2.161,1.799-2.884,3.134v-3.71h-5.286
					V340.829z"/>
				<path style="fill:#2C2E36;" d="M286.04,312.616v-6.659h5.675v6.659H286.04z M286.04,331.193v-6.65h5.675v6.65H286.04z"/>
				<path style="fill:#2C2E36;" d="M295.656,331.758l7.4-36.011h4.285l-7.466,36.011H295.656z"/>
				<path style="fill:#2C2E36;" d="M307.222,331.758l7.4-36.011h4.294l-7.476,36.011H307.222z"/>
			</g>
		</g>
	</g>
</g>
</svg>
