<?xml version="1.0" encoding="utf-8"?>
<!-- Generator: Adobe Illustrator 27.5.0, SVG Export Plug-In . SVG Version: 6.00 Build 0)  -->
<svg version="1.1" xmlns="http://www.w3.org/2000/svg" xmlns:xlink="http://www.w3.org/1999/xlink" x="0px" y="0px"
	 viewBox="0 0 500 500" style="enable-background:new 0 0 500 500;" xml:space="preserve">
<g id="BACKGROUND">
	<rect style="fill:#79A4D8;" width="500" height="500"/>
</g>
<g id="OBJECTS">
	<g style="opacity:0.4;">
		<g>
			<rect x="-0.41" y="14.513" style="fill:#6794C1;" width="500" height="3"/>
			<rect x="-0.41" y="32.512" style="fill:#6794C1;" width="500" height="3"/>
			<rect x="-0.41" y="50.511" style="fill:#6794C1;" width="500" height="3"/>
			<rect x="-0.41" y="68.51" style="fill:#6794C1;" width="500" height="3"/>
			<rect x="-0.41" y="86.509" style="fill:#6794C1;" width="500" height="3"/>
			<rect x="-0.41" y="104.508" style="fill:#6794C1;" width="500" height="3"/>
			<rect x="-0.41" y="122.507" style="fill:#6794C1;" width="500" height="3"/>
			<rect x="-0.41" y="140.506" style="fill:#6794C1;" width="500" height="3"/>
			<rect x="-0.41" y="158.505" style="fill:#6794C1;" width="500" height="3"/>
			<rect x="-0.41" y="176.504" style="fill:#6794C1;" width="500" height="3"/>
			<rect x="-0.41" y="194.503" style="fill:#6794C1;" width="500" height="3"/>
			<rect x="-0.41" y="212.502" style="fill:#6794C1;" width="500" height="3"/>
			<rect x="-0.41" y="230.501" style="fill:#6794C1;" width="500" height="3"/>
			<rect x="-0.41" y="248.5" style="fill:#6794C1;" width="500" height="3"/>
			<rect x="-0.41" y="266.499" style="fill:#6794C1;" width="500" height="3"/>
			<rect x="-0.41" y="284.498" style="fill:#6794C1;" width="500" height="3"/>
			<rect x="-0.41" y="302.497" style="fill:#6794C1;" width="500" height="3"/>
			<rect x="-0.41" y="320.496" style="fill:#6794C1;" width="500" height="3"/>
			<rect x="-0.41" y="338.495" style="fill:#6794C1;" width="500" height="3"/>
			<rect x="-0.41" y="356.494" style="fill:#6794C1;" width="500" height="3"/>
			<rect x="-0.41" y="374.493" style="fill:#6794C1;" width="500" height="3"/>
			<rect x="-0.41" y="392.492" style="fill:#6794C1;" width="500" height="3"/>
			<rect x="-0.41" y="410.491" style="fill:#6794C1;" width="500" height="3"/>
			<rect x="-0.41" y="428.49" style="fill:#6794C1;" width="500" height="3"/>
			<rect x="-0.41" y="446.489" style="fill:#6794C1;" width="500" height="3"/>
			<rect x="-0.41" y="464.488" style="fill:#6794C1;" width="500" height="3"/>
			<rect x="-0.41" y="482.487" style="fill:#6794C1;" width="500" height="3"/>
		</g>
		<g>
			<rect x="14.102" style="fill:#6794C1;" width="3" height="500"/>
			<rect x="32.102" style="fill:#6794C1;" width="3" height="500"/>
			<rect x="50.101" style="fill:#6794C1;" width="3" height="500"/>
			<rect x="68.1" style="fill:#6794C1;" width="3" height="500"/>
			<rect x="86.099" style="fill:#6794C1;" width="3" height="500"/>
			<rect x="104.098" style="fill:#6794C1;" width="3" height="500"/>
			<rect x="122.097" style="fill:#6794C1;" width="3" height="500"/>
			<rect x="140.096" style="fill:#6794C1;" width="3" height="500"/>
			<rect x="158.095" style="fill:#6794C1;" width="3" height="500"/>
			<rect x="176.094" style="fill:#6794C1;" width="3" height="500"/>
			<rect x="194.093" style="fill:#6794C1;" width="3" height="500"/>
			<rect x="212.092" style="fill:#6794C1;" width="3" height="500"/>
			<rect x="230.091" style="fill:#6794C1;" width="3" height="500"/>
			<rect x="248.09" style="fill:#6794C1;" width="3" height="500"/>
			<rect x="266.089" style="fill:#6794C1;" width="3" height="500"/>
			<rect x="284.088" style="fill:#6794C1;" width="3" height="500"/>
			<rect x="302.087" style="fill:#6794C1;" width="3" height="500"/>
			<rect x="320.086" style="fill:#6794C1;" width="3" height="500"/>
			<rect x="338.085" style="fill:#6794C1;" width="3" height="500"/>
			<rect x="356.084" style="fill:#6794C1;" width="3" height="500"/>
			<rect x="374.083" style="fill:#6794C1;" width="3" height="500"/>
			<rect x="392.082" style="fill:#6794C1;" width="3" height="500"/>
			<rect x="410.081" style="fill:#6794C1;" width="3" height="500"/>
			<rect x="428.08" style="fill:#6794C1;" width="3" height="500"/>
			<rect x="446.079" style="fill:#6794C1;" width="3" height="500"/>
			<rect x="464.078" style="fill:#6794C1;" width="3" height="500"/>
			<rect x="482.077" style="fill:#6794C1;" width="3" height="500"/>
		</g>
	</g>
	<rect x="33" y="151" style="opacity:0.6;fill:#6794C1;" width="37" height="212"/>
	<rect x="88" y="93" style="opacity:0.6;fill:#6794C1;" width="37" height="270"/>
	<rect x="140" y="124" style="opacity:0.6;fill:#6794C1;" width="37" height="242"/>
	<rect x="213" y="198" style="opacity:0.6;fill:#6794C1;" width="37" height="159"/>
	<rect x="266" y="205" style="opacity:0.6;fill:#6794C1;" width="37" height="144"/>
	<rect x="337" y="87" style="opacity:0.6;fill:#6794C1;" width="37" height="262"/>
	<rect x="393" y="175" style="opacity:0.6;fill:#6794C1;" width="37" height="174"/>
	<g>
		<defs>
			<rect id="SVGID_1_" width="500" height="500"/>
		</defs>
		<clipPath id="SVGID_00000057149659661241700480000012953625693942196655_">
			<use xlink:href="#SVGID_1_"  style="overflow:visible;"/>
		</clipPath>
		<g style="opacity:0.5;clip-path:url(#SVGID_00000057149659661241700480000012953625693942196655_);">
			<polygon style="fill:#5282AA;" points="-5.264,368.677 -6.736,367.323 50,305.61 50,266.49 123.675,213 158.582,213 232.582,138 
				320.611,138 355.611,106 393.586,106 429.586,70 464.378,70 499.103,-0.442 500.896,0.442 465.622,72 430.414,72 394.414,108 
				356.389,108 321.389,140 233.418,140 159.418,215 124.325,215 52,267.51 52,306.39 			"/>
		</g>
		
			<ellipse transform="matrix(0.3585 -0.9335 0.9335 0.3585 -386.8039 326.7127)" style="clip-path:url(#SVGID_00000057149659661241700480000012953625693942196655_);fill:#5282AA;" cx="44.312" cy="444.792" rx="88.207" ry="88.206"/>
		
			<circle style="clip-path:url(#SVGID_00000057149659661241700480000012953625693942196655_);fill:#5282AA;" cx="91.559" cy="355.546" r="43.959"/>
		
			<ellipse transform="matrix(0.1602 -0.9871 0.9871 0.1602 91.6358 710.8007)" style="clip-path:url(#SVGID_00000057149659661241700480000012953625693942196655_);fill:#5282AA;" cx="463.541" cy="301.548" rx="43.959" ry="43.959"/>
		<g style="clip-path:url(#SVGID_00000057149659661241700480000012953625693942196655_);">
			<polygon style="fill:#5282AA;" points="333.245,191.195 313.386,165.083 293.526,191.195 303.718,191.195 303.718,264.078 
				323.054,264.078 323.054,191.195 			"/>
			<polygon style="fill:#5282AA;" points="250.749,258.691 230.89,232.58 211.031,258.691 221.222,258.691 221.222,331.574 
				240.558,331.574 240.558,258.691 			"/>
			<polygon style="fill:#6794C1;" points="217.749,147.697 197.89,121.585 178.032,147.697 188.224,147.697 188.224,220.58 
				207.558,220.58 207.558,147.697 			"/>
			<polygon style="fill:#6794C1;" points="279.52,123.085 295.634,123.085 295.634,104.347 304.126,104.347 287.577,82.588 
				271.028,104.347 279.52,104.347 			"/>
		</g>
		<path style="clip-path:url(#SVGID_00000057149659661241700480000012953625693942196655_);fill:#E1E5E5;" d="M123.345,266.318
			c0.57-2.016,0.882-4.141,0.882-6.34c0-12.84-10.409-23.248-23.248-23.248S77.73,247.139,77.73,259.978
			c0,8.19,4.239,15.387,10.64,19.527c-6.151,6.999-9.889,16.171-9.889,26.221c0,21.952,17.795,39.748,39.747,39.748
			c21.952,0,39.748-17.796,39.748-39.748C157.976,285.511,142.878,268.831,123.345,266.318z"/>
		<g style="clip-path:url(#SVGID_00000057149659661241700480000012953625693942196655_);">
			<path style="fill:#BFC5C5;" d="M456.572,316.151c-8.245,0-16.119,1.582-23.354,4.429c-14.211-17.533-35.912-28.748-60.244-28.748
				c-42.813,0-77.518,34.705-77.518,77.52c0,42.815,34.705,77.522,77.518,77.522c17.277,0,33.232-5.658,46.116-15.212
				c10.529,7.649,23.478,12.173,37.482,12.173c35.26,0,63.844-28.585,63.844-63.843
				C520.416,344.735,491.832,316.151,456.572,316.151z"/>
			<path style="fill:#E1E5E5;" d="M543.391,499.501c0.452-3.29,0.693-6.648,0.693-10.059c0-40.289-32.66-72.951-72.949-72.951
				c-7.685,0-15.093,1.198-22.05,3.401c-11.143-32.696-42.103-56.228-78.568-56.228c-30.09,0-56.445,16.012-71.003,39.978
				c-9.295-4.647-19.775-7.275-30.879-7.275c-28.211,0-52.459,16.897-63.225,41.115c-8.242-5.316-18.046-8.412-28.584-8.412
				c-9.098,0-17.651,2.297-25.126,6.346c-11.762-18.909-32.718-31.5-56.628-31.5c-36.813,0-66.661,29.844-66.661,66.657
				c0,10.369,2.383,53.677,6.609,62.426L543.391,499.501z"/>
			<path style="fill:#BFC5C5;" d="M311.352,532.999c-1.703-18.897-17.564-67.201-36.906-67.201
				c-10.735,0-20.372,4.591-27.144,11.882c-9.476-17.131-27.724-28.735-48.689-28.735c-5.27,0-10.365,0.751-15.197,2.119
				c-0.672-40.371-33.583-72.897-74.118-72.897c-35.058,0-64.414,24.339-72.143,57.038c-5.341-2.008-11.125-3.111-17.171-3.111
				c-26.991,0-48.871,21.881-48.871,48.871c0,6.563,1.303,12.82,3.647,18.536L311.352,532.999z"/>
		</g>
		<g style="clip-path:url(#SVGID_00000057149659661241700480000012953625693942196655_);">
			<g>
				<path style="fill-rule:evenodd;clip-rule:evenodd;fill:#FFFFFF;" d="M128.905,304.241l246.308,1.047
					c3.159,0.013,5.732,2.61,5.719,5.769l-0.678,159.754c-0.014,3.157-2.61,5.733-5.768,5.719l-246.307-1.045
					c-3.157-0.015-5.734-2.608-5.72-5.769l0.679-159.753C123.149,306.802,125.746,304.228,128.905,304.241z"/>
				<path style="fill-rule:evenodd;clip-rule:evenodd;fill:#B3B3B3;" d="M140.089,304.29l14.28,0.061l-0.033,8.157
					c-0.003,0.736-0.609,1.338-1.348,1.335l-11.597-0.05c-0.738-0.003-1.34-0.609-1.337-1.346L140.089,304.29z"/>
				<path style="fill-rule:evenodd;clip-rule:evenodd;fill:#B3B3B3;" d="M349.747,305.179l14.28,0.061l-0.035,8.157
					c-0.002,0.735-0.608,1.338-1.348,1.335l-11.597-0.048c-0.738-0.003-1.339-0.612-1.336-1.348L349.747,305.179z"/>
				<path style="fill-rule:evenodd;clip-rule:evenodd;fill:#CCCCCC;" d="M105.31,254.863l293.423,1.246
					c7.057,0.03,9.191,3.333,6.275,7.863l-24.715,38.41l-257.12-1.092l-21.725-34.658C96.569,258.85,97.537,254.832,105.31,254.863z
					"/>
				<polygon style="fill-rule:evenodd;clip-rule:evenodd;fill:#6F86A8;" points="389.972,267.81 371.991,297.162 131.724,296.144 
					113.81,266.639 				"/>
				<path style="fill-rule:evenodd;clip-rule:evenodd;fill:#FFFFFF;" d="M103.686,255.932l297.387,1.264
					c0.633,0.002,1.147,0.521,1.145,1.153v0.001c-0.004,0.631-0.522,1.146-1.153,1.144l-297.388-1.262
					c-0.632-0.003-1.148-0.522-1.145-1.153v-0.002C102.535,256.445,103.055,255.931,103.686,255.932z"/>
				<path style="fill-rule:evenodd;clip-rule:evenodd;fill:#FFFFFF;" d="M142.149,296.897l10.225,0.046
					c0.65,0.002,1.18,0.536,1.176,1.188l-0.05,12.082c-0.003,0.65-0.538,1.182-1.188,1.179l-10.225-0.043
					c-0.65-0.004-1.181-0.538-1.177-1.189l0.051-12.083C140.963,297.425,141.498,296.896,142.149,296.897z"/>
				<path style="fill-rule:evenodd;clip-rule:evenodd;fill:#FFFFFF;" d="M351.807,297.789l10.225,0.042
					c0.649,0.004,1.18,0.536,1.178,1.188l-0.052,12.082c-0.003,0.652-0.538,1.183-1.189,1.181l-10.222-0.045
					c-0.652-0.002-1.182-0.538-1.181-1.189l0.053-12.081C350.621,298.315,351.155,297.784,351.807,297.789z"/>
				<path style="fill-rule:evenodd;clip-rule:evenodd;fill:#CCCCCC;" d="M355.772,328.026l7.957,0.035
					c0.903,0.003,1.64,0.745,1.636,1.65l-0.024,5.911c-0.004,0.903-0.745,1.64-1.649,1.637l-7.955-0.033
					c-0.906-0.005-1.643-0.747-1.639-1.651l0.026-5.911C354.127,328.76,354.87,328.024,355.772,328.026z"/>
				<path style="fill-rule:evenodd;clip-rule:evenodd;fill:#CCCCCC;" d="M356.09,339.308l7.225,0.031
					c1.106,0.004,2.006,0.911,2,2.016l-0.033,8.007c-0.003,1.104-0.912,2.007-2.017,2l-7.225-0.03c-1.105-0.003-2.007-0.912-2-2.016
					l0.034-8.009C354.079,340.201,354.985,339.304,356.09,339.308z"/>
				<path style="fill-rule:evenodd;clip-rule:evenodd;fill:#CCCCCC;" d="M356.032,353.409l7.223,0.03
					c1.105,0.006,2.006,0.913,2.001,2.017l-0.036,8.008c-0.004,1.104-0.912,2.004-2.016,1.999l-7.226-0.03
					c-1.102-0.004-2.003-0.912-1.999-2.017l0.035-8.008C354.019,354.306,354.926,353.405,356.032,353.409z"/>
				<path style="fill-rule:evenodd;clip-rule:evenodd;fill:#CCCCCC;" d="M355.973,367.513l7.222,0.031
					c1.105,0.005,2.007,0.912,2.002,2.017l-0.034,8.008c-0.006,1.105-0.913,2.004-2.018,2l-7.225-0.03
					c-1.105-0.006-2.006-0.913-1.999-2.017l0.031-8.008C353.959,368.409,354.867,367.508,355.973,367.513z"/>
				<path style="fill-rule:evenodd;clip-rule:evenodd;fill:#CCCCCC;" d="M355.91,381.615l7.225,0.031
					c1.104,0.005,2.005,0.912,2.001,2.016l-0.035,8.01c-0.004,1.103-0.912,2.003-2.018,2l-7.224-0.032
					c-1.104-0.003-2.004-0.912-2-2.015l0.033-8.009C353.898,382.511,354.806,381.611,355.91,381.615z"/>
				<path style="fill-rule:evenodd;clip-rule:evenodd;fill:#CCCCCC;" d="M355.851,395.718l7.226,0.033
					c1.105,0.004,2.002,0.91,1.999,2.015l-0.032,8.009c-0.006,1.103-0.915,2.003-2.02,1.998l-7.224-0.031
					c-1.103-0.003-2.005-0.91-2-2.015l0.035-8.007C353.84,396.613,354.747,395.715,355.851,395.718z"/>
				<path style="fill-rule:evenodd;clip-rule:evenodd;fill:#CCCCCC;" d="M341.721,327.967l7.955,0.035
					c0.903,0.004,1.64,0.747,1.638,1.649l-0.025,5.911c-0.004,0.903-0.747,1.64-1.65,1.638l-7.956-0.034
					c-0.903-0.003-1.641-0.747-1.636-1.65l0.025-5.911C340.074,328.699,340.818,327.966,341.721,327.967z"/>
				<path style="fill-rule:evenodd;clip-rule:evenodd;fill:#CCCCCC;" d="M329.199,339.193l19.925,0.084
					c1.181,0.005,2.143,0.977,2.138,2.158l-0.031,7.727c-0.005,1.182-0.976,2.146-2.159,2.139l-19.924-0.085
					c-1.18-0.003-2.144-0.974-2.136-2.155l0.031-7.729C327.048,340.15,328.019,339.189,329.199,339.193z"/>
				<path style="fill-rule:evenodd;clip-rule:evenodd;fill:#CCCCCC;" d="M338.287,353.334l10.777,0.045
					c1.182,0.008,2.145,0.978,2.14,2.158l-0.032,7.728c-0.005,1.18-0.977,2.144-2.158,2.139l-10.777-0.046
					c-1.183-0.003-2.146-0.976-2.14-2.157l0.03-7.729C336.133,354.291,337.104,353.33,338.287,353.334z"/>
				<path style="fill-rule:evenodd;clip-rule:evenodd;fill:#CCCCCC;" d="M327.494,367.395l21.51,0.09
					c1.181,0.006,2.143,0.975,2.139,2.157l-0.032,7.728c-0.004,1.181-0.975,2.145-2.159,2.139l-21.507-0.092
					c-1.183-0.005-2.143-0.976-2.14-2.155l0.034-7.73C325.343,368.35,326.313,367.387,327.494,367.395z"/>
				<path style="fill-rule:evenodd;clip-rule:evenodd;fill:#CCCCCC;" d="M341.858,381.556l7.226,0.032
					c1.104,0.002,2.006,0.912,2.001,2.015l-0.035,8.009c-0.004,1.104-0.912,2.006-2.016,2.002l-7.226-0.032
					c-1.105-0.004-2.004-0.912-2-2.018l0.033-8.01C339.847,382.452,340.753,381.552,341.858,381.556z"/>
				<path style="fill-rule:evenodd;clip-rule:evenodd;fill:#CCCCCC;" d="M341.799,395.658l7.227,0.032
					c1.103,0.004,2.003,0.912,1.998,2.017l-0.033,8.008c-0.004,1.103-0.913,2.003-2.017,1.999l-7.226-0.03
					c-1.104-0.006-2.006-0.913-1.998-2.018l0.033-8.007C339.787,396.554,340.694,395.655,341.799,395.658z"/>
				<path style="fill-rule:evenodd;clip-rule:evenodd;fill:#CCCCCC;" d="M328.743,327.913l6.881,0.028
					c0.904,0.003,1.643,0.747,1.638,1.65l-0.026,5.912c-0.004,0.904-0.746,1.641-1.65,1.635l-6.882-0.028
					c-0.903-0.005-1.641-0.744-1.638-1.65l0.025-5.912C327.095,328.645,327.84,327.91,328.743,327.913z"/>
				<path style="fill-rule:evenodd;clip-rule:evenodd;fill:#CCCCCC;" d="M315.553,327.857l6.881,0.028
					c0.904,0.003,1.64,0.746,1.636,1.65l-0.025,5.912c-0.004,0.902-0.745,1.642-1.649,1.635l-6.882-0.029
					c-0.905-0.002-1.641-0.745-1.636-1.649l0.025-5.912C313.903,328.589,314.648,327.853,315.553,327.857z"/>
				<path style="fill-rule:evenodd;clip-rule:evenodd;fill:#CCCCCC;" d="M302.361,327.801l6.881,0.028
					c0.904,0.006,1.641,0.745,1.637,1.651l-0.025,5.911c-0.005,0.902-0.745,1.64-1.65,1.638l-6.882-0.03
					c-0.905-0.004-1.642-0.747-1.637-1.65l0.024-5.911C300.714,328.532,301.455,327.797,302.361,327.801z"/>
				<path style="fill-rule:evenodd;clip-rule:evenodd;fill:#CCCCCC;" d="M289.169,327.745l6.882,0.027
					c0.904,0.006,1.641,0.748,1.637,1.651l-0.025,5.911c-0.005,0.904-0.746,1.641-1.651,1.638l-6.881-0.029
					c-0.904-0.006-1.642-0.747-1.638-1.65l0.026-5.912C287.522,328.478,288.264,327.741,289.169,327.745z"/>
				<path style="fill-rule:evenodd;clip-rule:evenodd;fill:#CCCCCC;" d="M275.976,327.689l6.883,0.029
					c0.905,0.004,1.641,0.748,1.637,1.65l-0.024,5.911c-0.006,0.904-0.745,1.641-1.65,1.636l-6.881-0.028
					c-0.905-0.003-1.642-0.746-1.638-1.65l0.026-5.912C274.331,328.423,275.072,327.685,275.976,327.689z"/>
				<path style="fill-rule:evenodd;clip-rule:evenodd;fill:#CCCCCC;" d="M262.786,327.633l6.883,0.028
					c0.903,0.005,1.639,0.746,1.635,1.65l-0.024,5.911c-0.005,0.907-0.746,1.642-1.649,1.639l-6.883-0.031
					c-0.904-0.003-1.639-0.746-1.636-1.648l0.024-5.912C261.141,328.364,261.882,327.628,262.786,327.633z"/>
				<path style="fill-rule:evenodd;clip-rule:evenodd;fill:#CCCCCC;" d="M249.595,327.576l6.882,0.03
					c0.905,0.003,1.641,0.746,1.637,1.648l-0.024,5.912c-0.004,0.904-0.748,1.643-1.65,1.638l-6.883-0.03
					c-0.904-0.004-1.641-0.746-1.636-1.649l0.024-5.912C247.948,328.309,248.691,327.572,249.595,327.576z"/>
				<path style="fill-rule:evenodd;clip-rule:evenodd;fill:#CCCCCC;" d="M236.404,327.52l6.881,0.03
					c0.905,0.002,1.641,0.747,1.636,1.649l-0.023,5.911c-0.004,0.905-0.749,1.642-1.651,1.638l-6.882-0.029
					c-0.904-0.005-1.64-0.747-1.636-1.65l0.025-5.911C234.757,328.254,235.5,327.519,236.404,327.52z"/>
				<path style="fill-rule:evenodd;clip-rule:evenodd;fill:#CCCCCC;" d="M223.212,327.465l6.883,0.028
					c0.902,0.005,1.638,0.748,1.634,1.65l-0.025,5.911c-0.003,0.903-0.747,1.641-1.649,1.638l-6.881-0.03
					c-0.904-0.003-1.642-0.746-1.638-1.65l0.025-5.911C221.564,328.196,222.308,327.462,223.212,327.465z"/>
				<path style="fill-rule:evenodd;clip-rule:evenodd;fill:#CCCCCC;" d="M210.021,327.409l6.881,0.028
					c0.904,0.005,1.64,0.746,1.636,1.649l-0.025,5.912c-0.004,0.903-0.746,1.641-1.651,1.637l-6.881-0.029
					c-0.904-0.003-1.641-0.747-1.636-1.649l0.024-5.912C208.374,328.14,209.117,327.405,210.021,327.409z"/>
				<path style="fill-rule:evenodd;clip-rule:evenodd;fill:#CCCCCC;" d="M196.83,327.352l6.881,0.03
					c0.905,0.004,1.641,0.746,1.637,1.648l-0.025,5.914c-0.004,0.904-0.746,1.64-1.651,1.635l-6.882-0.027
					c-0.903-0.006-1.639-0.746-1.636-1.65l0.026-5.912C195.184,328.086,195.925,327.349,196.83,327.352z"/>
				<path style="fill-rule:evenodd;clip-rule:evenodd;fill:#CCCCCC;" d="M183.637,327.297l6.883,0.029
					c0.903,0.004,1.642,0.748,1.637,1.651l-0.025,5.91c-0.005,0.903-0.746,1.641-1.651,1.637l-6.882-0.029
					c-0.905-0.004-1.64-0.745-1.636-1.651l0.025-5.911C181.993,328.029,182.735,327.293,183.637,327.297z"/>
				<path style="fill-rule:evenodd;clip-rule:evenodd;fill:#CCCCCC;" d="M170.447,327.24l6.881,0.029
					c0.904,0.004,1.641,0.746,1.638,1.652l-0.026,5.909c-0.003,0.904-0.746,1.641-1.65,1.638l-6.882-0.031
					c-0.905-0.002-1.64-0.746-1.635-1.649l0.023-5.911C168.8,327.974,169.543,327.237,170.447,327.24z"/>
				<path style="fill-rule:evenodd;clip-rule:evenodd;fill:#CCCCCC;" d="M157.256,327.185l6.881,0.028
					c0.905,0.003,1.641,0.747,1.636,1.65l-0.024,5.913c-0.004,0.904-0.748,1.641-1.652,1.637l-6.881-0.03
					c-0.903-0.005-1.64-0.746-1.637-1.65l0.025-5.912C155.608,327.916,156.352,327.182,157.256,327.185z"/>
				<path style="fill-rule:evenodd;clip-rule:evenodd;fill:#CCCCCC;" d="M142.438,327.122l7.955,0.034
					c0.904,0.002,1.639,0.746,1.636,1.648l-0.025,5.914c-0.004,0.902-0.746,1.64-1.65,1.636l-7.956-0.034
					c-0.904-0.005-1.64-0.746-1.637-1.65l0.026-5.912C140.791,327.853,141.533,327.117,142.438,327.122z"/>
				<path style="fill-rule:evenodd;clip-rule:evenodd;fill:#CCCCCC;" d="M314.966,339.132l7.091,0.031
					c1.086,0.003,1.969,0.896,1.962,1.98l-0.032,8.081c-0.005,1.085-0.897,1.967-1.98,1.964l-7.091-0.03
					c-1.085-0.004-1.968-0.896-1.964-1.979l0.036-8.081C312.993,340.011,313.884,339.128,314.966,339.132z"/>
				<path style="fill-rule:evenodd;clip-rule:evenodd;fill:#CCCCCC;" d="M300.654,339.071l7.089,0.029
					c1.087,0.007,1.969,0.897,1.964,1.981l-0.035,8.081c-0.003,1.084-0.894,1.968-1.978,1.963l-7.09-0.03
					c-1.083-0.004-1.968-0.896-1.964-1.98l0.035-8.081C298.681,339.952,299.572,339.066,300.654,339.071z"/>
				<path style="fill-rule:evenodd;clip-rule:evenodd;fill:#CCCCCC;" d="M286.344,339.011l7.09,0.03
					c1.084,0.005,1.968,0.897,1.961,1.98l-0.033,8.082c-0.004,1.083-0.895,1.967-1.98,1.963l-7.089-0.031
					c-1.084-0.004-1.968-0.896-1.961-1.98l0.032-8.079C284.368,339.891,285.258,339.007,286.344,339.011z"/>
				<path style="fill-rule:evenodd;clip-rule:evenodd;fill:#CCCCCC;" d="M272.03,338.951l7.091,0.029
					c1.084,0.004,1.969,0.897,1.963,1.979l-0.032,8.081c-0.006,1.085-0.896,1.968-1.982,1.966l-7.09-0.03
					c-1.084-0.005-1.968-0.896-1.964-1.981l0.035-8.079C270.056,339.828,270.947,338.945,272.03,338.951z"/>
				<path style="fill-rule:evenodd;clip-rule:evenodd;fill:#CCCCCC;" d="M257.719,338.89l7.091,0.03
					c1.084,0.004,1.967,0.894,1.963,1.979l-0.033,8.083c-0.007,1.084-0.896,1.966-1.98,1.961l-7.093-0.028
					c-1.082-0.006-1.965-0.896-1.961-1.98l0.035-8.081C255.744,339.769,256.636,338.885,257.719,338.89z"/>
				<path style="fill-rule:evenodd;clip-rule:evenodd;fill:#CCCCCC;" d="M243.406,338.828l7.092,0.03
					c1.084,0.004,1.967,0.896,1.963,1.979l-0.034,8.081c-0.006,1.086-0.895,1.969-1.98,1.963l-7.09-0.029
					c-1.085-0.005-1.968-0.896-1.964-1.98l0.035-8.082C241.431,339.708,242.323,338.823,243.406,338.828z"/>
				<path style="fill-rule:evenodd;clip-rule:evenodd;fill:#CCCCCC;" d="M229.095,338.768l7.092,0.031
					c1.082,0.005,1.966,0.894,1.961,1.979l-0.034,8.082c-0.005,1.085-0.895,1.967-1.979,1.963l-7.092-0.029
					c-1.083-0.005-1.967-0.896-1.962-1.982l0.034-8.081C227.121,339.647,228.012,338.764,229.095,338.768z"/>
				<path style="fill-rule:evenodd;clip-rule:evenodd;fill:#CCCCCC;" d="M214.783,338.708l7.091,0.028
					c1.084,0.006,1.968,0.897,1.963,1.983l-0.035,8.08c-0.004,1.083-0.896,1.968-1.979,1.963l-7.091-0.03
					c-1.083-0.004-1.967-0.895-1.963-1.98l0.036-8.081C212.809,339.587,213.699,338.702,214.783,338.708z"/>
				<path style="fill-rule:evenodd;clip-rule:evenodd;fill:#CCCCCC;" d="M200.472,338.647l7.089,0.03
					c1.084,0.004,1.968,0.896,1.962,1.98l-0.034,8.084c-0.003,1.083-0.894,1.965-1.979,1.961l-7.09-0.032
					c-1.083-0.004-1.967-0.894-1.962-1.977l0.035-8.082C198.497,339.525,199.388,338.643,200.472,338.647z"/>
				<path style="fill-rule:evenodd;clip-rule:evenodd;fill:#CCCCCC;" d="M186.159,338.587l7.09,0.029
					c1.085,0.005,1.967,0.895,1.963,1.979l-0.035,8.08c-0.004,1.085-0.895,1.97-1.979,1.965l-7.09-0.031
					c-1.084-0.004-1.967-0.896-1.963-1.979l0.034-8.08C184.184,339.465,185.075,338.582,186.159,338.587z"/>
				<path style="fill-rule:evenodd;clip-rule:evenodd;fill:#CCCCCC;" d="M171.847,338.525l7.09,0.029
					c1.084,0.004,1.967,0.896,1.964,1.981l-0.035,8.08c-0.004,1.084-0.895,1.968-1.979,1.962l-7.092-0.028
					c-1.084-0.005-1.966-0.896-1.962-1.98l0.035-8.082C169.872,339.404,170.763,338.521,171.847,338.525z"/>
				<path style="fill-rule:evenodd;clip-rule:evenodd;fill:#CCCCCC;" d="M157.535,338.465l7.091,0.028
					c1.084,0.005,1.967,0.898,1.963,1.981l-0.035,8.08c-0.005,1.083-0.895,1.968-1.979,1.964l-7.092-0.03
					c-1.083-0.004-1.966-0.896-1.962-1.98l0.035-8.08C155.56,339.345,156.451,338.459,157.535,338.465z"/>
				<path style="fill-rule:evenodd;clip-rule:evenodd;fill:#CCCCCC;" d="M142.753,338.402l7.226,0.029
					c1.105,0.005,2.005,0.911,2,2.015l-0.034,8.011c-0.004,1.104-0.913,2.005-2.016,1.999l-7.227-0.031
					c-1.102-0.004-2.003-0.912-1.999-2.015l0.035-8.01C140.743,339.297,141.649,338.398,142.753,338.402z"/>
				<path style="fill-rule:evenodd;clip-rule:evenodd;fill:#CCCCCC;" d="M142.834,352.504l14.865,0.064
					c1.184,0.005,2.146,0.975,2.14,2.159l-0.032,7.725c-0.006,1.182-0.976,2.146-2.158,2.14l-14.865-0.061
					c-1.183-0.007-2.144-0.977-2.14-2.158l0.034-7.726C140.682,353.464,141.653,352.499,142.834,352.504z"/>
				<path style="fill-rule:evenodd;clip-rule:evenodd;fill:#CCCCCC;" d="M142.774,366.607l17.676,0.077
					c1.181,0.004,2.144,0.976,2.139,2.157l-0.033,7.727c-0.005,1.181-0.976,2.144-2.157,2.14l-17.676-0.075
					c-1.182-0.004-2.144-0.978-2.139-2.158l0.033-7.727C140.622,367.566,141.594,366.603,142.774,366.607z"/>
				<path style="fill-rule:evenodd;clip-rule:evenodd;fill:#CCCCCC;" d="M142.714,380.712l25.341,0.107
					c1.182,0.005,2.143,0.975,2.139,2.157l-0.033,7.727c-0.004,1.182-0.974,2.146-2.158,2.14l-25.34-0.107
					c-1.182-0.006-2.143-0.977-2.139-2.155l0.034-7.73C140.563,381.67,141.533,380.707,142.714,380.712z"/>
				<path style="fill-rule:evenodd;clip-rule:evenodd;fill:#CCCCCC;" d="M142.654,394.813l10.522,0.045
					c1.181,0.006,2.144,0.978,2.14,2.159l-0.034,7.727c-0.005,1.181-0.976,2.143-2.156,2.139l-10.522-0.043
					c-1.182-0.006-2.144-0.977-2.139-2.158l0.032-7.727C140.502,395.772,141.472,394.81,142.654,394.813z"/>
				<path style="fill-rule:evenodd;clip-rule:evenodd;fill:#CCCCCC;" d="M163.747,352.595l7.594,0.031
					c1.16,0.004,2.107,0.959,2.103,2.12l-0.034,7.801c-0.005,1.164-0.96,2.108-2.12,2.103l-7.594-0.031
					c-1.16-0.005-2.106-0.958-2.102-2.119l0.033-7.804C161.631,353.535,162.586,352.588,163.747,352.595z"/>
				<path style="fill-rule:evenodd;clip-rule:evenodd;fill:#CCCCCC;" d="M178.328,352.656l7.595,0.032
					c1.16,0.004,2.105,0.959,2.101,2.119l-0.033,7.802c-0.005,1.161-0.958,2.107-2.12,2.103l-7.593-0.033
					c-1.161-0.004-2.108-0.958-2.103-2.12l0.034-7.801C176.212,353.597,177.167,352.651,178.328,352.656z"/>
				<path style="fill-rule:evenodd;clip-rule:evenodd;fill:#CCCCCC;" d="M192.908,352.718l7.593,0.032
					c1.162,0.005,2.107,0.957,2.103,2.12l-0.035,7.803c-0.003,1.161-0.958,2.106-2.119,2.1l-7.594-0.032
					c-1.161-0.005-2.106-0.957-2.102-2.119l0.033-7.803C190.794,353.657,191.748,352.713,192.908,352.718z"/>
				<path style="fill-rule:evenodd;clip-rule:evenodd;fill:#CCCCCC;" d="M207.49,352.779l7.593,0.032
					c1.16,0.005,2.105,0.959,2.102,2.119l-0.034,7.803c-0.004,1.162-0.958,2.107-2.119,2.102l-7.595-0.031
					c-1.16-0.005-2.106-0.958-2.101-2.119l0.033-7.803C205.373,353.721,206.327,352.774,207.49,352.779z"/>
				<path style="fill-rule:evenodd;clip-rule:evenodd;fill:#CCCCCC;" d="M222.069,352.841l7.594,0.031
					c1.161,0.008,2.107,0.961,2.102,2.122l-0.033,7.801c-0.004,1.161-0.958,2.107-2.12,2.104l-7.593-0.034
					c-1.161-0.003-2.107-0.956-2.102-2.119l0.033-7.803C219.955,353.781,220.907,352.836,222.069,352.841z"/>
				<path style="fill-rule:evenodd;clip-rule:evenodd;fill:#CCCCCC;" d="M236.65,352.903l7.594,0.032
					c1.16,0.004,2.108,0.958,2.101,2.119l-0.032,7.804c-0.007,1.161-0.961,2.104-2.12,2.1l-7.595-0.031
					c-1.16-0.005-2.104-0.956-2.1-2.12l0.033-7.802C234.536,353.845,235.488,352.899,236.65,352.903z"/>
				<path style="fill-rule:evenodd;clip-rule:evenodd;fill:#CCCCCC;" d="M251.23,352.964l7.594,0.033
					c1.162,0.005,2.107,0.96,2.102,2.12l-0.032,7.803c-0.005,1.16-0.96,2.107-2.12,2.101l-7.595-0.031
					c-1.159-0.005-2.106-0.959-2.101-2.12l0.032-7.801C249.115,353.907,250.07,352.961,251.23,352.964z"/>
				<path style="fill-rule:evenodd;clip-rule:evenodd;fill:#CCCCCC;" d="M265.81,353.027l7.596,0.031
					c1.159,0.005,2.106,0.961,2.101,2.121l-0.032,7.802c-0.007,1.16-0.959,2.107-2.121,2.103l-7.594-0.032
					c-1.159-0.006-2.105-0.96-2.103-2.121l0.034-7.803C263.695,353.967,264.648,353.021,265.81,353.027z"/>
				<path style="fill-rule:evenodd;clip-rule:evenodd;fill:#CCCCCC;" d="M280.393,353.088l7.593,0.033
					c1.161,0.005,2.106,0.959,2.1,2.121l-0.033,7.801c-0.004,1.162-0.959,2.106-2.118,2.103l-7.595-0.033
					c-1.159-0.005-2.104-0.958-2.102-2.119l0.034-7.803C278.275,354.029,279.232,353.084,280.393,353.088z"/>
				<path style="fill-rule:evenodd;clip-rule:evenodd;fill:#CCCCCC;" d="M294.974,353.15l7.593,0.031
					c1.161,0.007,2.107,0.961,2.102,2.121l-0.033,7.803c-0.005,1.16-0.959,2.106-2.12,2.102l-7.593-0.032
					c-1.161-0.006-2.108-0.96-2.103-2.119l0.033-7.802C292.858,354.092,293.811,353.145,294.974,353.15z"/>
				<path style="fill-rule:evenodd;clip-rule:evenodd;fill:#CCCCCC;" d="M309.553,353.214l7.595,0.03
					c1.16,0.006,2.106,0.959,2.102,2.121l-0.033,7.801c-0.006,1.163-0.96,2.108-2.121,2.104l-7.594-0.032
					c-1.161-0.006-2.107-0.958-2.099-2.121l0.032-7.802C307.439,354.154,308.392,353.207,309.553,353.214z"/>
				<path style="fill-rule:evenodd;clip-rule:evenodd;fill:#CCCCCC;" d="M324.134,353.274l7.595,0.033
					c1.161,0.003,2.106,0.958,2.102,2.119l-0.033,7.802c-0.006,1.161-0.959,2.107-2.12,2.104l-7.594-0.034
					c-1.159-0.004-2.107-0.959-2.103-2.118l0.033-7.803C322.018,354.217,322.973,353.271,324.134,353.274z"/>
				<path style="fill-rule:evenodd;clip-rule:evenodd;fill:#CCCCCC;" d="M167.744,366.714l7.594,0.031
					c1.16,0.006,2.105,0.96,2.1,2.121l-0.033,7.802c-0.004,1.163-0.958,2.107-2.118,2.102l-7.596-0.03
					c-1.159-0.006-2.105-0.96-2.101-2.12l0.033-7.804C165.628,367.655,166.582,366.71,167.744,366.714z"/>
				<path style="fill-rule:evenodd;clip-rule:evenodd;fill:#CCCCCC;" d="M182.323,366.775l7.594,0.033
					c1.162,0.004,2.107,0.959,2.102,2.12l-0.033,7.801c-0.005,1.162-0.958,2.108-2.119,2.105l-7.593-0.033
					c-1.161-0.006-2.108-0.96-2.102-2.121l0.033-7.802C180.208,367.718,181.163,366.772,182.323,366.775z"/>
				<path style="fill-rule:evenodd;clip-rule:evenodd;fill:#CCCCCC;" d="M196.904,366.84l7.595,0.03
					c1.161,0.006,2.107,0.96,2.102,2.12l-0.033,7.802c-0.004,1.16-0.959,2.107-2.12,2.104l-7.595-0.033
					c-1.161-0.005-2.106-0.96-2.101-2.12l0.033-7.802C194.79,367.779,195.744,366.834,196.904,366.84z"/>
				<path style="fill-rule:evenodd;clip-rule:evenodd;fill:#CCCCCC;" d="M211.486,366.9l7.594,0.033
					c1.159,0.004,2.105,0.957,2.1,2.118l-0.033,7.803c-0.006,1.161-0.958,2.107-2.119,2.103l-7.595-0.031
					c-1.161-0.008-2.107-0.961-2.101-2.121l0.032-7.804C209.37,367.84,210.325,366.895,211.486,366.9z"/>
				<path style="fill-rule:evenodd;clip-rule:evenodd;fill:#CCCCCC;" d="M226.065,366.96l7.594,0.034
					c1.161,0.005,2.107,0.959,2.101,2.119l-0.032,7.803c-0.005,1.162-0.959,2.107-2.12,2.102l-7.593-0.031
					c-1.161-0.005-2.107-0.96-2.103-2.12l0.034-7.803C223.95,367.901,224.905,366.956,226.065,366.96z"/>
				<path style="fill-rule:evenodd;clip-rule:evenodd;fill:#CCCCCC;" d="M240.647,367.025l7.593,0.03
					c1.161,0.006,2.106,0.958,2.103,2.121l-0.034,7.801c-0.006,1.161-0.96,2.107-2.118,2.104l-7.594-0.033
					c-1.162-0.005-2.108-0.958-2.104-2.12l0.035-7.803C238.531,367.964,239.486,367.019,240.647,367.025z"/>
				<path style="fill-rule:evenodd;clip-rule:evenodd;fill:#CCCCCC;" d="M255.227,367.086l7.594,0.034
					c1.162,0.002,2.107,0.956,2.104,2.117l-0.033,7.802c-0.006,1.163-0.959,2.106-2.12,2.104l-7.593-0.034
					c-1.163-0.003-2.107-0.957-2.104-2.118l0.032-7.804C253.112,368.027,254.065,367.082,255.227,367.086z"/>
				<path style="fill-rule:evenodd;clip-rule:evenodd;fill:#CCCCCC;" d="M269.809,367.147l7.593,0.033
					c1.16,0.004,2.106,0.958,2.102,2.119l-0.034,7.803c-0.003,1.161-0.959,2.107-2.119,2.102l-7.593-0.031
					c-1.16-0.005-2.106-0.961-2.103-2.12l0.034-7.801C267.692,368.088,268.645,367.142,269.809,367.147z"/>
				<path style="fill-rule:evenodd;clip-rule:evenodd;fill:#CCCCCC;" d="M284.39,367.212l7.593,0.03
					c1.162,0.004,2.107,0.957,2.1,2.12l-0.031,7.802c-0.008,1.16-0.96,2.106-2.119,2.103l-7.595-0.032
					c-1.161-0.006-2.107-0.961-2.101-2.121l0.032-7.803C282.273,368.149,283.227,367.203,284.39,367.212z"/>
				<path style="fill-rule:evenodd;clip-rule:evenodd;fill:#CCCCCC;" d="M298.967,367.272l7.596,0.032
					c1.16,0.005,2.106,0.96,2.103,2.119l-0.034,7.804c-0.004,1.161-0.958,2.106-2.121,2.1l-7.593-0.033
					c-1.161-0.004-2.107-0.957-2.103-2.118l0.035-7.805C296.853,368.21,297.809,367.267,298.967,367.272z"/>
				<path style="fill-rule:evenodd;clip-rule:evenodd;fill:#CCCCCC;" d="M313.55,367.333l7.594,0.032
					c1.16,0.005,2.105,0.958,2.103,2.119l-0.034,7.805c-0.005,1.159-0.959,2.105-2.119,2.1l-7.594-0.031
					c-1.162-0.006-2.107-0.96-2.102-2.119l0.033-7.802C311.435,368.272,312.39,367.328,313.55,367.333z"/>
				<path style="fill-rule:evenodd;clip-rule:evenodd;fill:#CCCCCC;" d="M175.316,380.849l7.595,0.032
					c1.16,0.005,2.107,0.961,2.101,2.122l-0.033,7.801c-0.005,1.161-0.96,2.106-2.121,2.102l-7.594-0.033
					c-1.161-0.004-2.105-0.958-2.101-2.117l0.032-7.803C173.202,381.792,174.155,380.846,175.316,380.849z"/>
				<path style="fill-rule:evenodd;clip-rule:evenodd;fill:#CCCCCC;" d="M189.897,380.912l7.595,0.031
					c1.16,0.005,2.106,0.961,2.102,2.12l-0.033,7.804c-0.004,1.157-0.959,2.106-2.12,2.099l-7.594-0.031
					c-1.161-0.004-2.106-0.958-2.102-2.119l0.034-7.801C187.783,381.853,188.737,380.906,189.897,380.912z"/>
				<path style="fill-rule:evenodd;clip-rule:evenodd;fill:#CCCCCC;" d="M204.478,380.973l7.593,0.033
					c1.162,0.004,2.106,0.959,2.102,2.12l-0.034,7.802c-0.005,1.159-0.958,2.105-2.119,2.101l-7.595-0.031
					c-1.159-0.005-2.107-0.959-2.102-2.119l0.034-7.802C202.362,381.914,203.318,380.97,204.478,380.973z"/>
				<path style="fill-rule:evenodd;clip-rule:evenodd;fill:#CCCCCC;" d="M219.058,381.033l7.595,0.034
					c1.161,0.006,2.107,0.96,2.102,2.12l-0.033,7.804c-0.005,1.159-0.959,2.104-2.12,2.1l-7.595-0.032
					c-1.159-0.005-2.105-0.959-2.102-2.118l0.034-7.803C216.944,381.977,217.897,381.028,219.058,381.033z"/>
				<path style="fill-rule:evenodd;clip-rule:evenodd;fill:#CCCCCC;" d="M233.64,381.096l7.594,0.032
					c1.16,0.007,2.107,0.961,2.102,2.121l-0.034,7.804c-0.004,1.16-0.959,2.105-2.119,2.101l-7.594-0.031
					c-1.161-0.005-2.108-0.96-2.103-2.119l0.034-7.803C231.523,382.037,232.479,381.091,233.64,381.096z"/>
				<path style="fill-rule:evenodd;clip-rule:evenodd;fill:#CCCCCC;" d="M248.221,381.159l7.594,0.032
					c1.16,0.004,2.105,0.961,2.1,2.121l-0.033,7.801c-0.005,1.161-0.958,2.105-2.118,2.102l-7.594-0.032
					c-1.162-0.004-2.108-0.959-2.103-2.118l0.034-7.803C246.103,382.1,247.06,381.154,248.221,381.159z"/>
				<path style="fill-rule:evenodd;clip-rule:evenodd;fill:#CCCCCC;" d="M262.801,381.221l7.594,0.031
					c1.161,0.006,2.109,0.961,2.102,2.121l-0.032,7.804c-0.006,1.159-0.961,2.105-2.121,2.1l-7.593-0.03
					c-1.162-0.006-2.106-0.961-2.103-2.119l0.033-7.804C260.686,382.162,261.641,381.215,262.801,381.221z"/>
				<path style="fill-rule:evenodd;clip-rule:evenodd;fill:#CCCCCC;" d="M277.381,381.282l7.596,0.033
					c1.159,0.004,2.104,0.959,2.1,2.12l-0.035,7.801c-0.003,1.162-0.959,2.108-2.116,2.103l-7.595-0.031
					c-1.16-0.005-2.108-0.961-2.104-2.12l0.035-7.802C275.265,382.224,276.222,381.277,277.381,381.282z"/>
				<path style="fill-rule:evenodd;clip-rule:evenodd;fill:#CCCCCC;" d="M291.962,381.345l7.593,0.033
					c1.162,0.003,2.108,0.959,2.104,2.119l-0.034,7.804c-0.004,1.159-0.959,2.103-2.12,2.1l-7.595-0.031
					c-1.161-0.005-2.105-0.96-2.102-2.119l0.033-7.803C289.848,382.286,290.801,381.339,291.962,381.345z"/>
				<path style="fill-rule:evenodd;clip-rule:evenodd;fill:#CCCCCC;" d="M306.543,381.406l7.593,0.031
					c1.161,0.006,2.107,0.961,2.104,2.122l-0.035,7.802c-0.002,1.162-0.958,2.105-2.118,2.101l-7.594-0.03
					c-1.162-0.007-2.107-0.959-2.103-2.119l0.032-7.804C304.427,382.349,305.382,381.4,306.543,381.406z"/>
				<path style="fill-rule:evenodd;clip-rule:evenodd;fill:#CCCCCC;" d="M321.161,381.469l13.729,0.058
					c1.184,0.004,2.145,0.976,2.14,2.159l-0.034,7.726c-0.004,1.183-0.975,2.145-2.154,2.14l-13.731-0.057
					c-1.183-0.005-2.145-0.976-2.14-2.157l0.034-7.729C319.008,382.427,319.98,381.466,321.161,381.469z"/>
				<path style="fill-rule:evenodd;clip-rule:evenodd;fill:#CCCCCC;" d="M160.439,394.891l7.594,0.03
					c1.16,0.007,2.107,0.959,2.102,2.12l-0.033,7.803c-0.004,1.162-0.96,2.106-2.12,2.1l-7.595-0.03
					c-1.16-0.007-2.105-0.958-2.101-2.119l0.033-7.802C158.325,395.828,159.278,394.885,160.439,394.891z"/>
				<path style="fill-rule:evenodd;clip-rule:evenodd;fill:#CCCCCC;" d="M175.019,394.951l7.595,0.032
					c1.161,0.007,2.107,0.958,2.101,2.12l-0.033,7.803c-0.006,1.161-0.959,2.105-2.12,2.1l-7.595-0.03
					c-1.16-0.007-2.107-0.959-2.102-2.121l0.033-7.802C172.905,395.892,173.86,394.946,175.019,394.951z"/>
				<path style="fill-rule:evenodd;clip-rule:evenodd;fill:#CCCCCC;" d="M189.6,395.012l7.594,0.033
					c1.162,0.005,2.107,0.96,2.102,2.122l-0.033,7.801c-0.005,1.16-0.96,2.105-2.121,2.101l-7.594-0.032
					c-1.161-0.003-2.107-0.958-2.102-2.118l0.033-7.803C187.486,395.955,188.439,395.009,189.6,395.012z"/>
				<path style="fill-rule:evenodd;clip-rule:evenodd;fill:#CCCCCC;" d="M204.181,395.076l7.595,0.031
					c1.16,0.005,2.107,0.959,2.102,2.12l-0.034,7.803c-0.004,1.162-0.959,2.105-2.12,2.101l-7.593-0.032
					c-1.161-0.004-2.108-0.957-2.102-2.118l0.033-7.803C202.066,396.015,203.02,395.069,204.181,395.076z"/>
				<path style="fill-rule:evenodd;clip-rule:evenodd;fill:#CCCCCC;" d="M218.762,395.137l7.594,0.034
					c1.161,0.004,2.106,0.957,2.102,2.118l-0.034,7.803c-0.005,1.16-0.959,2.106-2.119,2.101l-7.595-0.03
					c-1.161-0.005-2.107-0.961-2.102-2.122l0.033-7.801C216.645,396.078,217.602,395.132,218.762,395.137z"/>
				<path style="fill-rule:evenodd;clip-rule:evenodd;fill:#CCCCCC;" d="M233.341,395.199l7.595,0.032
					c1.161,0.005,2.107,0.96,2.102,2.119l-0.034,7.804c-0.003,1.16-0.959,2.104-2.12,2.101l-7.594-0.032
					c-1.16-0.004-2.105-0.959-2.102-2.119l0.032-7.802C231.228,396.141,232.181,395.193,233.341,395.199z"/>
				<path style="fill-rule:evenodd;clip-rule:evenodd;fill:#CCCCCC;" d="M247.923,395.259l7.593,0.034
					c1.16,0.006,2.106,0.958,2.102,2.119l-0.034,7.805c-0.003,1.16-0.956,2.105-2.119,2.1l-7.594-0.03
					c-1.159-0.007-2.107-0.959-2.102-2.122l0.033-7.803C245.808,396.2,246.763,395.255,247.923,395.259z"/>
				<path style="fill-rule:evenodd;clip-rule:evenodd;fill:#CCCCCC;" d="M262.505,395.322l7.593,0.033
					c1.16,0.006,2.105,0.958,2.102,2.119l-0.031,7.802c-0.008,1.161-0.96,2.108-2.121,2.103l-7.596-0.031
					c-1.161-0.006-2.105-0.96-2.101-2.12l0.033-7.805C260.389,396.265,261.343,395.317,262.505,395.322z"/>
				<path style="fill-rule:evenodd;clip-rule:evenodd;fill:#CCCCCC;" d="M277.083,395.385l7.595,0.031
					c1.159,0.004,2.107,0.96,2.101,2.122l-0.031,7.801c-0.006,1.161-0.96,2.107-2.12,2.102l-7.594-0.031
					c-1.16-0.006-2.107-0.96-2.103-2.12l0.034-7.803C274.969,396.326,275.923,395.38,277.083,395.385z"/>
				<path style="fill-rule:evenodd;clip-rule:evenodd;fill:#CCCCCC;" d="M291.666,395.447l7.594,0.032
					c1.159,0.004,2.106,0.957,2.101,2.119l-0.032,7.803c-0.006,1.161-0.961,2.105-2.12,2.101l-7.594-0.031
					c-1.162-0.005-2.108-0.959-2.104-2.12l0.033-7.803C289.549,396.389,290.505,395.44,291.666,395.447z"/>
				<path style="fill-rule:evenodd;clip-rule:evenodd;fill:#CCCCCC;" d="M306.282,395.506l13.732,0.061
					c1.181,0.005,2.146,0.978,2.137,2.158l-0.03,7.727c-0.007,1.181-0.977,2.144-2.157,2.138l-13.732-0.058
					c-1.184-0.005-2.145-0.976-2.14-2.157l0.032-7.727C304.131,396.465,305.101,395.502,306.282,395.506z"/>
				<path style="fill-rule:evenodd;clip-rule:evenodd;fill:#CCCCCC;" d="M327.747,395.601l7.226,0.028
					c1.105,0.006,2.003,0.915,1.998,2.019l-0.033,8.007c-0.004,1.104-0.912,2.005-2.018,1.999l-7.225-0.029
					c-1.103-0.005-2.005-0.913-1.999-2.018l0.035-8.005C325.735,396.496,326.644,395.594,327.747,395.601z"/>
				<path style="fill-rule:evenodd;clip-rule:evenodd;fill:#CCCCCC;" d="M213.697,417.255l75.767,0.323
					c1.155,0.004,2.097,0.953,2.093,2.107l-0.154,36.432c-0.006,1.156-0.955,2.095-2.11,2.09l-75.769-0.32
					c-1.154-0.007-2.098-0.953-2.092-2.109l0.155-36.432C211.591,418.191,212.54,417.248,213.697,417.255z"/>
				<path style="fill-rule:evenodd;clip-rule:evenodd;fill:#CCCCCC;" d="M211.847,460.603l37.686,0.159
					c0.238,0.001,0.432,0.198,0.432,0.437l-0.031,7.567c-0.001,0.241-0.197,0.439-0.439,0.436l-37.683-0.161
					c-0.241-0.001-0.435-0.199-0.435-0.438l0.033-7.568C211.411,460.797,211.607,460.602,211.847,460.603z"/>
				<path style="fill-rule:evenodd;clip-rule:evenodd;fill:#CCCCCC;" d="M253.263,460.778l37.684,0.158
					c0.24,0.003,0.435,0.197,0.433,0.44l-0.031,7.565c-0.001,0.24-0.197,0.438-0.438,0.436l-37.685-0.16
					c-0.24-0.002-0.434-0.2-0.436-0.439l0.035-7.566C252.824,460.972,253.022,460.778,253.263,460.778z"/>
			</g>
			<polygon style="fill-rule:evenodd;clip-rule:evenodd;fill:#EBAE92;" points="167.194,457.997 201.507,457.671 201.96,532.999 
				167.647,532.999 			"/>
			<path style="fill-rule:evenodd;clip-rule:evenodd;fill:#EBAE92;" d="M203.596,424.291c-0.035,4.069,0.028,9.008,0.05,14.847
				l11.333-17.878c4.795-7.564,11.941-4.064,14.725-0.687l-22.344,41.794c-3.114,5.827-12.571,8.805-21.709,9.146
				c-18.886,0.71-30.55-11.485-31.149-37.405l-4.381-19.861c-1.778-8.392,10.092-10.814,11.82-2.331l1.699,8.35
				c0.333-0.441,0.856-0.879,1.35-1.256l-1.617-16.723c-0.92-8.619,11.108-8.813,11.943-1.575l1.602,13.846
				c0.35-0.082,1.069-0.103,1.329-0.115l-0.585-17.705c-0.264-7.987,11.805-8.272,12.041-0.344l0.67,20.515
				c0.548,0.277,1.086,0.572,1.61,0.893l2.914-41.064c0.557-7.816,12.593-7.243,12.015,0.902L203.596,424.291z"/>
			
				<rect x="163.557" y="478.454" transform="matrix(1 -0.0095 0.0095 1 -4.5922 1.7731)" style="fill-rule:evenodd;clip-rule:evenodd;fill:#FFFFFF;" width="42.102" height="13.009"/>
			<polygon style="fill-rule:evenodd;clip-rule:evenodd;fill:#4B5E7A;" points="160.94,605.738 212.025,649.373 209.918,491.224 
				159.42,491.702 			"/>
			<polygon style="fill-rule:evenodd;clip-rule:evenodd;fill:#EBAE92;" points="332.813,456.426 298.505,456.752 298.956,532.999 
				333.269,532.999 			"/>
			<path style="fill-rule:evenodd;clip-rule:evenodd;fill:#EBAE92;" d="M295.777,423.418c0.113,4.068,0.145,9.006,0.234,14.844
				l-11.336-16.69c-5.031-7.411-12.709-4.377-14.978-0.728l23.044,40.716c3.25,5.748,12.734,8.564,21.876,8.731
				c18.897,0.353,30.326-12.063,30.434-37.989l7.579-39.403c1.619-8.422-10.294-10.62-11.859-2.104l-5.117,27.84
				c-0.342-0.434-0.872-0.863-1.374-1.229l3.284-37.354c0.754-8.635-11.272-8.598-11.971-1.348l-3.321,34.476
				c-0.352-0.075-1.073-0.082-1.332-0.09l0.426-39.717c0.085-7.988-11.962-8.047-12.047-0.114l-0.456,42.526
				c-0.543,0.285-1.077,0.593-1.595,0.922l-3.69-40.998c-0.705-7.805-12.728-7.006-11.994,1.129L295.777,423.418z"/>
			
				<rect x="294.865" y="477.211" transform="matrix(1 -0.0094 0.0094 1 -4.5413 2.9965)" style="fill-rule:evenodd;clip-rule:evenodd;fill:#FFFFFF;" width="42.102" height="13.007"/>
			<polygon style="fill-rule:evenodd;clip-rule:evenodd;fill:#4B5E7A;" points="342.402,590.815 292.578,649.148 290.728,490.456 
				341.226,489.978 			"/>
			<polygon style="fill-rule:evenodd;clip-rule:evenodd;fill:#4B5E7A;" points="186.481,627.555 212.025,649.373 209.918,491.224 
				184.668,491.461 			"/>
			<polygon style="fill-rule:evenodd;clip-rule:evenodd;fill:#4B5E7A;" points="317.489,619.981 342.402,590.815 341.226,489.977 
				315.977,490.215 			"/>
		</g>
		
			<ellipse transform="matrix(0.2273 -0.9738 0.9738 0.2273 -267.0238 336.4311)" style="clip-path:url(#SVGID_00000057149659661241700480000012953625693942196655_);fill:#E1E5E5;" cx="78.481" cy="336.474" rx="25.499" ry="25.499"/>
		<path style="clip-path:url(#SVGID_00000057149659661241700480000012953625693942196655_);fill:#E1E5E5;" d="M18.484,491.716
			c0-20.296,16.453-36.749,36.748-36.749c20.295,0,36.748,16.453,36.748,36.749c0,20.295-16.453,41.283-36.748,41.283
			C34.936,532.999,18.484,512.011,18.484,491.716z"/>
		<path style="clip-path:url(#SVGID_00000057149659661241700480000012953625693942196655_);fill:#E1E5E5;" d="M57.482,300.475
			c0,4.971-4.029,9-9,9s-9-4.029-9-9c0-4.97,4.029-8.999,9-8.999S57.482,295.505,57.482,300.475z"/>
		<path style="clip-path:url(#SVGID_00000057149659661241700480000012953625693942196655_);fill:#BFC5C5;" d="M440.581,256.09
			c0,4.971-4.029,9-8.999,9c-4.971,0-9-4.029-9-9c0-4.97,4.029-8.999,9-8.999C436.552,247.091,440.581,251.12,440.581,256.09z"/>
		
			<circle style="clip-path:url(#SVGID_00000057149659661241700480000012953625693942196655_);fill:#E1E5E5;" cx="-0.265" cy="377.722" r="20.249"/>
		<path style="clip-path:url(#SVGID_00000057149659661241700480000012953625693942196655_);fill:#BFC5C5;" d="M460.921,279.478
			c0,14.911,12.088,26.998,26.999,26.998c14.911,0,26.998-12.087,26.998-26.998c0-14.912-12.087-26.999-26.998-26.999
			C473.009,252.479,460.921,264.565,460.921,279.478z"/>
		<path style="clip-path:url(#SVGID_00000057149659661241700480000012953625693942196655_);fill:#BFC5C5;" d="M480.46,232.979
			c0,7.87,6.38,14.249,14.249,14.249c7.87,0,14.25-6.379,14.25-14.249c0-7.87-6.38-14.249-14.25-14.249
			C486.84,218.73,480.46,225.109,480.46,232.979z"/>
		<g style="clip-path:url(#SVGID_00000057149659661241700480000012953625693942196655_);">
			<g>
				<path style="fill:#FFC500;" d="M252.393,238.378c-31.354-45.956-11.649-67.386-11.649-67.386h11.649h0.111h12.751
					c0,0,18.603,20.138-12.751,66.094v0.167c-0.018-0.028-0.035-0.058-0.056-0.083c-0.019,0.025-0.035,0.055-0.056,0.083V238.378z"
					/>
				<path style="fill:#FDEBA1;" d="M252.711,214.94c-24.359-35.209-5.884-43.68-5.884-43.68h6.576h0.062c0,0,5.292-1.379,6.575,0
					C275.947,188.364,252.711,214.94,252.711,214.94z"/>
			</g>
			<g>
				<g>
					<g id="rocket_2_">
						
							<rect x="238.252" y="161.507" transform="matrix(1 -0.0035 0.0035 1 -0.5767 0.8798)" style="fill:#D65E21;" width="28.321" height="9.174"/>
						<path style="fill:#F76C26;" d="M251.452,122.377c-27.308,0.09-49.369,21.906-49.275,48.736
							c0.025,6.232,1.251,12.178,3.454,17.644c7.127-18.11,24.989-30.99,45.955-31.058c20.968-0.066,38.922,12.693,46.18,30.76
							c2.161-5.479,3.346-11.434,3.323-17.666C300.993,143.961,278.761,122.287,251.452,122.377z"/>
						<path style="fill:#F76C26;" d="M264.221,159.293c15.34,3.924,27.799,14.868,33.545,29.166
							c2.161-5.479,3.346-11.434,3.323-17.666c-0.078-22.539-15.788-41.441-37.003-46.847L264.221,159.293z"/>
						<path style="fill:#E1E5E5;" d="M220.84,106.673c0.088,22.898,5.098,43.831,13.332,60.041
							c5.497-1.725,11.355-2.684,17.436-2.698c6.082-0.021,11.949,0.894,17.462,2.59c8.107-16.267,12.962-37.235,12.882-60.126
							c-0.135-36.37-12.677-67.816-30.869-83.207C233.01,38.777,220.706,70.306,220.84,106.673z"/>
						<path style="fill:#D65E21;" d="M228.67,58.518l-1.392,4.214c0,0,26.129-2.993,48.542,0.321l-2.055-4.68
							C273.766,58.374,243.661,54.806,228.67,58.518z"/>
						<path style="fill:#F76C26;" d="M245.015,154.101c0.059,15.125,2.769,28.211,6.687,34.628
							c3.866-6.441,6.483-19.543,6.426-34.668c-0.056-15.126-2.775-28.216-6.687-34.632
							C247.578,125.873,244.963,138.977,245.015,154.101z"/>
						<path style="fill:#F76C26;" d="M251.519,188.415c0.066,0.103,0.126,0.217,0.182,0.315c3.866-6.441,6.483-19.543,6.426-34.668
							c-0.056-15.126-2.775-28.216-6.687-34.632c-0.059,0.1-0.113,0.219-0.173,0.317L251.519,188.415z"/>
						<path style="fill:#F76C26;" d="M228.67,58.518c7.337-0.505,14.86-0.791,22.546-0.815c7.678-0.027,15.206,0.215,22.549,0.671
							c-5.447-14.94-13.303-27.17-22.684-35.101C241.766,31.264,234.003,43.539,228.67,58.518z"/>
						<path style="fill:#F76C26;" d="M251.473,76.412l-0.184-0.004c-3.618,0.013-7.016,1.408-9.569,3.93
							c-2.547,2.525-3.946,5.869-3.938,9.422c0.029,7.231,6.043,13.181,13.414,13.257l0.189,0.004
							c7.469-0.027,13.524-6.015,13.496-13.358C264.855,82.434,258.841,76.483,251.473,76.412z"/>
						<path style="fill:#6F86A8;" d="M251.293,79.64c-5.657,0.014-10.242,4.547-10.221,10.107c0.02,5.554,4.64,10.057,10.297,10.038
							c5.655-0.019,10.241-4.551,10.22-10.109C261.573,84.123,256.949,79.618,251.293,79.64z"/>
					</g>
				</g>
			</g>
		</g>
		<g style="clip-path:url(#SVGID_00000057149659661241700480000012953625693942196655_);">
			<g>
				<polygon style="fill:#E2DED9;" points="91.219,184.457 33.57,251.545 6.693,228.449 				"/>
				<polygon style="fill:#FDFDFD;" points="91.219,184.457 6.693,228.449 53.724,228.092 				"/>
			</g>
			<g>
				<polygon style="fill:#E2DED9;" points="91.219,184.457 33.57,251.545 60.446,274.642 				"/>
				<polygon style="fill:#FDFDFD;" points="91.219,184.457 60.446,274.642 53.724,228.092 				"/>
			</g>
			<g>
				<polygon style="fill:#B4B4B4;" points="91.219,184.457 28.291,257.69 30.316,248.081 				"/>
				<polygon style="fill:#FDFDFD;" points="91.219,184.457 28.29,257.689 37.483,254.241 				"/>
			</g>
		</g>
		<path style="clip-path:url(#SVGID_00000057149659661241700480000012953625693942196655_);fill:#F76C26;" d="M75.681,329.724
			c-2.482,0.399-4.708,1.727-6.263,3.736l-9.968,12.866c-0.324,0.419-0.258,1.005,0.149,1.307c0.409,0.304,1.006,0.209,1.329-0.214
			l9.967-12.864c1.242-1.603,3.017-2.665,4.997-2.98c1.979-0.317,3.925,0.142,5.483,1.298c1.558,1.155,2.538,2.865,2.761,4.814
			c0.223,1.951-0.337,3.907-1.581,5.51l-16.683,21.538c-1.928,2.487-5.468,3.056-7.888,1.265c-2.417-1.796-2.817-5.282-0.888-7.773
			L71.834,339.2c0.617-0.795,1.498-1.321,2.48-1.477c0.985-0.158,1.951,0.07,2.724,0.643c0.772,0.572,1.257,1.42,1.369,2.389
			c0.109,0.967-0.169,1.938-0.786,2.734l-13.886,17.928c-0.326,0.418-0.26,1.004,0.148,1.306c0.408,0.304,1.002,0.207,1.328-0.213
			l13.887-17.925c0.931-1.203,1.352-2.67,1.187-4.133c-0.168-1.459-0.903-2.742-2.07-3.607c-1.167-0.865-2.626-1.209-4.112-0.971
			c-1.484,0.236-2.813,1.028-3.744,2.23L55.62,357.131c-2.579,3.329-2.046,7.987,1.185,10.389c2.798,2.072,6.716,1.784,9.39-0.484
			c0.419-0.355,0.807-0.757,1.153-1.208l16.685-21.534c1.555-2.011,2.259-4.463,1.981-6.907c-0.279-2.445-1.509-4.588-3.461-6.033
			C80.603,329.903,78.162,329.327,75.681,329.724z"/>
		<path style="clip-path:url(#SVGID_00000057149659661241700480000012953625693942196655_);fill:#79A4D8;" d="M444.445,447.106
			c-2.392,0.779-4.384,2.436-5.608,4.662l-7.853,14.255c-0.255,0.465-0.099,1.033,0.349,1.268c0.452,0.237,1.027,0.051,1.28-0.416
			l7.854-14.254c0.978-1.777,2.566-3.101,4.474-3.719c1.906-0.62,3.899-0.469,5.618,0.432c1.718,0.9,2.951,2.438,3.475,4.329
			c0.522,1.894,0.272,3.912-0.709,5.689l-13.142,23.863c-1.52,2.755-4.929,3.865-7.598,2.471c-2.666-1.399-3.602-4.781-2.081-7.541
			l11.611-21.08c0.486-0.881,1.275-1.537,2.221-1.844c0.949-0.308,1.938-0.232,2.791,0.214c0.851,0.445,1.462,1.208,1.723,2.146
			c0.258,0.939,0.132,1.94-0.353,2.824l-10.94,19.863c-0.257,0.463-0.101,1.032,0.349,1.267c0.45,0.236,1.022,0.049,1.279-0.417
			l10.941-19.859c0.733-1.333,0.922-2.849,0.531-4.267c-0.392-1.416-1.317-2.569-2.603-3.243c-1.288-0.675-2.782-0.787-4.213-0.322
			c-1.429,0.464-2.619,1.452-3.353,2.784l-11.612,21.08c-2.032,3.689-0.784,8.208,2.78,10.08c3.086,1.613,6.912,0.721,9.201-1.934
			c0.359-0.417,0.681-0.872,0.953-1.372l13.145-23.86c1.226-2.228,1.541-4.758,0.888-7.131c-0.655-2.372-2.202-4.299-4.355-5.424
			C449.335,446.522,446.834,446.329,444.445,447.106z"/>
		<g style="clip-path:url(#SVGID_00000057149659661241700480000012953625693942196655_);">
			<path style="fill-rule:evenodd;clip-rule:evenodd;fill:#F76C26;" d="M437.839,365.685l-3.812,12.299
				c-0.149,0.476-0.561,0.435-0.92-0.088l-2.61-3.808c-0.36-0.524-0.532-1.341-0.385-1.816l3.813-12.296
				c0.148-0.477,0.562-0.438,0.92,0.086l2.61,3.811C437.814,364.394,437.987,365.21,437.839,365.685z"/>
			<path style="fill-rule:evenodd;clip-rule:evenodd;fill:#FFFFFF;" d="M437.944,368.87l-5.276,17.016
				c-0.204,0.659-0.908,1.028-1.566,0.826l-4.787-1.483c-0.657-0.205-1.029-0.91-0.825-1.567l5.276-17.017
				c0.204-0.659,0.908-1.029,1.565-0.827l4.787,1.483C437.776,367.506,438.148,368.212,437.944,368.87z"/>
			<path style="fill-rule:evenodd;clip-rule:evenodd;fill:#FFFFFF;" d="M439.975,380.131l-17.643,56.916
				c-0.49,1.581-2.185,2.474-3.768,1.982l-11.505-3.565c-1.58-0.491-2.474-2.185-1.983-3.769l17.644-56.914
				c1.02-3.282,5.43-4.29,6.483-3.963l7.669,2.378C437.927,373.522,440.994,376.847,439.975,380.131z"/>
			<path style="fill-rule:evenodd;clip-rule:evenodd;fill:#D65E21;" d="M441.614,382.873l-16.381,52.839
				c-0.348,1.121-1.548,1.754-2.668,1.405l-17.724-5.494c-1.12-0.347-1.755-1.548-1.406-2.668l16.383-52.839
				c0.347-1.123,1.547-1.755,2.668-1.407l17.723,5.495C441.329,380.55,441.963,381.751,441.614,382.873z"/>
			
				<rect x="395.808" y="394.504" transform="matrix(0.2961 -0.9551 0.9551 0.2961 -90.3089 689.2765)" style="fill-rule:evenodd;clip-rule:evenodd;fill:#F76C26;" width="53.435" height="22.82"/>
			<path style="fill-rule:evenodd;clip-rule:evenodd;fill:#D65E21;" d="M455.636,337.649l-6.082,19.617
				c-0.348,1.123-1.55,1.754-2.668,1.405l-17.725-5.494c-1.121-0.347-1.755-1.547-1.405-2.668l6.081-19.619
				c0.348-1.12,1.549-1.753,2.67-1.405l17.723,5.495C455.351,335.327,455.982,336.527,455.636,337.649z"/>
			<path style="fill-rule:evenodd;clip-rule:evenodd;fill:#F76C26;" d="M448.344,353.619l5.84-18.837
				c0.28-0.902-0.228-1.867-1.131-2.146l-14.252-4.419c-0.901-0.278-1.865,0.231-2.146,1.129l-5.839,18.838
				c-0.28,0.901,0.229,1.867,1.13,2.147l14.252,4.418C447.099,355.027,448.065,354.52,448.344,353.619z"/>
		</g>
		<g style="clip-path:url(#SVGID_00000057149659661241700480000012953625693942196655_);">
			<path style="fill:#4C8EB4;" d="M103.947,470.441c0.3,0.469,0.164,1.084-0.303,1.381c-0.467,0.299-1.082,0.16-1.381-0.309
				l-2.146-3.368c-0.295-0.462-0.159-1.078,0.308-1.375c0.466-0.298,1.084-0.161,1.377,0.303L103.947,470.441z"/>
			<path style="fill:#5282AA;" d="M102.251,461.086c1.937,3.042,1.778,6.602-0.353,7.956c-2.132,1.358-5.422,0-7.359-3.044
				l-62.267-97.726c-1.935-3.037-1.779-6.599,0.352-7.957c2.129-1.357,5.424,0.004,7.362,3.043L102.251,461.086z"/>
			<path style="fill:#FFC500;" d="M99.681,454.89c1.71,2.684,0.92,6.251-1.767,7.962c-2.687,1.713-6.25,0.92-7.961-1.765
				l-55.9-87.74c-1.713-2.685-0.924-6.248,1.762-7.961c2.688-1.709,6.252-0.921,7.962,1.766L99.681,454.89z"/>
			<path style="fill:#F76C26;" d="M44.492,368.271l6.625,4.201l16.808,26.381c0,0,0.205,1.97-0.322,3.62l-13.945-21.886
				c0,0-7.252-0.644-11.519,6.282l-7.865-12.347C34.274,374.522,37.605,368.193,44.492,368.271z"/>
		</g>
		<g style="clip-path:url(#SVGID_00000057149659661241700480000012953625693942196655_);">
			
				<rect x="395.671" y="267.046" transform="matrix(0.8788 -0.4771 0.4771 0.8788 -75.9711 260.8279)" style="fill-rule:evenodd;clip-rule:evenodd;fill:#FFC500;" width="159.761" height="25.891"/>
			<g>
				
					<rect x="399.361" y="268.276" transform="matrix(0.8787 -0.4774 0.4774 0.8787 -72.3063 257.6255)" style="fill-rule:evenodd;clip-rule:evenodd;fill:#F4E1BA;" width="142.696" height="5.589"/>
				
					<rect x="527.912" y="236.896" transform="matrix(0.8788 -0.4772 0.4772 0.8788 -51.9659 282.1369)" style="fill-rule:evenodd;clip-rule:evenodd;fill:#F4E1BA;" width="3.041" height="12.946"/>
				
					<rect x="519.148" y="241.655" transform="matrix(0.8788 -0.4772 0.4772 0.8788 -55.2982 278.5542)" style="fill-rule:evenodd;clip-rule:evenodd;fill:#F4E1BA;" width="3.041" height="12.946"/>
				
					<rect x="510.383" y="246.415" transform="matrix(0.8788 -0.4772 0.4772 0.8788 -58.6331 274.9104)" style="fill-rule:evenodd;clip-rule:evenodd;fill:#F4E1BA;" width="3.042" height="12.945"/>
				
					<rect x="501.618" y="251.174" transform="matrix(0.8788 -0.4771 0.4771 0.8788 -61.967 271.2664)" style="fill-rule:evenodd;clip-rule:evenodd;fill:#F4E1BA;" width="3.043" height="12.944"/>
				
					<rect x="492.854" y="255.933" transform="matrix(0.8787 -0.4773 0.4773 0.8787 -65.2985 267.7923)" style="fill-rule:evenodd;clip-rule:evenodd;fill:#F4E1BA;" width="3.042" height="12.945"/>
				
					<rect x="484.09" y="260.692" transform="matrix(0.8789 -0.4771 0.4771 0.8789 -68.6319 264.0382)" style="fill-rule:evenodd;clip-rule:evenodd;fill:#F4E1BA;" width="3.041" height="12.945"/>
				
					<rect x="475.325" y="265.451" transform="matrix(0.8788 -0.4772 0.4772 0.8788 -71.966 260.5242)" style="fill-rule:evenodd;clip-rule:evenodd;fill:#F4E1BA;" width="3.041" height="12.945"/>
				
					<rect x="466.562" y="270.211" transform="matrix(0.8788 -0.4771 0.4771 0.8788 -75.2978 256.8636)" style="fill-rule:evenodd;clip-rule:evenodd;fill:#F4E1BA;" width="3.04" height="12.945"/>
				
					<rect x="457.797" y="274.969" transform="matrix(0.8788 -0.4772 0.4772 0.8788 -78.6324 253.2951)" style="fill-rule:evenodd;clip-rule:evenodd;fill:#F4E1BA;" width="3.042" height="12.946"/>
				
					<rect x="449.033" y="279.728" transform="matrix(0.8788 -0.4772 0.4772 0.8788 -81.9667 249.7053)" style="fill-rule:evenodd;clip-rule:evenodd;fill:#F4E1BA;" width="3.04" height="12.946"/>
				
					<rect x="440.268" y="284.488" transform="matrix(0.8787 -0.4773 0.4773 0.8787 -85.3052 246.1547)" style="fill-rule:evenodd;clip-rule:evenodd;fill:#F4E1BA;" width="3.04" height="12.945"/>
				
					<rect x="431.504" y="289.247" transform="matrix(0.8788 -0.4771 0.4771 0.8788 -88.6284 242.4392)" style="fill-rule:evenodd;clip-rule:evenodd;fill:#F4E1BA;" width="3.04" height="12.946"/>
				
					<rect x="422.739" y="294.006" transform="matrix(0.8788 -0.4772 0.4772 0.8788 -91.9675 238.8917)" style="fill-rule:evenodd;clip-rule:evenodd;fill:#F4E1BA;" width="3.042" height="12.945"/>
				
					<rect x="413.974" y="298.765" transform="matrix(0.8788 -0.4773 0.4773 0.8788 -95.3056 235.3172)" style="fill-rule:evenodd;clip-rule:evenodd;fill:#F4E1BA;" width="3.042" height="12.946"/>
			</g>
		</g>
	</g>
</g>
<g id="DESIGNED_BY_FREEPIK">
	<g>
		<g>
			<path style="fill:#4D5147;" d="M179.111,477.859v-0.161c-0.218,0.249-0.433,0.452-0.645,0.609
				c-0.211,0.156-0.441,0.276-0.689,0.357c-0.247,0.082-0.517,0.121-0.81,0.121c-0.388,0-0.747-0.082-1.078-0.245
				c-0.33-0.164-0.616-0.399-0.857-0.704c-0.243-0.304-0.425-0.662-0.55-1.075c-0.124-0.411-0.187-0.856-0.187-1.336
				c0-1.013,0.248-1.802,0.742-2.369c0.496-0.564,1.146-0.848,1.954-0.848c0.467,0,0.86,0.08,1.182,0.24
				c0.32,0.159,0.633,0.407,0.938,0.738v-2.391c0-0.335,0.065-0.584,0.199-0.756c0.132-0.169,0.321-0.255,0.567-0.255
				c0.246,0,0.434,0.078,0.567,0.235c0.133,0.156,0.199,0.386,0.199,0.691v7.147c0,0.309-0.07,0.54-0.213,0.694
				c-0.143,0.155-0.326,0.231-0.552,0.231c-0.221,0-0.404-0.078-0.549-0.239C179.183,478.386,179.111,478.156,179.111,477.859z
				 M175.923,475.479c0,0.439,0.068,0.813,0.204,1.122c0.137,0.308,0.323,0.541,0.561,0.697c0.238,0.157,0.497,0.235,0.777,0.235
				c0.285,0,0.545-0.074,0.781-0.224c0.235-0.146,0.423-0.376,0.564-0.683c0.14-0.305,0.21-0.69,0.21-1.148
				c0-0.433-0.07-0.803-0.21-1.114c-0.141-0.311-0.331-0.548-0.57-0.713c-0.24-0.162-0.502-0.244-0.787-0.244
				c-0.297,0-0.562,0.084-0.795,0.25c-0.234,0.169-0.415,0.41-0.544,0.725C175.986,474.698,175.923,475.063,175.923,475.479z"/>
			<path style="fill:#4D5147;" d="M186.257,475.889h-3.169c0.004,0.368,0.077,0.693,0.222,0.974
				c0.144,0.282,0.337,0.493,0.576,0.635c0.24,0.142,0.504,0.213,0.793,0.213c0.194,0,0.37-0.021,0.531-0.066
				c0.161-0.047,0.316-0.117,0.467-0.216c0.149-0.096,0.288-0.199,0.415-0.311c0.126-0.11,0.289-0.263,0.492-0.451
				c0.083-0.07,0.202-0.107,0.356-0.107c0.167,0,0.301,0.047,0.403,0.137c0.103,0.093,0.155,0.22,0.155,0.387
				c0,0.146-0.058,0.316-0.172,0.513c-0.115,0.197-0.288,0.386-0.519,0.564c-0.233,0.183-0.523,0.331-0.873,0.449
				c-0.35,0.119-0.753,0.178-1.208,0.178c-1.041,0-1.851-0.296-2.428-0.889c-0.578-0.594-0.867-1.4-0.867-2.417
				c0-0.479,0.072-0.924,0.213-1.333c0.143-0.409,0.351-0.76,0.624-1.054c0.273-0.294,0.609-0.517,1.009-0.674
				c0.399-0.156,0.843-0.234,1.33-0.234c0.633,0,1.176,0.133,1.629,0.401c0.453,0.266,0.793,0.612,1.018,1.033
				c0.225,0.426,0.339,0.856,0.339,1.295c0,0.409-0.117,0.674-0.351,0.793C187.01,475.828,186.681,475.889,186.257,475.889z
				 M183.088,474.969h2.939c-0.04-0.555-0.189-0.97-0.449-1.243c-0.259-0.276-0.6-0.413-1.024-0.413
				c-0.403,0-0.735,0.139-0.994,0.417C183.3,474.009,183.144,474.422,183.088,474.969z"/>
			<path style="fill:#4D5147;" d="M193.643,476.666c0,0.447-0.109,0.831-0.327,1.149c-0.217,0.318-0.538,0.561-0.964,0.725
				c-0.425,0.163-0.943,0.245-1.552,0.245c-0.582,0-1.081-0.088-1.496-0.267c-0.416-0.178-0.723-0.401-0.92-0.667
				c-0.198-0.269-0.297-0.537-0.297-0.806c0-0.178,0.063-0.33,0.19-0.458c0.126-0.125,0.287-0.188,0.481-0.188
				c0.169,0,0.301,0.041,0.392,0.123c0.091,0.084,0.178,0.202,0.26,0.351c0.167,0.29,0.366,0.503,0.598,0.648
				c0.232,0.141,0.547,0.213,0.948,0.213c0.324,0,0.59-0.074,0.798-0.217c0.207-0.146,0.311-0.31,0.311-0.496
				c0-0.285-0.108-0.491-0.323-0.622c-0.216-0.132-0.572-0.257-1.066-0.376c-0.558-0.138-1.012-0.284-1.362-0.437
				c-0.351-0.151-0.63-0.352-0.84-0.602c-0.21-0.249-0.315-0.557-0.315-0.92c0-0.323,0.097-0.631,0.291-0.921
				c0.195-0.288,0.481-0.518,0.859-0.691c0.378-0.172,0.833-0.258,1.368-0.258c0.42,0,0.797,0.043,1.131,0.131
				c0.335,0.086,0.615,0.204,0.837,0.351c0.224,0.145,0.395,0.308,0.511,0.485c0.117,0.179,0.174,0.353,0.174,0.523
				c0,0.186-0.061,0.338-0.186,0.458c-0.124,0.117-0.301,0.178-0.532,0.178c-0.166,0-0.307-0.049-0.425-0.145
				c-0.116-0.094-0.249-0.237-0.4-0.425c-0.123-0.159-0.266-0.286-0.433-0.382c-0.167-0.097-0.392-0.142-0.678-0.142
				c-0.293,0-0.536,0.061-0.73,0.186c-0.193,0.125-0.291,0.28-0.291,0.466c0,0.171,0.071,0.31,0.213,0.419
				c0.143,0.109,0.335,0.2,0.577,0.27c0.242,0.07,0.574,0.156,0.997,0.261c0.503,0.123,0.913,0.27,1.232,0.439
				c0.318,0.17,0.559,0.372,0.725,0.602C193.56,476.106,193.643,476.369,193.643,476.666z"/>
			<path style="fill:#4D5147;" d="M195.298,471.442c-0.225,0-0.418-0.069-0.579-0.208c-0.161-0.137-0.241-0.335-0.241-0.588
				c0-0.231,0.083-0.419,0.247-0.567c0.164-0.148,0.355-0.224,0.573-0.224c0.21,0,0.395,0.069,0.558,0.204
				c0.162,0.133,0.244,0.329,0.244,0.587c0,0.249-0.08,0.445-0.238,0.584C195.704,471.371,195.516,471.442,195.298,471.442z
				 M196.1,473.116v4.684c0,0.325-0.077,0.57-0.232,0.736c-0.155,0.167-0.35,0.249-0.587,0.249c-0.238,0-0.431-0.084-0.579-0.255
				c-0.149-0.17-0.224-0.415-0.224-0.73v-4.637c0-0.319,0.075-0.561,0.224-0.725c0.148-0.16,0.34-0.242,0.579-0.242
				c0.238,0,0.433,0.082,0.587,0.242C196.023,472.602,196.1,472.828,196.1,473.116z"/>
			<path style="fill:#4D5147;" d="M203.2,473.383v4.707c0,0.539-0.058,1.003-0.172,1.391c-0.115,0.388-0.299,0.709-0.552,0.961
				c-0.254,0.253-0.585,0.443-0.994,0.564c-0.411,0.123-0.919,0.184-1.53,0.184c-0.558,0-1.056-0.078-1.496-0.233
				c-0.439-0.159-0.777-0.36-1.015-0.607c-0.237-0.246-0.356-0.501-0.356-0.762c0-0.197,0.067-0.36,0.203-0.483
				c0.134-0.125,0.297-0.189,0.487-0.189c0.237,0,0.444,0.105,0.623,0.315c0.087,0.106,0.177,0.214,0.27,0.323
				c0.093,0.109,0.197,0.202,0.309,0.28c0.113,0.076,0.248,0.133,0.406,0.17c0.159,0.037,0.341,0.057,0.546,0.057
				c0.419,0,0.745-0.059,0.977-0.176c0.231-0.115,0.394-0.278,0.487-0.489c0.093-0.208,0.147-0.433,0.163-0.674
				c0.017-0.239,0.028-0.623,0.036-1.155c-0.249,0.351-0.538,0.614-0.864,0.797c-0.326,0.182-0.715,0.274-1.167,0.274
				c-0.542,0-1.016-0.14-1.422-0.417c-0.404-0.276-0.717-0.664-0.934-1.163c-0.218-0.5-0.326-1.075-0.326-1.728
				c0-0.485,0.065-0.927,0.198-1.318c0.133-0.394,0.322-0.722,0.568-0.992c0.245-0.268,0.528-0.47,0.848-0.607
				c0.321-0.137,0.672-0.205,1.057-0.205c0.458,0,0.857,0.088,1.194,0.264c0.335,0.177,0.649,0.452,0.938,0.829v-0.22
				c0-0.282,0.068-0.499,0.208-0.654c0.139-0.152,0.317-0.23,0.534-0.23c0.313,0,0.52,0.102,0.623,0.305
				C203.147,472.705,203.2,473.001,203.2,473.383z M198.504,475.439c0,0.656,0.143,1.153,0.43,1.488
				c0.287,0.337,0.659,0.505,1.113,0.505c0.269,0,0.524-0.072,0.763-0.217c0.24-0.143,0.435-0.362,0.585-0.652
				c0.15-0.292,0.225-0.645,0.225-1.06c0-0.661-0.145-1.177-0.436-1.543c-0.291-0.368-0.674-0.552-1.148-0.552
				c-0.463,0-0.835,0.176-1.113,0.528C198.643,474.287,198.504,474.788,198.504,475.439z"/>
			<path style="fill:#4D5147;" d="M205.775,473.093v0.196c0.285-0.377,0.596-0.652,0.935-0.829c0.338-0.176,0.727-0.264,1.166-0.264
				c0.428,0,0.81,0.094,1.147,0.279c0.335,0.187,0.587,0.448,0.753,0.787c0.107,0.2,0.176,0.413,0.208,0.643
				c0.031,0.229,0.048,0.522,0.048,0.879v3.016c0,0.325-0.075,0.57-0.223,0.736c-0.149,0.167-0.342,0.249-0.579,0.249
				c-0.242,0-0.438-0.084-0.587-0.255c-0.151-0.17-0.227-0.415-0.227-0.73v-2.702c0-0.532-0.074-0.941-0.222-1.226
				c-0.149-0.282-0.444-0.425-0.888-0.425c-0.288,0-0.552,0.088-0.789,0.261c-0.238,0.17-0.412,0.407-0.523,0.708
				c-0.079,0.241-0.118,0.691-0.118,1.354v2.03c0,0.329-0.077,0.576-0.228,0.74c-0.153,0.163-0.35,0.245-0.591,0.245
				c-0.235,0-0.426-0.084-0.577-0.255c-0.15-0.17-0.225-0.415-0.225-0.73v-4.684c0-0.31,0.067-0.54,0.202-0.693
				c0.134-0.15,0.318-0.227,0.551-0.227c0.143,0,0.273,0.033,0.387,0.1c0.115,0.068,0.207,0.17,0.276,0.304
				C205.741,472.734,205.775,472.898,205.775,473.093z"/>
			<path style="fill:#4D5147;" d="M215.635,475.889h-3.169c0.004,0.368,0.077,0.693,0.222,0.974
				c0.145,0.282,0.337,0.493,0.577,0.635c0.238,0.142,0.504,0.213,0.792,0.213c0.194,0,0.371-0.021,0.532-0.066
				c0.16-0.047,0.315-0.117,0.466-0.216c0.149-0.096,0.288-0.199,0.415-0.311c0.126-0.11,0.291-0.263,0.492-0.451
				c0.084-0.07,0.202-0.107,0.357-0.107c0.167,0,0.301,0.047,0.403,0.137c0.103,0.093,0.155,0.22,0.155,0.387
				c0,0.146-0.058,0.316-0.172,0.513c-0.114,0.197-0.288,0.386-0.52,0.564c-0.231,0.183-0.521,0.331-0.872,0.449
				c-0.351,0.119-0.753,0.178-1.209,0.178c-1.04,0-1.849-0.296-2.428-0.889c-0.578-0.594-0.867-1.4-0.867-2.417
				c0-0.479,0.071-0.924,0.213-1.333c0.143-0.409,0.351-0.76,0.624-1.054c0.273-0.294,0.61-0.517,1.01-0.674
				c0.399-0.156,0.843-0.234,1.33-0.234c0.633,0,1.176,0.133,1.629,0.401c0.454,0.266,0.793,0.612,1.019,1.033
				c0.225,0.426,0.339,0.856,0.339,1.295c0,0.409-0.117,0.674-0.351,0.793C216.388,475.828,216.059,475.889,215.635,475.889z
				 M212.466,474.969h2.938c-0.039-0.555-0.189-0.97-0.448-1.243c-0.259-0.276-0.6-0.413-1.023-0.413
				c-0.405,0-0.736,0.139-0.996,0.417C212.677,474.009,212.521,474.422,212.466,474.969z"/>
			<path style="fill:#4D5147;" d="M222.242,477.859v-0.161c-0.218,0.249-0.432,0.452-0.645,0.609
				c-0.212,0.156-0.44,0.276-0.688,0.357c-0.247,0.082-0.517,0.121-0.81,0.121c-0.389,0-0.747-0.082-1.078-0.245
				c-0.33-0.164-0.617-0.399-0.857-0.704c-0.242-0.304-0.425-0.662-0.549-1.075c-0.124-0.411-0.187-0.856-0.187-1.336
				c0-1.013,0.248-1.802,0.742-2.369c0.495-0.564,1.145-0.848,1.953-0.848c0.467,0,0.861,0.08,1.182,0.24
				c0.32,0.159,0.632,0.407,0.937,0.738v-2.391c0-0.335,0.066-0.584,0.2-0.756c0.132-0.169,0.321-0.255,0.567-0.255
				c0.245,0,0.434,0.078,0.566,0.235c0.133,0.156,0.2,0.386,0.2,0.691v7.147c0,0.309-0.072,0.54-0.214,0.694
				c-0.142,0.155-0.325,0.231-0.551,0.231c-0.222,0-0.405-0.078-0.549-0.239C222.314,478.386,222.242,478.156,222.242,477.859z
				 M219.055,475.479c0,0.439,0.067,0.813,0.204,1.122c0.137,0.308,0.324,0.541,0.562,0.697c0.237,0.157,0.496,0.235,0.777,0.235
				c0.285,0,0.546-0.074,0.78-0.224c0.236-0.146,0.424-0.376,0.564-0.683c0.141-0.305,0.21-0.69,0.21-1.148
				c0-0.433-0.069-0.803-0.21-1.114c-0.14-0.311-0.33-0.548-0.57-0.713c-0.24-0.162-0.501-0.244-0.787-0.244
				c-0.296,0-0.561,0.084-0.795,0.25c-0.233,0.169-0.414,0.41-0.543,0.725C219.119,474.698,219.055,475.063,219.055,475.479z"/>
			<path style="fill:#4D5147;" d="M228.867,470.712v2.475c0.304-0.317,0.615-0.559,0.932-0.727c0.316-0.168,0.708-0.252,1.176-0.252
				c0.539,0,1.009,0.127,1.415,0.382c0.406,0.256,0.72,0.626,0.944,1.11c0.224,0.485,0.336,1.061,0.336,1.725
				c0,0.491-0.063,0.94-0.187,1.352c-0.125,0.409-0.306,0.766-0.543,1.065c-0.238,0.301-0.525,0.534-0.864,0.698
				c-0.338,0.163-0.711,0.245-1.118,0.245c-0.25,0-0.485-0.029-0.704-0.088c-0.22-0.059-0.406-0.138-0.561-0.235
				c-0.154-0.096-0.286-0.197-0.396-0.3c-0.108-0.102-0.253-0.256-0.43-0.464v0.161c0,0.305-0.074,0.536-0.219,0.692
				c-0.146,0.157-0.333,0.233-0.558,0.233c-0.23,0-0.414-0.076-0.549-0.233c-0.136-0.156-0.205-0.388-0.205-0.692v-7.077
				c0-0.327,0.066-0.576,0.198-0.744c0.133-0.169,0.318-0.253,0.556-0.253c0.25,0,0.441,0.08,0.576,0.241
				C228.799,470.186,228.867,470.414,228.867,470.712z M228.944,475.526c0,0.645,0.147,1.14,0.443,1.486
				c0.294,0.347,0.681,0.522,1.16,0.522c0.407,0,0.759-0.177,1.053-0.533c0.295-0.354,0.443-0.861,0.443-1.522
				c0-0.427-0.062-0.797-0.184-1.104c-0.123-0.309-0.297-0.548-0.522-0.717c-0.226-0.166-0.49-0.25-0.79-0.25
				c-0.309,0-0.585,0.084-0.826,0.25c-0.241,0.169-0.431,0.412-0.57,0.73C229.014,474.708,228.944,475.088,228.944,475.526z"/>
			<path style="fill:#4D5147;" d="M235.771,478.989l0.148-0.364l-1.994-5.022c-0.123-0.289-0.184-0.499-0.184-0.63
				c0-0.14,0.035-0.267,0.106-0.386c0.072-0.12,0.169-0.214,0.294-0.284c0.124-0.072,0.254-0.107,0.389-0.107
				c0.233,0,0.41,0.074,0.529,0.223c0.119,0.147,0.223,0.36,0.314,0.637l1.372,3.99l1.3-3.71c0.103-0.3,0.196-0.537,0.279-0.707
				c0.083-0.171,0.17-0.284,0.263-0.343c0.093-0.061,0.226-0.09,0.396-0.09c0.124,0,0.241,0.033,0.354,0.098
				c0.113,0.064,0.2,0.152,0.261,0.265c0.061,0.111,0.093,0.227,0.093,0.35c-0.017,0.075-0.041,0.183-0.078,0.321
				c-0.035,0.138-0.079,0.28-0.129,0.421l-2.114,5.532c-0.182,0.487-0.36,0.869-0.535,1.146c-0.174,0.278-0.404,0.491-0.691,0.639
				c-0.288,0.148-0.673,0.223-1.161,0.223c-0.475,0-0.831-0.051-1.068-0.152c-0.238-0.104-0.356-0.292-0.356-0.565
				c0-0.187,0.056-0.329,0.169-0.43c0.113-0.102,0.28-0.152,0.501-0.152c0.088,0,0.173,0.012,0.256,0.035
				c0.103,0.023,0.192,0.035,0.267,0.035c0.186,0,0.334-0.025,0.44-0.082c0.107-0.055,0.202-0.15,0.287-0.288
				C235.562,479.455,235.66,479.253,235.771,478.989z"/>
		</g>
		<g>
			<g>
				<path style="fill:#4D5147;" d="M259.25,472.335h0.387v-0.485c0-0.51,0.063-0.911,0.191-1.211
					c0.127-0.299,0.347-0.517,0.654-0.653c0.307-0.136,0.727-0.204,1.261-0.204c0.949,0,1.42,0.229,1.42,0.697
					c0,0.149-0.05,0.278-0.149,0.384c-0.097,0.105-0.216,0.161-0.35,0.161c-0.062,0-0.173-0.013-0.329-0.038
					c-0.147-0.022-0.282-0.035-0.39-0.035c-0.292,0-0.478,0.089-0.565,0.261c-0.08,0.172-0.122,0.417-0.122,0.738v0.386h0.396
					c0.619,0,0.926,0.186,0.926,0.562c0,0.261-0.079,0.432-0.246,0.502c-0.163,0.072-0.39,0.107-0.68,0.107h-0.396v4.294
					c0,0.319-0.076,0.563-0.23,0.73c-0.151,0.171-0.347,0.253-0.59,0.253c-0.23,0-0.419-0.082-0.574-0.253
					c-0.152-0.168-0.227-0.411-0.227-0.73v-4.294h-0.446c-0.244,0-0.427-0.053-0.558-0.164c-0.132-0.106-0.197-0.249-0.197-0.424
					C258.435,472.529,258.707,472.335,259.25,472.335"/>
				<path style="fill:#4D5147;" d="M264.557,476.445v1.354c0,0.327-0.083,0.576-0.235,0.736c-0.153,0.167-0.349,0.247-0.585,0.247
					c-0.238,0-0.43-0.08-0.579-0.249c-0.147-0.166-0.226-0.411-0.226-0.734v-4.515c0-0.729,0.262-1.093,0.789-1.093
					c0.271,0,0.463,0.086,0.583,0.256c0.119,0.171,0.185,0.421,0.198,0.754c0.192-0.333,0.391-0.583,0.593-0.754
					c0.208-0.17,0.477-0.256,0.818-0.256c0.343,0,0.67,0.086,0.991,0.256c0.322,0.171,0.482,0.397,0.482,0.678
					c0,0.196-0.07,0.362-0.204,0.487c-0.138,0.132-0.285,0.196-0.441,0.196c-0.063,0-0.207-0.039-0.433-0.111
					c-0.229-0.073-0.432-0.11-0.603-0.11c-0.238,0-0.433,0.064-0.581,0.187c-0.152,0.129-0.271,0.311-0.354,0.556
					c-0.081,0.245-0.137,0.541-0.171,0.878C264.569,475.545,264.557,475.96,264.557,476.445"/>
				<path style="fill:#4D5147;" d="M272.007,475.887h-3.172c0.006,0.368,0.079,0.695,0.223,0.976
					c0.147,0.278,0.337,0.491,0.577,0.635c0.241,0.142,0.504,0.213,0.794,0.213c0.194,0,0.37-0.021,0.531-0.07
					c0.158-0.043,0.314-0.115,0.465-0.214c0.151-0.094,0.288-0.197,0.415-0.311c0.127-0.11,0.292-0.261,0.495-0.451
					c0.084-0.07,0.202-0.107,0.355-0.107c0.166,0,0.299,0.045,0.405,0.139c0.103,0.091,0.151,0.218,0.151,0.387
					c0,0.146-0.056,0.316-0.167,0.511c-0.117,0.199-0.289,0.386-0.522,0.565c-0.233,0.179-0.524,0.331-0.874,0.447
					c-0.349,0.119-0.753,0.178-1.207,0.178c-1.044,0-1.853-0.294-2.43-0.887c-0.577-0.596-0.869-1.402-0.869-2.419
					c0-0.48,0.073-0.924,0.218-1.333c0.14-0.411,0.347-0.762,0.623-1.056c0.272-0.294,0.607-0.517,1.009-0.674
					c0.397-0.156,0.841-0.234,1.329-0.234c0.633,0,1.177,0.135,1.63,0.405c0.452,0.262,0.796,0.608,1.018,1.033
					c0.227,0.426,0.339,0.854,0.339,1.297c0,0.405-0.117,0.668-0.351,0.791C272.76,475.826,272.431,475.887,272.007,475.887
					 M268.835,474.965h2.938c-0.039-0.553-0.184-0.968-0.445-1.241c-0.262-0.276-0.6-0.411-1.025-0.411
					c-0.404,0-0.736,0.137-0.994,0.417C269.049,474.009,268.891,474.42,268.835,474.965"/>
				<path style="fill:#4D5147;" d="M278.75,475.887h-3.171c0.004,0.368,0.078,0.695,0.222,0.976
					c0.145,0.278,0.337,0.491,0.575,0.635c0.24,0.142,0.504,0.213,0.795,0.213c0.192,0,0.37-0.021,0.528-0.07
					c0.161-0.043,0.315-0.115,0.468-0.214c0.151-0.094,0.288-0.197,0.415-0.311c0.125-0.11,0.291-0.261,0.494-0.451
					c0.084-0.07,0.203-0.107,0.354-0.107c0.168,0,0.302,0.045,0.407,0.139c0.103,0.091,0.149,0.218,0.149,0.387
					c0,0.146-0.055,0.316-0.171,0.511c-0.111,0.199-0.284,0.386-0.518,0.565c-0.232,0.179-0.525,0.331-0.873,0.447
					c-0.348,0.119-0.754,0.178-1.208,0.178c-1.043,0-1.85-0.294-2.43-0.887c-0.577-0.596-0.868-1.402-0.868-2.419
					c0-0.48,0.072-0.924,0.217-1.333c0.143-0.411,0.35-0.762,0.623-1.056c0.272-0.294,0.608-0.517,1.009-0.674
					c0.399-0.156,0.845-0.234,1.33-0.234c0.632,0,1.175,0.135,1.634,0.405c0.45,0.262,0.791,0.608,1.013,1.033
					c0.226,0.426,0.341,0.854,0.341,1.297c0,0.405-0.119,0.668-0.351,0.791C279.501,475.826,279.172,475.887,278.75,475.887
					 M275.579,474.965h2.938c-0.04-0.553-0.189-0.968-0.446-1.241c-0.265-0.276-0.603-0.411-1.027-0.411
					c-0.404,0-0.735,0.137-0.996,0.417C275.791,474.009,275.631,474.42,275.579,474.965"/>
				<path style="fill:#4D5147;" d="M282.3,473.104v0.194c0.304-0.377,0.622-0.652,0.954-0.827c0.322-0.178,0.697-0.268,1.113-0.268
					c0.496,0,0.959,0.131,1.379,0.386c0.42,0.258,0.749,0.634,0.994,1.13c0.242,0.497,0.366,1.081,0.366,1.758
					c0,0.498-0.07,0.958-0.211,1.377c-0.14,0.417-0.336,0.766-0.58,1.05c-0.246,0.279-0.535,0.501-0.869,0.651
					c-0.339,0.153-0.693,0.228-1.079,0.228c-0.462,0-0.853-0.092-1.167-0.278c-0.313-0.182-0.613-0.458-0.9-0.816v2.434
					c0,0.709-0.261,1.067-0.777,1.067c-0.307,0-0.506-0.092-0.607-0.274c-0.095-0.186-0.146-0.453-0.146-0.807v-6.997
					c0-0.31,0.067-0.536,0.201-0.693c0.134-0.148,0.318-0.227,0.553-0.227c0.23,0,0.416,0.078,0.56,0.234
					C282.229,472.586,282.3,472.809,282.3,473.104 M285.478,475.46c0-0.429-0.067-0.797-0.197-1.103
					c-0.131-0.307-0.312-0.542-0.541-0.705c-0.23-0.164-0.49-0.246-0.77-0.246c-0.448,0-0.825,0.176-1.131,0.526
					c-0.308,0.355-0.463,0.872-0.463,1.557c0,0.643,0.152,1.147,0.461,1.504c0.303,0.36,0.678,0.539,1.133,0.539
					c0.267,0,0.519-0.081,0.747-0.233c0.232-0.158,0.416-0.392,0.553-0.705C285.408,476.28,285.478,475.9,285.478,475.46"/>
				<path style="fill:#4D5147;" d="M288.738,471.439c-0.227,0-0.419-0.073-0.577-0.21c-0.163-0.139-0.242-0.333-0.242-0.586
					c0-0.229,0.082-0.417,0.248-0.567c0.163-0.146,0.354-0.224,0.571-0.224c0.213,0,0.397,0.067,0.559,0.2
					c0.162,0.137,0.243,0.335,0.243,0.591c0,0.251-0.079,0.445-0.234,0.586C289.145,471.365,288.958,471.439,288.738,471.439
					 M289.54,473.112v4.689c0,0.321-0.076,0.566-0.23,0.732c-0.156,0.169-0.35,0.249-0.588,0.249c-0.239,0-0.429-0.082-0.58-0.253
					c-0.147-0.172-0.223-0.415-0.223-0.729v-4.643c0-0.319,0.076-0.56,0.223-0.723c0.151-0.164,0.341-0.244,0.58-0.244
					c0.238,0,0.432,0.08,0.588,0.244C289.464,472.6,289.54,472.826,289.54,473.112"/>
				<path style="fill:#4D5147;" d="M294.766,478.045l-1.428-2.353l-0.88,0.83v1.291c0,0.31-0.083,0.55-0.248,0.718
					c-0.161,0.171-0.354,0.253-0.566,0.253c-0.249,0-0.446-0.08-0.588-0.249c-0.142-0.166-0.215-0.411-0.215-0.734v-6.914
					c0-0.36,0.072-0.633,0.207-0.822c0.14-0.191,0.341-0.282,0.596-0.282c0.249,0,0.446,0.086,0.593,0.257
					c0.147,0.17,0.222,0.421,0.222,0.752v3.934l1.823-1.915c0.225-0.234,0.396-0.399,0.516-0.485
					c0.119-0.088,0.263-0.131,0.431-0.131c0.205,0,0.371,0.066,0.512,0.193c0.131,0.127,0.199,0.29,0.199,0.483
					c0,0.237-0.221,0.557-0.659,0.952l-0.86,0.787l1.662,2.616c0.12,0.193,0.212,0.339,0.264,0.44c0.053,0.1,0.083,0.2,0.083,0.288
					c0,0.259-0.073,0.46-0.214,0.611c-0.141,0.146-0.328,0.219-0.554,0.219c-0.197,0-0.353-0.049-0.459-0.158
					C295.096,478.517,294.948,478.323,294.766,478.045"/>
				<path style="fill:#4D5147;" d="M298.288,478.783c-0.244,0-0.455-0.076-0.633-0.237c-0.179-0.154-0.269-0.378-0.269-0.665
					c0-0.241,0.086-0.449,0.257-0.621c0.172-0.174,0.38-0.263,0.629-0.263c0.249,0,0.461,0.089,0.64,0.257
					c0.176,0.172,0.265,0.384,0.265,0.627c0,0.283-0.089,0.505-0.265,0.663C298.733,478.707,298.525,478.783,298.288,478.783"/>
				<path style="fill:#4D5147;" d="M306.352,476.778c0,0.199-0.062,0.417-0.183,0.646c-0.119,0.232-0.305,0.449-0.554,0.656
					c-0.247,0.208-0.558,0.376-0.934,0.504c-0.376,0.125-0.801,0.189-1.27,0.189c-1.004,0-1.786-0.292-2.349-0.875
					c-0.56-0.584-0.841-1.367-0.841-2.35c0-0.668,0.128-1.254,0.387-1.765c0.255-0.51,0.627-0.905,1.114-1.185
					c0.486-0.28,1.072-0.419,1.746-0.419c0.421,0,0.805,0.061,1.157,0.184c0.351,0.123,0.645,0.282,0.892,0.476
					c0.241,0.196,0.429,0.401,0.555,0.621c0.13,0.219,0.193,0.425,0.193,0.615c0,0.193-0.071,0.357-0.215,0.493
					c-0.146,0.133-0.322,0.201-0.523,0.201c-0.138,0-0.249-0.035-0.338-0.104c-0.091-0.068-0.191-0.18-0.3-0.337
					c-0.199-0.3-0.404-0.526-0.623-0.676c-0.214-0.152-0.488-0.227-0.821-0.227c-0.476,0-0.864,0.186-1.158,0.562
					c-0.292,0.372-0.439,0.888-0.439,1.533c0,0.306,0.039,0.588,0.114,0.843c0.073,0.254,0.183,0.474,0.325,0.651
					c0.144,0.181,0.315,0.317,0.516,0.409c0.203,0.097,0.427,0.142,0.666,0.142c0.326,0,0.604-0.074,0.835-0.226
					c0.235-0.15,0.44-0.38,0.616-0.688c0.099-0.182,0.206-0.324,0.319-0.429c0.113-0.102,0.255-0.154,0.422-0.154
					c0.198,0,0.363,0.076,0.49,0.225C306.284,476.447,306.352,476.607,306.352,476.778"/>
				<path style="fill:#4D5147;" d="M313.345,475.489c0,0.482-0.075,0.929-0.222,1.338c-0.154,0.407-0.37,0.758-0.656,1.05
					c-0.284,0.291-0.626,0.517-1.021,0.673c-0.399,0.157-0.844,0.235-1.336,0.235c-0.491,0-0.934-0.078-1.326-0.239
					c-0.39-0.154-0.732-0.384-1.016-0.677c-0.288-0.298-0.506-0.645-0.658-1.046c-0.144-0.403-0.219-0.848-0.219-1.334
					c0-0.491,0.077-0.939,0.224-1.349c0.151-0.407,0.369-0.758,0.65-1.046c0.281-0.288,0.62-0.509,1.019-0.668
					c0.402-0.156,0.844-0.234,1.326-0.234c0.49,0,0.936,0.078,1.336,0.238c0.399,0.157,0.74,0.384,1.028,0.676
					c0.286,0.296,0.501,0.643,0.649,1.044C313.27,474.558,313.345,475,313.345,475.489 M311.718,475.489
					c0-0.661-0.146-1.175-0.436-1.543c-0.29-0.372-0.682-0.554-1.172-0.554c-0.317,0-0.598,0.082-0.839,0.246
					c-0.242,0.163-0.427,0.406-0.557,0.727c-0.131,0.321-0.196,0.697-0.196,1.124c0,0.425,0.063,0.793,0.192,1.108
					c0.13,0.319,0.314,0.563,0.555,0.73c0.24,0.165,0.521,0.253,0.845,0.253c0.49,0,0.882-0.187,1.172-0.559
					C311.571,476.654,311.718,476.142,311.718,475.489"/>
				<path style="fill:#4D5147;" d="M319.528,475.609v2.153c0,0.343-0.075,0.596-0.23,0.768c-0.156,0.171-0.357,0.255-0.611,0.255
					c-0.245,0-0.446-0.084-0.595-0.255c-0.153-0.172-0.232-0.425-0.232-0.768v-2.581c0-0.409-0.014-0.726-0.04-0.953
					c-0.028-0.222-0.104-0.409-0.225-0.553c-0.124-0.147-0.318-0.219-0.583-0.219c-0.53,0-0.878,0.182-1.047,0.55
					c-0.167,0.36-0.254,0.884-0.254,1.567v2.189c0,0.337-0.077,0.592-0.226,0.766c-0.156,0.171-0.355,0.257-0.603,0.257
					c-0.248,0-0.448-0.086-0.604-0.257c-0.157-0.174-0.235-0.429-0.235-0.766v-4.637c0-0.306,0.069-0.538,0.21-0.695
					c0.143-0.16,0.329-0.238,0.556-0.238c0.224,0,0.407,0.078,0.558,0.223c0.147,0.15,0.221,0.354,0.221,0.615v0.152
					c0.283-0.335,0.585-0.581,0.904-0.736c0.322-0.162,0.675-0.242,1.07-0.242c0.406,0,0.757,0.082,1.048,0.244
					c0.294,0.163,0.534,0.409,0.726,0.734c0.275-0.329,0.568-0.575,0.882-0.736c0.312-0.162,0.657-0.242,1.038-0.242
					c0.441,0,0.826,0.09,1.146,0.262c0.318,0.175,0.559,0.425,0.717,0.748c0.139,0.296,0.207,0.756,0.207,1.385v3.164
					c0,0.343-0.076,0.596-0.23,0.768c-0.153,0.171-0.358,0.255-0.61,0.255c-0.247,0-0.448-0.086-0.604-0.257
					c-0.156-0.174-0.236-0.429-0.236-0.766v-2.726c0-0.349-0.015-0.627-0.043-0.836c-0.029-0.212-0.11-0.388-0.238-0.531
					c-0.134-0.141-0.332-0.213-0.596-0.213c-0.215,0-0.417,0.066-0.61,0.191c-0.19,0.124-0.341,0.298-0.45,0.51
					C319.59,474.43,319.528,474.916,319.528,475.609"/>
			</g>
			<g>
				<path style="fill:#4D5147;" d="M250.355,468.887c0.313,0,0.544,0.025,0.809,0.07l0.076-0.478c0,0-0.732-0.226-1.695-0.147
					l-0.075-0.258c0.299-0.063,0.524-0.329,0.524-0.646c0-0.364-0.297-0.658-0.661-0.658c-0.365,0-0.66,0.294-0.66,0.658
					c0,0.317,0.224,0.584,0.522,0.646l0.084,0.289c-1.021,0.14-1.835,0.539-1.835,0.539l0.144,0.44
					c0.618-0.206,1.154-0.331,1.641-0.384C249.705,468.908,250.063,468.887,250.355,468.887z"/>
				<path style="fill:#4D5147;" d="M244.687,471.299l0.004-0.006c0.023-0.031,0.047-0.061,0.07-0.088l-0.196-0.141l-0.305-0.224
					c-0.017,0.023-0.496,0.464-0.875,1.28c-0.017-0.025-0.035-0.051-0.057-0.074c-0.113-0.125-0.272-0.188-0.474-0.184
					c-0.002,0-0.006,0-0.01,0c-0.124,0-0.209-0.043-0.266-0.093c0.055-0.07,0.089-0.16,0.089-0.258c0-0.231-0.188-0.419-0.419-0.419
					c-0.231,0-0.417,0.188-0.417,0.419c0,0.23,0.186,0.417,0.417,0.417c0.036,0,0.07-0.006,0.104-0.012
					c0.103,0.113,0.266,0.213,0.504,0.207c0.124,0,0.213,0.031,0.273,0.099c0.07,0.076,0.093,0.184,0.101,0.268
					c-0.001,0-0.001,0.002-0.002,0.002c-0.273,0.744-0.195,1.669-0.195,1.669l0.661,0.027c0.014-0.337,0.062-0.927,0.233-1.395
					C244.258,471.889,244.67,471.322,244.687,471.299z"/>
				<path style="fill:#4D5147;" d="M256.105,469.439c-0.23,0-0.418,0.186-0.418,0.419c0,0.035,0.004,0.069,0.014,0.103
					c-0.114,0.104-0.214,0.268-0.21,0.507c0.002,0.123-0.029,0.212-0.097,0.274c-0.053,0.045-0.119,0.07-0.184,0.086
					c-0.492-0.689-1.097-1.108-1.097-1.108l-0.476,0.507c0.358,0.327,0.725,0.734,1.08,1.244c0.247,0.354,0.499,0.809,0.711,1.261
					l0.64-0.304c0,0-0.293-0.725-0.703-1.37c0.07-0.025,0.143-0.065,0.206-0.122c0.126-0.111,0.187-0.272,0.183-0.474
					c0-0.129,0.042-0.218,0.094-0.274c0.071,0.055,0.16,0.089,0.258,0.089c0.231,0,0.418-0.186,0.418-0.418
					C256.523,469.625,256.337,469.439,256.105,469.439z"/>
				<path style="fill:#4D5147;" d="M254.444,475.192c-0.881,0.427-2.33,0.994-4.238,1.261c-0.75,0.104-1.475,0.143-2.143,0.143
					c-0.87,0-1.638-0.064-2.227-0.139c-0.673-0.084-1.199-0.188-1.521-0.263c0.077,0.245,0.17,0.487,0.284,0.725
					c0.001,0.006,0.004,0.014,0.008,0.018c0.013,0.027,0.026,0.055,0.04,0.084c0.014,0.025,0.028,0.054,0.042,0.079
					c0.004,0.008,0.007,0.016,0.011,0.021c0.189,0.356,0.417,0.683,0.675,0.967c0.9,0.985,1.816,1.14,1.825,1.142l0.015,0.002
					l0.014,0.004c0.008,0.004,0.821,0.267,2.057,0.267c1.216,0,2.41-0.245,3.546-0.73c0.842-0.431,1.639-1.085,2.033-1.668
					c0.306-0.453,0.525-0.933,0.657-1.434c0.069-0.267,0.124-0.691,0.091-1.142C255.365,474.696,254.975,474.932,254.444,475.192z"
					/>
				<path style="fill:#4D5147;" d="M244.97,471.507c-0.025,0.037-0.407,0.579-0.709,1.409c-0.226,0.621-0.216,1.526-0.216,1.536
					v0.004c0,0.211,0.012,0.421,0.035,0.63c0,0.006,0,0.008,0.001,0.012c0.003,0.025,0.008,0.051,0.01,0.078
					c0.019,0.145,0.043,0.292,0.074,0.441c0.438,0.109,3.049,0.719,5.968,0.313c1.83-0.254,3.219-0.797,4.063-1.206
					c0.701-0.339,1.15-0.646,1.324-0.773c-0.174-0.642-0.65-1.65-1.089-2.279c-1.253-1.79-2.605-2.25-3.298-2.363
					c-0.265-0.043-0.478-0.068-0.778-0.068c-0.28,0-0.627,0.023-1.089,0.072c-0.465,0.047-0.983,0.168-1.584,0.372
					c-0.842,0.282-1.604,0.723-2.204,1.278l-0.02,0.02C245.369,471.065,245.183,471.236,244.97,471.507z M252.639,471.092
					c0.601,0,1.09,0.487,1.09,1.089c0,0.601-0.489,1.088-1.09,1.088s-1.088-0.487-1.088-1.088
					C251.551,471.579,252.038,471.092,252.639,471.092z M247.488,471.047c0.972,0,1.76,0.789,1.76,1.762
					c0,0.972-0.788,1.759-1.76,1.759c-0.973,0-1.761-0.787-1.761-1.759C245.727,471.836,246.516,471.047,247.488,471.047z"/>
			</g>
		</g>
	</g>
</g>
</svg>
